999
dxfrw 0.6.3
  0
SECTION
  2
HEADER
  9
$ACADVER
  1
AC1021
  9
$DWGCODEPAGE
  3
ANSI_1252
  9
$INSBASE
 10
0
 20
0
 30
0
  9
$EXTMIN
 10
1e+20
 20
1e+20
 30
1e+20
  9
$EXTMAX
 10
-1e+20
 20
-1e+20
 30
-1e+20
  9
$LIMMIN
 10
0
 20
0
  9
$LIMMAX
 10
420
 20
297
  9
$ORTHOMODE
 70
    0
  9
$REGENMODE
 70
    1
  9
$FILLMODE
 70
    1
  9
$QTEXTMODE
 70
    0
  9
$MIRRTEXT
 70
    0
  9
$LTSCALE
 40
1
  9
$ATTMODE
 70
    0
  9
$TEXTSIZE
 40
2.5
  9
$TRACEWID
 40
15.68
  9
$TEXTSTYLE
  7
STANDARD
  9
$CLAYER
  8
0
  9
$CELTYPE
  6
BYLAYER
  9
$CECOLOR
 62
  256
  9
$CELTSCALE
 40
1
  9
$DISPSILH
 70
    0
  9
$DIMSCALE
 40
1
  9
$DIMASZ
 40
2.5
  9
$DIMEXO
 40
0.625
  9
$DIMDLI
 40
3.75
  9
$DIMRND
 40
0
  9
$DIMDLE
 40
0
  9
$DIMEXE
 40
1.25
  9
$DIMTP
 40
0
  9
$DIMTM
 40
0
  9
$DIMTXT
 40
2.5
  9
$DIMCEN
 40
2.5
  9
$DIMTSZ
 40
0
  9
$DIMTOL
 70
    0
  9
$DIMLIM
 70
    0
  9
$DIMTIH
 70
    0
  9
$DIMTOH
 70
    0
  9
$DIMSE1
 70
    0
  9
$DIMSE2
 70
    0
  9
$DIMTAD
 70
    1
  9
$DIMZIN
 70
    8
  9
$DIMBLK
  1

  9
$DIMASO
 70
    1
  9
$DIMSHO
 70
    1
  9
$DIMPOST
  1

  9
$DIMAPOST
  1

  9
$DIMALT
 70
    0
  9
$DIMALTD
 70
    3
  9
$DIMALTF
 40
0.03937
  9
$DIMLFAC
 40
1
  9
$DIMTOFL
 70
    1
  9
$DIMTVP
 40
0
  9
$DIMTIX
 70
    0
  9
$DIMSOXD
 70
    0
  9
$DIMSAH
 70
    0
  9
$DIMBLK1
  1

  9
$DIMBLK2
  1

  9
$DIMSTYLE
  2
STANDARD
  9
$DIMCLRD
 70
    0
  9
$DIMCLRE
 70
    0
  9
$DIMCLRT
 70
    0
  9
$DIMTFAC
 40
1
  9
$DIMGAP
 40
0.625
  9
$DIMJUST
 70
    0
  9
$DIMSD1
 70
    0
  9
$DIMSD2
 70
    0
  9
$DIMTOLJ
 70
    0
  9
$DIMTZIN
 70
    8
  9
$DIMALTZ
 70
    0
  9
$DIMALTTZ
 70
    0
  9
$DIMUPT
 70
    0
  9
$DIMDEC
 70
    2
  9
$DIMTDEC
 70
    2
  9
$DIMALTU
 70
    2
  9
$DIMALTTD
 70
    3
  9
$DIMTXSTY
  7
STANDARD
  9
$DIMAUNIT
 70
    0
  9
$DIMADEC
 70
    0
  9
$DIMALTRND
 40
0
  9
$DIMAZIN
 70
    0
  9
$DIMDSEP
 70
   44
  9
$DIMATFIT
 70
    3
  9
$DIMFRAC
 70
    0
  9
$DIMLDRBLK
  1
STANDARD
  9
$DIMLUNIT
 70
    2
  9
$DIMLWD
 70
   -2
  9
$DIMLWE
 70
   -2
  9
$DIMTMOVE
 70
    0
  9
$DIMFXL
 40
1
  9
$DIMFXLON
 70
    0
  9
$DIMJOGANG
 40
0.7854
  9
$DIMTFILL
 70
    0
  9
$DIMTFILLCLR
 70
    0
  9
$DIMARCSYM
 70
    0
  9
$DIMLTYPE
  6

  9
$DIMLTEX1
  6

  9
$DIMLTEX2
  6

  9
$LUNITS
 70
    2
  9
$LUPREC
 70
    4
  9
$SKETCHINC
 40
1
  9
$FILLETRAD
 40
0
  9
$AUNITS
 70
    0
  9
$AUPREC
 70
    2
  9
$MENU
  1
.
  9
$ELEVATION
 40
0
  9
$PELEVATION
 40
0
  9
$THICKNESS
 40
0
  9
$LIMCHECK
 70
    0
  9
$CHAMFERA
 40
0
  9
$CHAMFERB
 40
0
  9
$CHAMFERC
 40
0
  9
$CHAMFERD
 40
0
  9
$SKPOLY
 70
    0
  9
$USRTIMER
 70
    1
  9
$ANGBASE
 50
0
  9
$ANGDIR
 70
    0
  9
$PDMODE
 70
   34
  9
$PDSIZE
 40
0
  9
$PLINEWID
 40
0
  9
$SPLFRAME
 70
    0
  9
$SPLINETYPE
 70
    2
  9
$SPLINESEGS
 70
    8
  9
$HANDSEED
  5
20000
  9
$SURFTAB1
 70
    6
  9
$SURFTAB2
 70
    6
  9
$SURFTYPE
 70
    6
  9
$SURFU
 70
    6
  9
$SURFV
 70
    6
  9
$UCSBASE
  2

  9
$UCSNAME
  2

  9
$UCSORG
 10
0
 20
0
 30
0
  9
$UCSXDIR
 10
1
 20
0
 30
0
  9
$UCSYDIR
 10
0
 20
1
 30
0
  9
$UCSORTHOREF
  2

  9
$UCSORTHOVIEW
 70
    0
  9
$UCSORGTOP
 10
0
 20
0
 30
0
  9
$UCSORGBOTTOM
 10
0
 20
0
 30
0
  9
$UCSORGLEFT
 10
0
 20
0
 30
0
  9
$UCSORGRIGHT
 10
0
 20
0
 30
0
  9
$UCSORGFRONT
 10
0
 20
0
 30
0
  9
$UCSORGBACK
 10
0
 20
0
 30
0
  9
$PUCSBASE
  2

  9
$PUCSNAME
  2

  9
$PUCSORG
 10
0
 20
0
 30
0
  9
$PUCSXDIR
 10
1
 20
0
 30
0
  9
$PUCSYDIR
 10
0
 20
1
 30
0
  9
$PUCSORTHOREF
  2

  9
$PUCSORTHOVIEW
 70
    0
  9
$PUCSORGTOP
 10
0
 20
0
 30
0
  9
$PUCSORGBOTTOM
 10
0
 20
0
 30
0
  9
$PUCSORGLEFT
 10
0
 20
0
 30
0
  9
$PUCSORGRIGHT
 10
0
 20
0
 30
0
  9
$PUCSORGFRONT
 10
0
 20
0
 30
0
  9
$PUCSORGBACK
 10
0
 20
0
 30
0
  9
$USERI1
 70
    0
  9
$USERI2
 70
    0
  9
$USERI3
 70
    0
  9
$USERI4
 70
    0
  9
$USERI5
 70
    0
  9
$USERR1
 40
0
  9
$USERR2
 40
0
  9
$USERR3
 40
0
  9
$USERR4
 40
0
  9
$USERR5
 40
0
  9
$WORLDVIEW
 70
    1
  9
$SHADEDGE
 70
    3
  9
$SHADEDIF
 70
   70
  9
$TILEMODE
 70
    1
  9
$MAXACTVP
 70
   64
  9
$PINSBASE
 10
0
 20
0
 30
0
  9
$PLIMCHECK
 70
    0
  9
$PEXTMIN
 10
0
 20
0
 30
0
  9
$PEXTMAX
 10
0
 20
0
 30
0
  9
$PLIMMIN
 10
0
 20
0
  9
$PLIMMAX
 10
297
 20
210
  9
$UNITMODE
 70
    0
  9
$VISRETAIN
 70
    1
  9
$PLINEGEN
 70
    0
  9
$PSLTSCALE
 70
    1
  9
$TREEDEPTH
 70
 3020
  9
$CMLSTYLE
  2
Standard
  9
$CMLJUST
 70
    0
  9
$CMLSCALE
 40
20
  9
$PROXYGRAPHICS
 70
    1
  9
$MEASUREMENT
 70
    1
  9
$CELWEIGHT
370
   -1
  9
$ENDCAPS
280
    0
  9
$JOINSTYLE
280
    0
  9
$LWDISPLAY
290
    0
  9
$INSUNITS
 70
    0
  9
$HYPERLINKBASE
  1

  9
$STYLESHEET
  1

  9
$XEDIT
290
    1
  9
$CEPSNTYPE
380
    0
  9
$PSTYLEMODE
290
    1
  9
$EXTNAMES
290
    1
  9
$PSVPSCALE
 40
0
  9
$OLESTARTUP
290
    0
  9
$SORTENTS
280
  127
  9
$INDEXCTL
280
    0
  9
$HIDETEXT
280
    1
  9
$XCLIPFRAME
290
    0
  9
$HALOGAP
280
    0
  9
$OBSCOLOR
 70
  257
  9
$OBSLTYPE
280
    0
  9
$INTERSECTIONDISPLAY
280
    0
  9
$INTERSECTIONCOLOR
 70
  257
  9
$DIMASSOC
280
    1
  9
$PROJECTNAME
  1

  9
$CAMERADISPLAY
290
    0
  9
$LENSLENGTH
 40
50
  9
$CAMERAHEIGHT
 40
0
  9
$STEPSPERSEC
 40
2
  9
$STEPSIZE
 40
50
  9
$3DDWFPREC
 40
2
  9
$PSOLWIDTH
 40
5
  9
$PSOLHEIGHT
 40
80
  9
$LOFTANG1
 40
1.570796326794897
  9
$LOFTANG2
 40
1.570796326794897
  9
$LOFTMAG1
 40
0
  9
$LOFTMAG2
 40
0
  9
$LOFTPARAM
 70
    7
  9
$LOFTNORMALS
280
    1
  9
$LATITUDE
 40
1
  9
$LONGITUDE
 40
1
  9
$NORTHDIRECTION
 40
0
  9
$TIMEZONE
 70
-8000
  9
$LIGHTGLYPHDISPLAY
280
    1
  9
$TILEMODELIGHTSYNCH
280
    1
  9
$SOLIDHIST
280
    1
  9
$SHOWHIST
280
    1
  9
$DWFFRAME
280
    2
  9
$DGNFRAME
280
    0
  9
$REALWORLDSCALE
290
    1
  9
$INTERFERECOLOR
 62
    1
  9
$CSHADOW
280
    0
  9
$SHADOWPLANELOCATION
 40
0
  0
ENDSEC
  0
SECTION
  2
CLASSES
  0
ENDSEC
  0
SECTION
  2
TABLES
  0
TABLE
  2
VPORT
  5
8
330
0
100
AcDbSymbolTable
 70
    1
  0
VPORT
  5
31
330
2
100
AcDbSymbolTableRecord
100
AcDbViewportTableRecord
  2
*ACTIVE
 70
    0
 10
0
 20
0
 11
1
 21
1
 12
0.651828
 22
-0.16
 13
0
 23
0
 14
10
 24
10
 15
10
 25
10
 16
0
 26
0
 36
1
 17
0
 27
0
 37
0
 40
5.13732
 41
2.4426877
 42
50
 43
0
 44
0
 50
0
 51
0
 71
    0
 72
  100
 73
    1
 74
    3
 75
    0
 76
    0
 77
    0
 78
    0
281
    0
 65
    1
110
0
120
0
130
0
111
1
121
0
131
0
112
0
122
1
132
0
 79
    0
146
0
348
10020
 60
    7
 61
    5
292
1
282
    1
141
0
142
0
 63
  250
421
3358443
  0
ENDTAB
  0
TABLE
  2
LTYPE
  5
5
330
0
100
AcDbSymbolTable
 70
    4
  0
LTYPE
  5
14
330
5
100
AcDbSymbolTableRecord
100
AcDbLinetypeTableRecord
  2
ByBlock
 70
    0
  3

 72
   65
 73
    0
 40
0
  0
LTYPE
  5
15
330
5
100
AcDbSymbolTableRecord
100
AcDbLinetypeTableRecord
  2
ByLayer
 70
    0
  3

 72
   65
 73
    0
 40
0
  0
LTYPE
  5
16
330
5
100
AcDbSymbolTableRecord
100
AcDbLinetypeTableRecord
  2
Continuous
 70
    0
  3
Solid line
 72
   65
 73
    0
 40
0
  0
LTYPE
  5
32
330
5
100
AcDbSymbolTableRecord
100
AcDbLinetypeTableRecord
  2
DASHED
 70
    0
  3

 72
   65
 73
    2
 40
3
 49
1
 74
    0
 49
-2
 74
    0
  0
LTYPE
  5
33
330
5
100
AcDbSymbolTableRecord
100
AcDbLinetypeTableRecord
  2
DASHED
 70
    0
  3

 72
   65
 73
    2
 40
2
 49
1
 74
    0
 49
-1
 74
    0
  0
LTYPE
  5
34
330
5
100
AcDbSymbolTableRecord
100
AcDbLinetypeTableRecord
  2
DASHEDX2
 70
    0
  3

 72
   65
 73
    2
 40
3
 49
2
 74
    0
 49
-1
 74
    0
  0
LTYPE
  5
35
330
5
100
AcDbSymbolTableRecord
100
AcDbLinetypeTableRecord
  2
DASHDOT
 70
    0
  3

 72
   65
 73
    4
 40
3
 49
1
 74
    0
 49
-1
 74
    0
 49
0
 74
    0
 49
-1
 74
    0
  0
LTYPE
  5
36
330
5
100
AcDbSymbolTableRecord
100
AcDbLinetypeTableRecord
  2
DIVIDE
 70
    0
  3

 72
   65
 73
    6
 40
4
 49
1
 74
    0
 49
-1
 74
    0
 49
0
 74
    0
 49
-1
 74
    0
 49
0
 74
    0
 49
-1
 74
    0
  0
LTYPE
  5
37
330
5
100
AcDbSymbolTableRecord
100
AcDbLinetypeTableRecord
  2
DOT
 70
    0
  3

 72
   65
 73
    2
 40
1
 49
1
 74
    0
 49
0
 74
    0
  0
ENDTAB
  0
TABLE
  2
LAYER
  5
2
330
0
100
AcDbSymbolTable
 70
    1
  0
LAYER
  5
38
330
2
100
AcDbSymbolTableRecord
100
AcDbLayerTableRecord
  2
dimensions
 70
    0
 62
    7
  6
CONTINUOUS
370
   -3
390
F
  0
LAYER
  5
39
330
2
100
AcDbSymbolTableRecord
100
AcDbLayerTableRecord
  2
text
 70
    0
 62
    7
  6
CONTINUOUS
370
   -3
390
F
  0
LAYER
  5
3A
330
2
100
AcDbSymbolTableRecord
100
AcDbLayerTableRecord
  2
s001-#def-active-grp
 70
    0
 62
    7
  6
CONTINUOUS
370
   -3
390
F
  0
LAYER
  5
3B
330
2
100
AcDbSymbolTableRecord
100
AcDbLayerTableRecord
  2
s100-lasercut
 70
    0
 62
    7
  6
CONTINUOUS
370
   -3
390
F
  0
LAYER
  5
10
330
2
100
AcDbSymbolTableRecord
100
AcDbLayerTableRecord
  2
0
 70
    0
 62
    7
  6
CONTINUOUS
370
   -3
390
F
  0
ENDTAB
  0
TABLE
  2
STYLE
  5
3
330
0
100
AcDbSymbolTable
 70
    3
  0
STYLE
  5
3C
330
2
100
AcDbSymbolTableRecord
100
AcDbTextStyleTableRecord
  2
unicode
 70
    0
 40
0
 41
1
 50
0
 71
    0
 42
1
  3
unicode
  4

  0
STYLE
  5
3D
330
2
100
AcDbSymbolTableRecord
100
AcDbTextStyleTableRecord
  2
Standard
 70
    0
 40
0
 41
1
 50
0
 71
    0
 42
1
  3
txt
  4

  0
ENDTAB
  0
TABLE
  2
VIEW
  5
6
330
0
100
AcDbSymbolTable
 70
    0
  0
ENDTAB
  0
TABLE
  2
UCS
  5
7
330
0
100
AcDbSymbolTable
 70
    0
  0
ENDTAB
  0
TABLE
  2
APPID
  5
9
330
0
100
AcDbSymbolTable
 70
    1
  0
APPID
  5
12
330
9
100
AcDbSymbolTableRecord
100
AcDbRegAppTableRecord
  2
ACAD
 70
    0
  0
ENDTAB
  0
TABLE
  2
DIMSTYLE
  5
A
330
0
100
AcDbSymbolTable
 70
    1
100
AcDbDimStyleTable
 71
    1
  0
DIMSTYLE
105
3E
330
A
100
AcDbSymbolTableRecord
100
AcDbDimStyleTableRecord
  2
Standard
 70
    0
 40
1
 41
2.5
 42
0.625
 43
3.75
 44
1.25
 45
0
 46
0
 47
0
 48
0
140
2.5
141
2.5
142
0
143
0.03937007874015748
144
1
145
0
146
1
147
0.625
148
0
 71
    0
 72
    0
 73
    0
 74
    0
 75
    0
 76
    0
 77
    1
 78
    8
 79
    0
170
    0
171
    3
172
    1
173
    0
174
    0
175
    0
176
    0
177
    0
178
    0
179
    0
271
    2
272
    2
273
    2
274
    3
275
    0
276
    0
277
    2
278
   44
279
    0
280
    0
281
    0
282
    0
283
    0
284
    8
285
    0
286
    0
288
    0
289
    3
341

371
   -2
372
   -2
  0
ENDTAB
  0
TABLE
  2
BLOCK_RECORD
  5
1
330
0
100
AcDbSymbolTable
 70
    2
  0
BLOCK_RECORD
  5
1F
330
1
100
AcDbSymbolTableRecord
100
AcDbBlockTableRecord
  2
*Model_Space
 70
    0
280
    1
281
    0
  0
BLOCK_RECORD
  5
1E
330
1
100
AcDbSymbolTableRecord
100
AcDbBlockTableRecord
  2
*Paper_Space
 70
    0
280
    1
281
    0
  0
ENDTAB
  0
ENDSEC
  0
SECTION
  2
BLOCKS
  0
BLOCK
  5
20
330
1F
100
AcDbEntity
  8
0
100
AcDbBlockBegin
  2
*Model_Space
 70
    0
 10
0
 20
0
 30
0
  3
*Model_Space
  1

  0
ENDBLK
  5
21
330
1F
100
AcDbEntity
  8
0
100
AcDbBlockEnd
  0
BLOCK
  5
1C
330
1B
100
AcDbEntity
  8
0
100
AcDbBlockBegin
  2
*Paper_Space
 70
    0
 10
0
 20
0
 30
0
  3
*Paper_Space
  1

  0
ENDBLK
  5
1D
330
1F
100
AcDbEntity
  8
0
100
AcDbBlockEnd
  0
ENDSEC
  0
SECTION
  2
ENTITIES
  0
POLYLINE
  5
3F
100
AcDbEntity
  8
s100-lasercut
  6
CONTINUOUS
 62
    7
420
    0
370
    9
100
AcDb2dPolyline
 10
0
 20
0
 30
0
 70
    0
  0
VERTEX
  5
40
100
AcDbEntity
  8
s100-lasercut
  6
CONTINUOUS
 62
    7
420
    0
370
    9
100
AcDbVertex
100
AcDb2dVertex
 10
-39.54841688306099
 20
-44.57653309809943
 30
0
  0
VERTEX
  5
41
100
AcDbEntity
  8
s100-lasercut
  6
CONTINUOUS
 62
    7
420
    0
370
    9
100
AcDbVertex
100
AcDb2dVertex
 10
-15.548416883061
 20
-44.57653309809943
 30
0
  0
VERTEX
  5
42
100
AcDbEntity
  8
s100-lasercut
  6
CONTINUOUS
 62
    7
420
    0
370
    9
100
AcDbVertex
100
AcDb2dVertex
 10
-6.548416883060998
 20
-44.57653309809943
 30
0
  0
SEQEND
  5
43
100
AcDbEntity
  8
s100-lasercut
  6
CONTINUOUS
 62
    7
420
    0
370
    9
  0
POLYLINE
  5
44
100
AcDbEntity
  8
s100-lasercut
  6
CONTINUOUS
 62
    7
420
    0
370
    9
100
AcDb2dPolyline
 10
0
 20
0
 30
0
 70
    0
  0
VERTEX
  5
45
100
AcDbEntity
  8
s100-lasercut
  6
CONTINUOUS
 62
    7
420
    0
370
    9
100
AcDbVertex
100
AcDb2dVertex
 10
-6.548416883060998
 20
14.94966456898812
 30
0
  0
VERTEX
  5
46
100
AcDbEntity
  8
s100-lasercut
  6
CONTINUOUS
 62
    7
420
    0
370
    9
100
AcDbVertex
100
AcDb2dVertex
 10
-15.548416883061
 20
14.94966456898812
 30
0
  0
VERTEX
  5
47
100
AcDbEntity
  8
s100-lasercut
  6
CONTINUOUS
 62
    7
420
    0
370
    9
100
AcDbVertex
100
AcDb2dVertex
 10
-39.54841688306099
 20
14.94966456898812
 30
0
  0
SEQEND
  5
48
100
AcDbEntity
  8
s100-lasercut
  6
CONTINUOUS
 62
    7
420
    0
370
    9
  0
POLYLINE
  5
49
100
AcDbEntity
  8
s100-lasercut
  6
CONTINUOUS
 62
    7
420
    0
370
    9
100
AcDb2dPolyline
 10
0
 20
0
 30
0
 70
    0
  0
VERTEX
  5
4A
100
AcDbEntity
  8
s100-lasercut
  6
CONTINUOUS
 62
    7
420
    0
370
    9
100
AcDbVertex
100
AcDb2dVertex
 10
24.82890191414737
 20
1.241837011594392
 30
0
  0
VERTEX
  5
4B
100
AcDbEntity
  8
s100-lasercut
  6
CONTINUOUS
 62
    7
420
    0
370
    9
100
AcDbVertex
100
AcDb2dVertex
 10
62.71929419831124
 20
1.241837011594392
 30
0
  0
VERTEX
  5
4C
100
AcDbEntity
  8
s100-lasercut
  6
CONTINUOUS
 62
    7
420
    0
370
    9
100
AcDbVertex
100
AcDb2dVertex
 10
63.71929419831124
 20
0.2418370115943915
 30
0
  0
VERTEX
  5
4D
100
AcDbEntity
  8
s100-lasercut
  6
CONTINUOUS
 62
    7
420
    0
370
    9
100
AcDbVertex
100
AcDb2dVertex
 10
63.71929419831124
 20
-30.93211856294019
 30
0
  0
VERTEX
  5
4E
100
AcDbEntity
  8
s100-lasercut
  6
CONTINUOUS
 62
    7
420
    0
370
    9
100
AcDbVertex
100
AcDb2dVertex
 10
62.71929419831124
 20
-32.28436065549316
 30
0
  0
VERTEX
  5
4F
100
AcDbEntity
  8
s100-lasercut
  6
CONTINUOUS
 62
    7
420
    0
370
    9
100
AcDbVertex
100
AcDb2dVertex
 10
24.71772613217954
 20
-32.28436065549316
 30
0
  0
SEQEND
  5
50
100
AcDbEntity
  8
s100-lasercut
  6
CONTINUOUS
 62
    7
420
    0
370
    9
  0
POLYLINE
  5
51
100
AcDbEntity
  8
s001-#def-active-grp
  6
CONTINUOUS
 62
    7
420
    0
370
   25
100
AcDb2dPolyline
 10
0
 20
0
 30
0
 70
    0
  0
VERTEX
  5
52
100
AcDbEntity
  8
s001-#def-active-grp
  6
CONTINUOUS
 62
    7
420
    0
370
   25
100
AcDbVertex
100
AcDb2dVertex
 10
65.1800918951175
 20
-7.739206204991721
 30
0
  0
VERTEX
  5
53
100
AcDbEntity
  8
s001-#def-active-grp
  6
CONTINUOUS
 62
    7
420
    0
370
   25
100
AcDbVertex
100
AcDb2dVertex
 10
65.1800918951175
 20
-7.376732612829588
 30
0
  0
VERTEX
  5
54
100
AcDbEntity
  8
s001-#def-active-grp
  6
CONTINUOUS
 62
    7
420
    0
370
   25
100
AcDbVertex
100
AcDb2dVertex
 10
65.1800918951175
 20
-6.656280971746826
 30
0
  0
VERTEX
  5
55
100
AcDbEntity
  8
s001-#def-active-grp
  6
CONTINUOUS
 62
    7
420
    0
370
   25
100
AcDbVertex
100
AcDb2dVertex
 10
65.04006679798576
 20
-6.658539391737365
 30
0
  0
VERTEX
  5
56
100
AcDbEntity
  8
s001-#def-active-grp
  6
CONTINUOUS
 62
    7
420
    0
370
   25
100
AcDbVertex
100
AcDb2dVertex
 10
65.04006679798576
 20
-7.314613993149184
 30
0
  0
VERTEX
  5
57
100
AcDbEntity
  8
s001-#def-active-grp
  6
CONTINUOUS
 62
    7
420
    0
370
   25
100
AcDbVertex
100
AcDb2dVertex
 10
65.04006679798576
 20
-7.666935182791137
 30
0
  0
SEQEND
  5
58
100
AcDbEntity
  8
s001-#def-active-grp
  6
CONTINUOUS
 62
    7
420
    0
370
   25
  0
POLYLINE
  5
59
100
AcDbEntity
  8
s001-#def-active-grp
  6
CONTINUOUS
 62
    7
420
    0
370
   25
100
AcDb2dPolyline
 10
0
 20
0
 30
0
 70
    0
  0
VERTEX
  5
5A
100
AcDbEntity
  8
s001-#def-active-grp
  6
CONTINUOUS
 62
    7
420
    0
370
   25
100
AcDbVertex
100
AcDb2dVertex
 10
65.21234665929623
 20
-12.73920620499172
 30
0
  0
VERTEX
  5
5B
100
AcDbEntity
  8
s001-#def-active-grp
  6
CONTINUOUS
 62
    7
420
    0
370
   25
100
AcDbVertex
100
AcDb2dVertex
 10
65.21234665929623
 20
-12.37673261282959
 30
0
  0
VERTEX
  5
5C
100
AcDbEntity
  8
s001-#def-active-grp
  6
CONTINUOUS
 62
    7
420
    0
370
   25
100
AcDbVertex
100
AcDb2dVertex
 10
65.21234665929623
 20
-11.65628097174682
 30
0
  0
VERTEX
  5
5D
100
AcDbEntity
  8
s001-#def-active-grp
  6
CONTINUOUS
 62
    7
420
    0
370
   25
100
AcDbVertex
100
AcDb2dVertex
 10
65.07232156216452
 20
-11.65853939173736
 30
0
  0
VERTEX
  5
5E
100
AcDbEntity
  8
s001-#def-active-grp
  6
CONTINUOUS
 62
    7
420
    0
370
   25
100
AcDbVertex
100
AcDb2dVertex
 10
65.07232156216452
 20
-12.31461399314918
 30
0
  0
VERTEX
  5
5F
100
AcDbEntity
  8
s001-#def-active-grp
  6
CONTINUOUS
 62
    7
420
    0
370
   25
100
AcDbVertex
100
AcDb2dVertex
 10
65.07232156216452
 20
-12.66693518279114
 30
0
  0
SEQEND
  5
60
100
AcDbEntity
  8
s001-#def-active-grp
  6
CONTINUOUS
 62
    7
420
    0
370
   25
  0
POLYLINE
  5
61
100
AcDbEntity
  8
s001-#def-active-grp
  6
CONTINUOUS
 62
    7
420
    0
370
   25
100
AcDb2dPolyline
 10
0
 20
0
 30
0
 70
    0
  0
VERTEX
  5
62
100
AcDbEntity
  8
s001-#def-active-grp
  6
CONTINUOUS
 62
    7
420
    0
370
   25
100
AcDbVertex
100
AcDb2dVertex
 10
65.82327329932997
 20
-12.50320692179718
 30
0
  0
VERTEX
  5
63
100
AcDbEntity
  8
s001-#def-active-grp
  6
CONTINUOUS
 62
    7
420
    0
370
   25
100
AcDbVertex
100
AcDb2dVertex
 10
65.19541891633816
 20
-12.50320692179718
 30
0
  0
VERTEX
  5
64
100
AcDbEntity
  8
s001-#def-active-grp
  6
CONTINUOUS
 62
    7
420
    0
370
   25
100
AcDbVertex
100
AcDb2dVertex
 10
64.83180535852262
 20
-12.50320692179718
 30
0
  0
SEQEND
  5
65
100
AcDbEntity
  8
s001-#def-active-grp
  6
CONTINUOUS
 62
    7
420
    0
370
   25
  0
POLYLINE
  5
66
100
AcDbEntity
  8
s001-#def-active-grp
  6
CONTINUOUS
 62
    7
420
    0
370
   25
100
AcDb2dPolyline
 10
0
 20
0
 30
0
 70
    0
  0
VERTEX
  5
67
100
AcDbEntity
  8
s001-#def-active-grp
  6
CONTINUOUS
 62
    7
420
    0
370
   25
100
AcDbVertex
100
AcDb2dVertex
 10
64.90519483506031
 20
-12.36318182466545
 30
0
  0
VERTEX
  5
68
100
AcDbEntity
  8
s001-#def-active-grp
  6
CONTINUOUS
 62
    7
420
    0
370
   25
100
AcDbVertex
100
AcDb2dVertex
 10
65.25639754354307
 20
-12.36318182466545
 30
0
  0
VERTEX
  5
69
100
AcDbEntity
  8
s001-#def-active-grp
  6
CONTINUOUS
 62
    7
420
    0
370
   25
100
AcDbVertex
100
AcDb2dVertex
 10
65.82101487933943
 20
-12.36318182466545
 30
0
  0
SEQEND
  5
6A
100
AcDbEntity
  8
s001-#def-active-grp
  6
CONTINUOUS
 62
    7
420
    0
370
   25
  0
POLYLINE
  5
6B
100
AcDbEntity
  8
s001-#def-active-grp
  6
CONTINUOUS
 62
    7
420
    0
370
   25
100
AcDb2dPolyline
 10
0
 20
0
 30
0
 70
    0
  0
VERTEX
  5
6C
100
AcDbEntity
  8
s001-#def-active-grp
  6
CONTINUOUS
 62
    7
420
    0
370
   25
100
AcDbVertex
100
AcDb2dVertex
 10
64.98036424862335
 20
-16.55350988028565
 30
0
  0
VERTEX
  5
6D
100
AcDbEntity
  8
s001-#def-active-grp
  6
CONTINUOUS
 62
    7
420
    0
370
   25
100
AcDbVertex
100
AcDb2dVertex
 10
64.97922425614783
 20
-16.91600495694199
 30
0
  0
VERTEX
  5
6E
100
AcDbEntity
  8
s001-#def-active-grp
  6
CONTINUOUS
 62
    7
420
    0
370
   25
100
AcDbVertex
100
AcDb2dVertex
 10
64.9769657825131
 20
-17.63645659802475
 30
0
  0
VERTEX
  5
6F
100
AcDbEntity
  8
s001-#def-active-grp
  6
CONTINUOUS
 62
    7
420
    0
370
   25
100
AcDbVertex
100
AcDb2dVertex
 10
65.11699087964485
 20
-17.63419812439003
 30
0
  0
VERTEX
  5
70
100
AcDbEntity
  8
s001-#def-active-grp
  6
CONTINUOUS
 62
    7
420
    0
370
   25
100
AcDbVertex
100
AcDb2dVertex
 10
65.11924929963538
 20
-16.97810206530609
 30
0
  0
VERTEX
  5
71
100
AcDbEntity
  8
s001-#def-active-grp
  6
CONTINUOUS
 62
    7
420
    0
370
   25
100
AcDbVertex
100
AcDb2dVertex
 10
65.12038934575509
 20
-16.62578082201996
 30
0
  0
SEQEND
  5
72
100
AcDbEntity
  8
s001-#def-active-grp
  6
CONTINUOUS
 62
    7
420
    0
370
   25
  0
POLYLINE
  5
73
100
AcDbEntity
  8
s001-#def-active-grp
  6
CONTINUOUS
 62
    7
420
    0
370
   25
100
AcDb2dPolyline
 10
0
 20
0
 30
0
 70
    0
  0
VERTEX
  5
74
100
AcDbEntity
  8
s001-#def-active-grp
  6
CONTINUOUS
 62
    7
420
    0
370
   25
100
AcDbVertex
100
AcDb2dVertex
 10
64.6596615825791
 20
-17.05828852770843
 30
0
  0
VERTEX
  5
75
100
AcDbEntity
  8
s001-#def-active-grp
  6
CONTINUOUS
 62
    7
420
    0
370
   25
100
AcDbVertex
100
AcDb2dVertex
 10
65.01084283338975
 20
-17.06054694769897
 30
0
  0
VERTEX
  5
76
100
AcDbEntity
  8
s001-#def-active-grp
  6
CONTINUOUS
 62
    7
420
    0
370
   25
100
AcDbVertex
100
AcDb2dVertex
 10
65.21410508500526
 20
-17.06166542885818
 30
0
  0
SEQEND
  5
77
100
AcDbEntity
  8
s001-#def-active-grp
  6
CONTINUOUS
 62
    7
420
    0
370
   25
  0
POLYLINE
  5
78
100
AcDbEntity
  8
s001-#def-active-grp
  6
CONTINUOUS
 62
    7
420
    0
370
   25
100
AcDb2dPolyline
 10
0
 20
0
 30
0
 70
    0
  0
VERTEX
  5
79
100
AcDbEntity
  8
s001-#def-active-grp
  6
CONTINUOUS
 62
    7
420
    0
370
   25
100
AcDbVertex
100
AcDb2dVertex
 10
65.1723340784211
 20
-17.20169047234573
 30
0
  0
VERTEX
  5
7A
100
AcDbEntity
  8
s001-#def-active-grp
  6
CONTINUOUS
 62
    7
420
    0
370
   25
100
AcDbVertex
100
AcDb2dVertex
 10
64.97584730135389
 20
-17.20057199118652
 30
0
  0
VERTEX
  5
7B
100
AcDbEntity
  8
s001-#def-active-grp
  6
CONTINUOUS
 62
    7
420
    0
370
   25
100
AcDbVertex
100
AcDb2dVertex
 10
64.66078006373831
 20
-17.19831357119598
 30
0
  0
SEQEND
  5
7C
100
AcDbEntity
  8
s001-#def-active-grp
  6
CONTINUOUS
 62
    7
420
    0
370
   25
  0
POLYLINE
  5
7D
100
AcDbEntity
  8
s001-#def-active-grp
  6
CONTINUOUS
 62
    7
420
    0
370
   25
100
AcDb2dPolyline
 10
0
 20
0
 30
0
 70
    0
  0
VERTEX
  5
7E
100
AcDbEntity
  8
s001-#def-active-grp
  6
CONTINUOUS
 62
    7
420
    0
370
   25
100
AcDbVertex
100
AcDb2dVertex
 10
64.34685285883137
 20
-16.56142529366531
 30
0
  0
VERTEX
  5
7F
100
AcDbEntity
  8
s001-#def-active-grp
  6
CONTINUOUS
 62
    7
420
    0
370
   25
100
AcDbVertex
100
AcDb2dVertex
 10
64.97470730887841
 20
-16.56368371365585
 30
0
  0
VERTEX
  5
80
100
AcDbEntity
  8
s001-#def-active-grp
  6
CONTINUOUS
 62
    7
420
    0
370
   25
100
AcDbVertex
100
AcDb2dVertex
 10
65.33832086669395
 20
-16.56480219481506
 30
0
  0
SEQEND
  5
81
100
AcDbEntity
  8
s001-#def-active-grp
  6
CONTINUOUS
 62
    7
420
    0
370
   25
  0
POLYLINE
  5
82
100
AcDbEntity
  8
s001-#def-active-grp
  6
CONTINUOUS
 62
    7
420
    0
370
   25
100
AcDb2dPolyline
 10
0
 20
0
 30
0
 70
    0
  0
VERTEX
  5
83
100
AcDbEntity
  8
s001-#def-active-grp
  6
CONTINUOUS
 62
    7
420
    0
370
   25
100
AcDbVertex
100
AcDb2dVertex
 10
65.26379139768073
 20
-16.70482734559097
 30
0
  0
VERTEX
  5
84
100
AcDbEntity
  8
s001-#def-active-grp
  6
CONTINUOUS
 62
    7
420
    0
370
   25
100
AcDbVertex
100
AcDb2dVertex
 10
64.91261014687012
 20
-16.70370886443176
 30
0
  0
VERTEX
  5
85
100
AcDbEntity
  8
s001-#def-active-grp
  6
CONTINUOUS
 62
    7
420
    0
370
   25
100
AcDbVertex
100
AcDb2dVertex
 10
64.34799285130688
 20
-16.70145033715286
 30
0
  0
SEQEND
  5
86
100
AcDbEntity
  8
s001-#def-active-grp
  6
CONTINUOUS
 62
    7
420
    0
370
   25
  0
POLYLINE
  5
87
100
AcDbEntity
  8
s001-#def-active-grp
  6
CONTINUOUS
 62
    7
420
    0
370
   25
100
AcDb2dPolyline
 10
0
 20
0
 30
0
 70
    0
  0
VERTEX
  5
88
100
AcDbEntity
  8
s001-#def-active-grp
  6
CONTINUOUS
 62
    7
420
    0
370
   25
100
AcDbVertex
100
AcDb2dVertex
 10
64.68947012687704
 20
-27.78551556287327
 30
0
  0
VERTEX
  5
89
100
AcDbEntity
  8
s001-#def-active-grp
  6
CONTINUOUS
 62
    7
420
    0
370
   25
100
AcDbVertex
100
AcDb2dVertex
 10
65.37378632391474
 20
-26.63481471655884
 30
0
  0
VERTEX
  5
8A
100
AcDbEntity
  8
s001-#def-active-grp
  6
CONTINUOUS
 62
    7
420
    0
370
   25
100
AcDbVertex
100
AcDb2dVertex
 10
65.25071048105738
 20
-26.56368371365585
 30
0
  0
VERTEX
  5
8B
100
AcDbEntity
  8
s001-#def-active-grp
  6
CONTINUOUS
 62
    7
420
    0
370
   25
100
AcDbVertex
100
AcDb2dVertex
 10
64.54155114109301
 20
-27.71098609386005
 30
0
  0
SEQEND
  5
8C
100
AcDbEntity
  8
s001-#def-active-grp
  6
CONTINUOUS
 62
    7
420
    0
370
   25
  0
POLYLINE
  5
8D
100
AcDbEntity
  8
s001-#def-active-grp
  6
CONTINUOUS
 62
    7
420
    0
370
   25
100
AcDb2dPolyline
 10
0
 20
0
 30
0
 70
    0
  0
VERTEX
  5
8E
100
AcDbEntity
  8
s001-#def-active-grp
  6
CONTINUOUS
 62
    7
420
    0
370
   25
100
AcDbVertex
100
AcDb2dVertex
 10
66.06827632750057
 20
-27.77985864995041
 30
0
  0
VERTEX
  5
8F
100
AcDbEntity
  8
s001-#def-active-grp
  6
CONTINUOUS
 62
    7
420
    0
370
   25
100
AcDbVertex
100
AcDb2dVertex
 10
65.33653226460001
 20
-26.57157756207504
 30
0
  0
VERTEX
  5
90
100
AcDbEntity
  8
s001-#def-active-grp
  6
CONTINUOUS
 62
    7
420
    0
370
   25
100
AcDbVertex
100
AcDb2dVertex
 10
65.21343496407053
 20
-26.64498865721741
 30
0
  0
VERTEX
  5
91
100
AcDbEntity
  8
s001-#def-active-grp
  6
CONTINUOUS
 62
    7
420
    0
370
   25
100
AcDbVertex
100
AcDb2dVertex
 10
65.88759875858807
 20
-27.79115099130192
 30
0
  0
SEQEND
  5
92
100
AcDbEntity
  8
s001-#def-active-grp
  6
CONTINUOUS
 62
    7
420
    0
370
   25
  0
POLYLINE
  5
93
100
AcDbEntity
  8
s001-#def-active-grp
  6
CONTINUOUS
 62
    7
420
    0
370
   25
100
AcDb2dPolyline
 10
0
 20
0
 30
0
 70
    0
  0
VERTEX
  5
94
100
AcDbEntity
  8
s001-#def-active-grp
  6
CONTINUOUS
 62
    7
420
    0
370
   25
100
AcDbVertex
100
AcDb2dVertex
 10
66.56625814999126
 20
-27.73920620499172
 30
0
  0
VERTEX
  5
95
100
AcDbEntity
  8
s001-#def-active-grp
  6
CONTINUOUS
 62
    7
420
    0
370
   25
100
AcDbVertex
100
AcDb2dVertex
 10
66.56625814999126
 20
-27.37673261282959
 30
0
  0
VERTEX
  5
96
100
AcDbEntity
  8
s001-#def-active-grp
  6
CONTINUOUS
 62
    7
420
    0
370
   25
100
AcDbVertex
100
AcDb2dVertex
 10
66.56625814999126
 20
-26.65628097174682
 30
0
  0
VERTEX
  5
97
100
AcDbEntity
  8
s001-#def-active-grp
  6
CONTINUOUS
 62
    7
420
    0
370
   25
100
AcDbVertex
100
AcDb2dVertex
 10
66.42623289192699
 20
-26.65853939173736
 30
0
  0
VERTEX
  5
98
100
AcDbEntity
  8
s001-#def-active-grp
  6
CONTINUOUS
 62
    7
420
    0
370
   25
100
AcDbVertex
100
AcDb2dVertex
 10
66.42623289192699
 20
-27.31461399314918
 30
0
  0
VERTEX
  5
99
100
AcDbEntity
  8
s001-#def-active-grp
  6
CONTINUOUS
 62
    7
420
    0
370
   25
100
AcDbVertex
100
AcDb2dVertex
 10
66.42623289192699
 20
-27.66693518279114
 30
0
  0
SEQEND
  5
9A
100
AcDbEntity
  8
s001-#def-active-grp
  6
CONTINUOUS
 62
    7
420
    0
370
   25
  0
POLYLINE
  5
9B
100
AcDbEntity
  8
s001-#def-active-grp
  6
CONTINUOUS
 62
    7
420
    0
370
   25
100
AcDb2dPolyline
 10
0
 20
0
 30
0
 70
    0
  0
VERTEX
  5
9C
100
AcDbEntity
  8
s001-#def-active-grp
  6
CONTINUOUS
 62
    7
420
    0
370
   25
100
AcDbVertex
100
AcDb2dVertex
 10
72.40700290563348
 20
-16.55350988028565
 30
0
  0
VERTEX
  5
9D
100
AcDbEntity
  8
s001-#def-active-grp
  6
CONTINUOUS
 62
    7
420
    0
370
   25
100
AcDbVertex
100
AcDb2dVertex
 10
72.40586291315799
 20
-16.91600495694199
 30
0
  0
VERTEX
  5
9E
100
AcDbEntity
  8
s001-#def-active-grp
  6
CONTINUOUS
 62
    7
420
    0
370
   25
100
AcDbVertex
100
AcDb2dVertex
 10
72.40360443952326
 20
-17.63645659802475
 30
0
  0
VERTEX
  5
9F
100
AcDbEntity
  8
s001-#def-active-grp
  6
CONTINUOUS
 62
    7
420
    0
370
   25
100
AcDbVertex
100
AcDb2dVertex
 10
72.54362953665498
 20
-17.63419812439003
 30
0
  0
VERTEX
  5
A0
100
AcDbEntity
  8
s001-#def-active-grp
  6
CONTINUOUS
 62
    7
420
    0
370
   25
100
AcDbVertex
100
AcDb2dVertex
 10
72.54588795664552
 20
-16.97810206530609
 30
0
  0
VERTEX
  5
A1
100
AcDbEntity
  8
s001-#def-active-grp
  6
CONTINUOUS
 62
    7
420
    0
370
   25
100
AcDbVertex
100
AcDb2dVertex
 10
72.54702800276522
 20
-16.62578082201996
 30
0
  0
SEQEND
  5
A2
100
AcDbEntity
  8
s001-#def-active-grp
  6
CONTINUOUS
 62
    7
420
    0
370
   25
  0
POLYLINE
  5
A3
100
AcDbEntity
  8
s001-#def-active-grp
  6
CONTINUOUS
 62
    7
420
    0
370
   25
100
AcDb2dPolyline
 10
0
 20
0
 30
0
 70
    0
  0
VERTEX
  5
A4
100
AcDbEntity
  8
s001-#def-active-grp
  6
CONTINUOUS
 62
    7
420
    0
370
   25
100
AcDbVertex
100
AcDb2dVertex
 10
72.08630023958926
 20
-17.05828852770843
 30
0
  0
VERTEX
  5
A5
100
AcDbEntity
  8
s001-#def-active-grp
  6
CONTINUOUS
 62
    7
420
    0
370
   25
100
AcDbVertex
100
AcDb2dVertex
 10
72.43748149039988
 20
-17.06054694769897
 30
0
  0
VERTEX
  5
A6
100
AcDbEntity
  8
s001-#def-active-grp
  6
CONTINUOUS
 62
    7
420
    0
370
   25
100
AcDbVertex
100
AcDb2dVertex
 10
72.64074374201539
 20
-17.06166542885818
 30
0
  0
SEQEND
  5
A7
100
AcDbEntity
  8
s001-#def-active-grp
  6
CONTINUOUS
 62
    7
420
    0
370
   25
  0
POLYLINE
  5
A8
100
AcDbEntity
  8
s001-#def-active-grp
  6
CONTINUOUS
 62
    7
420
    0
370
   25
100
AcDb2dPolyline
 10
0
 20
0
 30
0
 70
    0
  0
VERTEX
  5
A9
100
AcDbEntity
  8
s001-#def-active-grp
  6
CONTINUOUS
 62
    7
420
    0
370
   25
100
AcDbVertex
100
AcDb2dVertex
 10
72.59897273543123
 20
-17.20169047234573
 30
0
  0
VERTEX
  5
AA
100
AcDbEntity
  8
s001-#def-active-grp
  6
CONTINUOUS
 62
    7
420
    0
370
   25
100
AcDbVertex
100
AcDb2dVertex
 10
72.40248595836405
 20
-17.20057199118652
 30
0
  0
VERTEX
  5
AB
100
AcDbEntity
  8
s001-#def-active-grp
  6
CONTINUOUS
 62
    7
420
    0
370
   25
100
AcDbVertex
100
AcDb2dVertex
 10
72.08741872074847
 20
-17.19831357119598
 30
0
  0
SEQEND
  5
AC
100
AcDbEntity
  8
s001-#def-active-grp
  6
CONTINUOUS
 62
    7
420
    0
370
   25
  0
POLYLINE
  5
AD
100
AcDbEntity
  8
s001-#def-active-grp
  6
CONTINUOUS
 62
    7
420
    0
370
   25
100
AcDb2dPolyline
 10
0
 20
0
 30
0
 70
    0
  0
VERTEX
  5
AE
100
AcDbEntity
  8
s001-#def-active-grp
  6
CONTINUOUS
 62
    7
420
    0
370
   25
100
AcDbVertex
100
AcDb2dVertex
 10
71.77349151584153
 20
-16.56142529366531
 30
0
  0
VERTEX
  5
AF
100
AcDbEntity
  8
s001-#def-active-grp
  6
CONTINUOUS
 62
    7
420
    0
370
   25
100
AcDbVertex
100
AcDb2dVertex
 10
72.40134596588854
 20
-16.56368371365585
 30
0
  0
VERTEX
  5
B0
100
AcDbEntity
  8
s001-#def-active-grp
  6
CONTINUOUS
 62
    7
420
    0
370
   25
100
AcDbVertex
100
AcDb2dVertex
 10
72.76495952370408
 20
-16.56480219481506
 30
0
  0
SEQEND
  5
B1
100
AcDbEntity
  8
s001-#def-active-grp
  6
CONTINUOUS
 62
    7
420
    0
370
   25
  0
POLYLINE
  5
B2
100
AcDbEntity
  8
s001-#def-active-grp
  6
CONTINUOUS
 62
    7
420
    0
370
   25
100
AcDb2dPolyline
 10
0
 20
0
 30
0
 70
    0
  0
VERTEX
  5
B3
100
AcDbEntity
  8
s001-#def-active-grp
  6
CONTINUOUS
 62
    7
420
    0
370
   25
100
AcDbVertex
100
AcDb2dVertex
 10
72.69043005469086
 20
-16.70482734559097
 30
0
  0
VERTEX
  5
B4
100
AcDbEntity
  8
s001-#def-active-grp
  6
CONTINUOUS
 62
    7
420
    0
370
   25
100
AcDbVertex
100
AcDb2dVertex
 10
72.33924880388025
 20
-16.70370886443176
 30
0
  0
VERTEX
  5
B5
100
AcDbEntity
  8
s001-#def-active-grp
  6
CONTINUOUS
 62
    7
420
    0
370
   25
100
AcDbVertex
100
AcDb2dVertex
 10
71.77463150831704
 20
-16.70145033715286
 30
0
  0
SEQEND
  5
B6
100
AcDbEntity
  8
s001-#def-active-grp
  6
CONTINUOUS
 62
    7
420
    0
370
   25
  0
POLYLINE
  5
B7
100
AcDbEntity
  8
s001-#def-active-grp
  6
CONTINUOUS
 62
    7
420
    0
370
   25
100
AcDb2dPolyline
 10
0
 20
0
 30
0
 70
    0
  0
VERTEX
  5
B8
100
AcDbEntity
  8
s001-#def-active-grp
  6
CONTINUOUS
 62
    7
420
    0
370
   25
100
AcDbVertex
100
AcDb2dVertex
 10
72.63898531630639
 20
-12.73920620499172
 30
0
  0
VERTEX
  5
B9
100
AcDbEntity
  8
s001-#def-active-grp
  6
CONTINUOUS
 62
    7
420
    0
370
   25
100
AcDbVertex
100
AcDb2dVertex
 10
72.63898531630639
 20
-12.37673261282959
 30
0
  0
VERTEX
  5
BA
100
AcDbEntity
  8
s001-#def-active-grp
  6
CONTINUOUS
 62
    7
420
    0
370
   25
100
AcDbVertex
100
AcDb2dVertex
 10
72.63898531630639
 20
-11.65628097174682
 30
0
  0
VERTEX
  5
BB
100
AcDbEntity
  8
s001-#def-active-grp
  6
CONTINUOUS
 62
    7
420
    0
370
   25
100
AcDbVertex
100
AcDb2dVertex
 10
72.49896021917468
 20
-11.65853939173736
 30
0
  0
VERTEX
  5
BC
100
AcDbEntity
  8
s001-#def-active-grp
  6
CONTINUOUS
 62
    7
420
    0
370
   25
100
AcDbVertex
100
AcDb2dVertex
 10
72.49896021917468
 20
-12.31461399314918
 30
0
  0
VERTEX
  5
BD
100
AcDbEntity
  8
s001-#def-active-grp
  6
CONTINUOUS
 62
    7
420
    0
370
   25
100
AcDbVertex
100
AcDb2dVertex
 10
72.49896021917468
 20
-12.66693518279114
 30
0
  0
SEQEND
  5
BE
100
AcDbEntity
  8
s001-#def-active-grp
  6
CONTINUOUS
 62
    7
420
    0
370
   25
  0
POLYLINE
  5
BF
100
AcDbEntity
  8
s001-#def-active-grp
  6
CONTINUOUS
 62
    7
420
    0
370
   25
100
AcDb2dPolyline
 10
0
 20
0
 30
0
 70
    0
  0
VERTEX
  5
C0
100
AcDbEntity
  8
s001-#def-active-grp
  6
CONTINUOUS
 62
    7
420
    0
370
   25
100
AcDbVertex
100
AcDb2dVertex
 10
73.24991195634013
 20
-12.50320692179718
 30
0
  0
VERTEX
  5
C1
100
AcDbEntity
  8
s001-#def-active-grp
  6
CONTINUOUS
 62
    7
420
    0
370
   25
100
AcDbVertex
100
AcDb2dVertex
 10
72.62205757334831
 20
-12.50320692179718
 30
0
  0
VERTEX
  5
C2
100
AcDbEntity
  8
s001-#def-active-grp
  6
CONTINUOUS
 62
    7
420
    0
370
   25
100
AcDbVertex
100
AcDb2dVertex
 10
72.25844401553277
 20
-12.50320692179718
 30
0
  0
SEQEND
  5
C3
100
AcDbEntity
  8
s001-#def-active-grp
  6
CONTINUOUS
 62
    7
420
    0
370
   25
  0
POLYLINE
  5
C4
100
AcDbEntity
  8
s001-#def-active-grp
  6
CONTINUOUS
 62
    7
420
    0
370
   25
100
AcDb2dPolyline
 10
0
 20
0
 30
0
 70
    0
  0
VERTEX
  5
C5
100
AcDbEntity
  8
s001-#def-active-grp
  6
CONTINUOUS
 62
    7
420
    0
370
   25
100
AcDbVertex
100
AcDb2dVertex
 10
72.33183349207047
 20
-12.36318182466545
 30
0
  0
VERTEX
  5
C6
100
AcDbEntity
  8
s001-#def-active-grp
  6
CONTINUOUS
 62
    7
420
    0
370
   25
100
AcDbVertex
100
AcDb2dVertex
 10
72.68303620055323
 20
-12.36318182466545
 30
0
  0
VERTEX
  5
C7
100
AcDbEntity
  8
s001-#def-active-grp
  6
CONTINUOUS
 62
    7
420
    0
370
   25
100
AcDbVertex
100
AcDb2dVertex
 10
73.24765353634959
 20
-12.36318182466545
 30
0
  0
SEQEND
  5
C8
100
AcDbEntity
  8
s001-#def-active-grp
  6
CONTINUOUS
 62
    7
420
    0
370
   25
  0
POLYLINE
  5
C9
100
AcDbEntity
  8
s001-#def-active-grp
  6
CONTINUOUS
 62
    7
420
    0
370
   25
100
AcDb2dPolyline
 10
0
 20
0
 30
0
 70
    0
  0
VERTEX
  5
CA
100
AcDbEntity
  8
s001-#def-active-grp
  6
CONTINUOUS
 62
    7
420
    0
370
   25
100
AcDbVertex
100
AcDb2dVertex
 10
72.60673055212766
 20
-7.739206204991721
 30
0
  0
VERTEX
  5
CB
100
AcDbEntity
  8
s001-#def-active-grp
  6
CONTINUOUS
 62
    7
420
    0
370
   25
100
AcDbVertex
100
AcDb2dVertex
 10
72.60673055212766
 20
-7.376732612829588
 30
0
  0
VERTEX
  5
CC
100
AcDbEntity
  8
s001-#def-active-grp
  6
CONTINUOUS
 62
    7
420
    0
370
   25
100
AcDbVertex
100
AcDb2dVertex
 10
72.60673055212766
 20
-6.656280971746826
 30
0
  0
VERTEX
  5
CD
100
AcDbEntity
  8
s001-#def-active-grp
  6
CONTINUOUS
 62
    7
420
    0
370
   25
100
AcDbVertex
100
AcDb2dVertex
 10
72.46670545499592
 20
-6.658539391737365
 30
0
  0
VERTEX
  5
CE
100
AcDbEntity
  8
s001-#def-active-grp
  6
CONTINUOUS
 62
    7
420
    0
370
   25
100
AcDbVertex
100
AcDb2dVertex
 10
72.46670545499592
 20
-7.314613993149184
 30
0
  0
VERTEX
  5
CF
100
AcDbEntity
  8
s001-#def-active-grp
  6
CONTINUOUS
 62
    7
420
    0
370
   25
100
AcDbVertex
100
AcDb2dVertex
 10
72.46670545499592
 20
-7.666935182791137
 30
0
  0
SEQEND
  5
D0
100
AcDbEntity
  8
s001-#def-active-grp
  6
CONTINUOUS
 62
    7
420
    0
370
   25
  0
POLYLINE
  5
D1
100
AcDbEntity
  8
s001-#def-active-grp
  6
CONTINUOUS
 62
    7
420
    0
370
   25
100
AcDb2dPolyline
 10
0
 20
0
 30
0
 70
    0
  0
VERTEX
  5
D2
100
AcDbEntity
  8
s001-#def-active-grp
  6
CONTINUOUS
 62
    7
420
    0
370
   25
100
AcDbVertex
100
AcDb2dVertex
 10
72.768428583841
 20
2.844231699723817
 30
0
  0
VERTEX
  5
D3
100
AcDbEntity
  8
s001-#def-active-grp
  6
CONTINUOUS
 62
    7
420
    0
370
   25
100
AcDbVertex
100
AcDb2dVertex
 10
72.768428583841
 20
2.187017105836489
 30
0
  0
VERTEX
  5
D4
100
AcDbEntity
  8
s001-#def-active-grp
  6
CONTINUOUS
 62
    7
420
    0
370
   25
100
AcDbVertex
100
AcDb2dVertex
 10
72.768428583841
 20
1.855022178907014
 30
0
  0
VERTEX
  5
D5
100
AcDbEntity
  8
s001-#def-active-grp
  6
CONTINUOUS
 62
    7
420
    0
370
   25
100
AcDbVertex
100
AcDb2dVertex
 10
72.768428583841
 20
1.520768724698641
 30
0
  0
SEQEND
  5
D6
100
AcDbEntity
  8
s001-#def-active-grp
  6
CONTINUOUS
 62
    7
420
    0
370
   25
  0
POLYLINE
  5
D7
100
AcDbEntity
  8
s001-#def-active-grp
  6
CONTINUOUS
 62
    7
420
    0
370
   25
100
AcDb2dPolyline
 10
0
 20
0
 30
0
 70
    0
  0
VERTEX
  5
D8
100
AcDbEntity
  8
s001-#def-active-grp
  6
CONTINUOUS
 62
    7
420
    0
370
   25
100
AcDbVertex
100
AcDb2dVertex
 10
72.6317804415032
 20
1.921636234540557
 30
0
  0
VERTEX
  5
D9
100
AcDbEntity
  8
s001-#def-active-grp
  6
CONTINUOUS
 62
    7
420
    0
370
   25
100
AcDbVertex
100
AcDb2dVertex
 10
72.6317804415032
 20
2.242338846940612
 30
0
  0
VERTEX
  5
DA
100
AcDbEntity
  8
s001-#def-active-grp
  6
CONTINUOUS
 62
    7
420
    0
370
   25
100
AcDbVertex
100
AcDb2dVertex
 10
72.6317804415032
 20
2.841973172444916
 30
0
  0
SEQEND
  5
DB
100
AcDbEntity
  8
s001-#def-active-grp
  6
CONTINUOUS
 62
    7
420
    0
370
   25
  0
POLYLINE
  5
DC
100
AcDbEntity
  8
s100-lasercut
  6
CONTINUOUS
 62
    7
420
    0
370
    9
100
AcDb2dPolyline
 10
0
 20
0
 30
0
 70
    0
  0
VERTEX
  5
DD
100
AcDbEntity
  8
s100-lasercut
  6
CONTINUOUS
 62
    7
420
    0
370
    9
100
AcDbVertex
100
AcDb2dVertex
 10
-7.948416883060997
 20
-36.151661967503
 30
0
  0
VERTEX
  5
DE
100
AcDbEntity
  8
s100-lasercut
  6
CONTINUOUS
 62
    7
420
    0
370
    9
100
AcDbVertex
100
AcDb2dVertex
 10
-5.148416883061
 20
-36.151661967503
 30
0
  0
VERTEX
  5
DF
100
AcDbEntity
  8
s100-lasercut
  6
CONTINUOUS
 62
    7
420
    0
370
    9
100
AcDbVertex
100
AcDb2dVertex
 10
-3.748416883060997
 20
-38.57653309809943
 30
0
  0
VERTEX
  5
E0
100
AcDbEntity
  8
s100-lasercut
  6
CONTINUOUS
 62
    7
420
    0
370
    9
100
AcDbVertex
100
AcDb2dVertex
 10
-5.148416883061
 20
-41.00140422869586
 30
0
  0
VERTEX
  5
E1
100
AcDbEntity
  8
s100-lasercut
  6
CONTINUOUS
 62
    7
420
    0
370
    9
100
AcDbVertex
100
AcDb2dVertex
 10
-7.948416883060997
 20
-41.00140422869586
 30
0
  0
VERTEX
  5
E2
100
AcDbEntity
  8
s100-lasercut
  6
CONTINUOUS
 62
    7
420
    0
370
    9
100
AcDbVertex
100
AcDb2dVertex
 10
-9.348416883060999
 20
-38.57653309809943
 30
0
  0
VERTEX
  5
E3
100
AcDbEntity
  8
s100-lasercut
  6
CONTINUOUS
 62
    7
420
    0
370
    9
100
AcDbVertex
100
AcDb2dVertex
 10
-7.948416883060997
 20
-36.151661967503
 30
0
  0
SEQEND
  5
E4
100
AcDbEntity
  8
s100-lasercut
  6
CONTINUOUS
 62
    7
420
    0
370
    9
  0
POLYLINE
  5
E5
100
AcDbEntity
  8
s100-lasercut
  6
CONTINUOUS
 62
    7
420
    0
370
    9
100
AcDb2dPolyline
 10
0
 20
0
 30
0
 70
    0
  0
VERTEX
  5
E6
100
AcDbEntity
  8
s100-lasercut
  6
CONTINUOUS
 62
    7
420
    0
370
    9
100
AcDbVertex
100
AcDb2dVertex
 10
-48.01151753122856
 20
-32.96655731152306
 30
0
  0
VERTEX
  5
E7
100
AcDbEntity
  8
s100-lasercut
  6
CONTINUOUS
 62
    7
420
    0
370
    9
100
AcDbVertex
100
AcDb2dVertex
 10
-49.41151753122855
 20
-35.39142844211949
 30
0
  0
VERTEX
  5
E8
100
AcDbEntity
  8
s100-lasercut
  6
CONTINUOUS
 62
    7
420
    0
370
    9
100
AcDbVertex
100
AcDb2dVertex
 10
-52.21151753122856
 20
-35.39142844211949
 30
0
  0
VERTEX
  5
E9
100
AcDbEntity
  8
s100-lasercut
  6
CONTINUOUS
 62
    7
420
    0
370
    9
100
AcDbVertex
100
AcDb2dVertex
 10
-53.61151753122856
 20
-32.96655731152306
 30
0
  0
VERTEX
  5
EA
100
AcDbEntity
  8
s100-lasercut
  6
CONTINUOUS
 62
    7
420
    0
370
    9
100
AcDbVertex
100
AcDb2dVertex
 10
-52.21151753122856
 20
-30.54168618092664
 30
0
  0
VERTEX
  5
EB
100
AcDbEntity
  8
s100-lasercut
  6
CONTINUOUS
 62
    7
420
    0
370
    9
100
AcDbVertex
100
AcDb2dVertex
 10
-49.41151753122855
 20
-30.54168618092664
 30
0
  0
VERTEX
  5
EC
100
AcDbEntity
  8
s100-lasercut
  6
CONTINUOUS
 62
    7
420
    0
370
    9
100
AcDbVertex
100
AcDb2dVertex
 10
-48.01151753122856
 20
-32.96655731152306
 30
0
  0
SEQEND
  5
ED
100
AcDbEntity
  8
s100-lasercut
  6
CONTINUOUS
 62
    7
420
    0
370
    9
  0
POLYLINE
  5
EE
100
AcDbEntity
  8
s100-lasercut
  6
CONTINUOUS
 62
    7
420
    0
370
    9
100
AcDb2dPolyline
 10
0
 20
0
 30
0
 70
    0
  0
VERTEX
  5
EF
100
AcDbEntity
  8
s100-lasercut
  6
CONTINUOUS
 62
    7
420
    0
370
    9
100
AcDbVertex
100
AcDb2dVertex
 10
-48.01151571660738
 20
3.343419984934116
 30
0
  0
VERTEX
  5
F0
100
AcDbEntity
  8
s100-lasercut
  6
CONTINUOUS
 62
    7
420
    0
370
    9
100
AcDbVertex
100
AcDb2dVertex
 10
-49.41151571660738
 20
0.9185488543376863
 30
0
  0
VERTEX
  5
F1
100
AcDbEntity
  8
s100-lasercut
  6
CONTINUOUS
 62
    7
420
    0
370
    9
100
AcDbVertex
100
AcDb2dVertex
 10
-52.21151571660738
 20
0.9185488543376863
 30
0
  0
VERTEX
  5
F2
100
AcDbEntity
  8
s100-lasercut
  6
CONTINUOUS
 62
    7
420
    0
370
    9
100
AcDbVertex
100
AcDb2dVertex
 10
-53.61151571660737
 20
3.343419984934116
 30
0
  0
VERTEX
  5
F3
100
AcDbEntity
  8
s100-lasercut
  6
CONTINUOUS
 62
    7
420
    0
370
    9
100
AcDbVertex
100
AcDb2dVertex
 10
-52.21151571660738
 20
5.768291115530541
 30
0
  0
VERTEX
  5
F4
100
AcDbEntity
  8
s100-lasercut
  6
CONTINUOUS
 62
    7
420
    0
370
    9
100
AcDbVertex
100
AcDb2dVertex
 10
-49.41151571660738
 20
5.768291115530541
 30
0
  0
VERTEX
  5
F5
100
AcDbEntity
  8
s100-lasercut
  6
CONTINUOUS
 62
    7
420
    0
370
    9
100
AcDbVertex
100
AcDb2dVertex
 10
-48.01151571660738
 20
3.343419984934116
 30
0
  0
SEQEND
  5
F6
100
AcDbEntity
  8
s100-lasercut
  6
CONTINUOUS
 62
    7
420
    0
370
    9
  0
POLYLINE
  5
F7
100
AcDbEntity
  8
s100-lasercut
  6
CONTINUOUS
 62
    7
420
    0
370
    9
100
AcDb2dPolyline
 10
0
 20
0
 30
0
 70
    0
  0
VERTEX
  5
F8
100
AcDbEntity
  8
s100-lasercut
  6
CONTINUOUS
 62
    7
420
    0
370
    9
100
AcDbVertex
100
AcDb2dVertex
 10
-3.748416883060997
 20
8.949664568988116
 30
0
  0
VERTEX
  5
F9
100
AcDbEntity
  8
s100-lasercut
  6
CONTINUOUS
 62
    7
420
    0
370
    9
100
AcDbVertex
100
AcDb2dVertex
 10
-5.148416883061
 20
6.524793438391686
 30
0
  0
VERTEX
  5
FA
100
AcDbEntity
  8
s100-lasercut
  6
CONTINUOUS
 62
    7
420
    0
370
    9
100
AcDbVertex
100
AcDb2dVertex
 10
-7.948416883060997
 20
6.524793438391686
 30
0
  0
VERTEX
  5
FB
100
AcDbEntity
  8
s100-lasercut
  6
CONTINUOUS
 62
    7
420
    0
370
    9
100
AcDbVertex
100
AcDb2dVertex
 10
-9.348416883060999
 20
8.949664568988116
 30
0
  0
VERTEX
  5
FC
100
AcDbEntity
  8
s100-lasercut
  6
CONTINUOUS
 62
    7
420
    0
370
    9
100
AcDbVertex
100
AcDb2dVertex
 10
-7.948416883060997
 20
11.37453569958454
 30
0
  0
VERTEX
  5
FD
100
AcDbEntity
  8
s100-lasercut
  6
CONTINUOUS
 62
    7
420
    0
370
    9
100
AcDbVertex
100
AcDb2dVertex
 10
-5.148416883061
 20
11.37453569958454
 30
0
  0
VERTEX
  5
FE
100
AcDbEntity
  8
s100-lasercut
  6
CONTINUOUS
 62
    7
420
    0
370
    9
100
AcDbVertex
100
AcDb2dVertex
 10
-3.748416883060997
 20
8.949664568988116
 30
0
  0
SEQEND
  5
FF
100
AcDbEntity
  8
s100-lasercut
  6
CONTINUOUS
 62
    7
420
    0
370
    9
  0
POLYLINE
  5
100
100
AcDbEntity
  8
s100-lasercut
  6
CONTINUOUS
 62
    7
420
    0
370
    9
100
AcDb2dPolyline
 10
0
 20
0
 30
0
 70
    0
  0
VERTEX
  5
101
100
AcDbEntity
  8
s100-lasercut
  6
CONTINUOUS
 62
    7
420
    0
370
    9
100
AcDbVertex
100
AcDb2dVertex
 10
-113.433316910681
 20
3.321170329262394
 30
0
  0
VERTEX
  5
102
100
AcDbEntity
  8
s100-lasercut
  6
CONTINUOUS
 62
    7
420
    0
370
    9
100
AcDbVertex
100
AcDb2dVertex
 10
-70.43331691068094
 20
3.321170329262394
 30
0
  0
VERTEX
  5
103
100
AcDbEntity
  8
s100-lasercut
  6
CONTINUOUS
 62
    7
420
    0
370
    9
100
AcDbVertex
100
AcDb2dVertex
 10
-66.17021807713718
 20
-0.9419285042813765
 30
0
  0
VERTEX
  5
104
100
AcDbEntity
  8
s100-lasercut
  6
CONTINUOUS
 62
    7
420
    0
370
    9
100
AcDbVertex
100
AcDb2dVertex
 10
-66.17021807713718
 20
-31.94192850428138
 30
0
  0
VERTEX
  5
105
100
AcDbEntity
  8
s100-lasercut
  6
CONTINUOUS
 62
    7
420
    0
370
    9
100
AcDbVertex
100
AcDb2dVertex
 10
-70.43331691068094
 20
-36.20502733782515
 30
0
  0
VERTEX
  5
106
100
AcDbEntity
  8
s100-lasercut
  6
CONTINUOUS
 62
    7
420
    0
370
    9
100
AcDbVertex
100
AcDb2dVertex
 10
-113.433316910681
 20
-36.20502733782515
 30
0
  0
VERTEX
  5
107
100
AcDbEntity
  8
s100-lasercut
  6
CONTINUOUS
 62
    7
420
    0
370
    9
100
AcDbVertex
100
AcDb2dVertex
 10
-122.6964157442247
 20
-26.94192850428138
 30
0
  0
VERTEX
  5
108
100
AcDbEntity
  8
s100-lasercut
  6
CONTINUOUS
 62
    7
420
    0
370
    9
100
AcDbVertex
100
AcDb2dVertex
 10
-122.6964157442247
 20
-5.941928504281378
 30
0
  0
VERTEX
  5
109
100
AcDbEntity
  8
s100-lasercut
  6
CONTINUOUS
 62
    7
420
    0
370
    9
100
AcDbVertex
100
AcDb2dVertex
 10
-113.433316910681
 20
3.321170329262394
 30
0
  0
SEQEND
  5
10A
100
AcDbEntity
  8
s100-lasercut
  6
CONTINUOUS
 62
    7
420
    0
370
    9
  0
POLYLINE
  5
10B
100
AcDbEntity
  8
s001-#def-active-grp
  6
CONTINUOUS
 62
    7
420
    0
370
   25
100
AcDb2dPolyline
 10
0
 20
0
 30
0
 70
    0
  0
VERTEX
  5
10C
100
AcDbEntity
  8
s001-#def-active-grp
  6
CONTINUOUS
 62
    7
420
    0
370
   25
100
AcDbVertex
100
AcDb2dVertex
 10
64.82668873659509
 20
1.704823194760895
 30
0
  0
VERTEX
  5
10D
100
AcDbEntity
  8
s001-#def-active-grp
  6
CONTINUOUS
 62
    7
420
    0
370
   25
100
AcDbVertex
100
AcDb2dVertex
 10
65.58779284945865
 20
1.704823194760895
 30
0
  0
VERTEX
  5
10E
100
AcDbEntity
  8
s001-#def-active-grp
  6
CONTINUOUS
 62
    7
420
    0
370
   25
100
AcDbVertex
100
AcDb2dVertex
 10
65.58779284945865
 20
2.425274835843659
 30
0
  0
VERTEX
  5
10F
100
AcDbEntity
  8
s001-#def-active-grp
  6
CONTINUOUS
 62
    7
420
    0
370
   25
100
AcDbVertex
100
AcDb2dVertex
 10
64.82668873659509
 20
2.425274835843659
 30
0
  0
VERTEX
  5
110
100
AcDbEntity
  8
s001-#def-active-grp
  6
CONTINUOUS
 62
    7
420
    0
370
   25
100
AcDbVertex
100
AcDb2dVertex
 10
64.82668873659509
 20
1.704823194760895
 30
0
  0
SEQEND
  5
111
100
AcDbEntity
  8
s001-#def-active-grp
  6
CONTINUOUS
 62
    7
420
    0
370
   25
  0
POLYLINE
  5
112
100
AcDbEntity
  8
s100-lasercut
  6
CONTINUOUS
 62
    7
420
    0
370
    9
100
AcDb2dPolyline
 10
0
 20
0
 30
0
 70
    0
  0
VERTEX
  5
113
100
AcDbEntity
  8
s100-lasercut
  6
CONTINUOUS
 62
    7
420
    0
370
    9
100
AcDbVertex
100
AcDb2dVertex
 10
74.55861483583109
 20
-32.34536962865256
 30
0
  0
VERTEX
  5
114
100
AcDbEntity
  8
s100-lasercut
  6
CONTINUOUS
 62
    7
420
    0
370
    9
100
AcDbVertex
100
AcDb2dVertex
 10
68.71929419831125
 20
-32.34536962865256
 30
0
  0
VERTEX
  5
115
100
AcDbEntity
  8
s100-lasercut
  6
CONTINUOUS
 62
    7
420
    0
370
    9
100
AcDbVertex
100
AcDb2dVertex
 10
67.71929419831125
 20
-31.34536962865256
 30
0
  0
VERTEX
  5
116
100
AcDbEntity
  8
s100-lasercut
  6
CONTINUOUS
 62
    7
420
    0
370
    9
100
AcDbVertex
100
AcDb2dVertex
 10
67.71929419831125
 20
-20.96436064742155
 30
0
  0
VERTEX
  5
117
100
AcDbEntity
  8
s100-lasercut
  6
CONTINUOUS
 62
    7
420
    0
370
    9
100
AcDbVertex
100
AcDb2dVertex
 10
66.71929419831125
 20
-19.84381745892309
 30
0
  0
VERTEX
  5
118
100
AcDbEntity
  8
s100-lasercut
  6
CONTINUOUS
 62
    7
420
    0
370
    9
100
AcDbVertex
100
AcDb2dVertex
 10
66.71929419831125
 20
0.2418370115943915
 30
0
  0
VERTEX
  5
119
100
AcDbEntity
  8
s100-lasercut
  6
CONTINUOUS
 62
    7
420
    0
370
    9
100
AcDbVertex
100
AcDb2dVertex
 10
67.71929419831125
 20
1.241837011594392
 30
0
  0
VERTEX
  5
11A
100
AcDbEntity
  8
s100-lasercut
  6
CONTINUOUS
 62
    7
420
    0
370
    9
100
AcDbVertex
100
AcDb2dVertex
 10
69.71929419831125
 20
1.241837011594392
 30
0
  0
VERTEX
  5
11B
100
AcDbEntity
  8
s100-lasercut
  6
CONTINUOUS
 62
    7
420
    0
370
    9
100
AcDbVertex
100
AcDb2dVertex
 10
70.71929419831125
 20
0.2418370115943915
 30
0
  0
VERTEX
  5
11C
100
AcDbEntity
  8
s100-lasercut
  6
CONTINUOUS
 62
    7
420
    0
370
    9
100
AcDbVertex
100
AcDb2dVertex
 10
70.71929419831125
 20
-18.75816298840561
 30
0
  0
VERTEX
  5
11D
100
AcDbEntity
  8
s100-lasercut
  6
CONTINUOUS
 62
    7
420
    0
370
    9
100
AcDbVertex
100
AcDb2dVertex
 10
71.71929419831125
 20
-19.75816298840561
 30
0
  0
VERTEX
  5
11E
100
AcDbEntity
  8
s100-lasercut
  6
CONTINUOUS
 62
    7
420
    0
370
    9
100
AcDbVertex
100
AcDb2dVertex
 10
74.55861483583109
 20
-19.75816298840561
 30
0
  0
VERTEX
  5
11F
100
AcDbEntity
  8
s100-lasercut
  6
CONTINUOUS
 62
    7
420
    0
370
    9
100
AcDbVertex
100
AcDb2dVertex
 10
75.55861483583109
 20
-20.80186787603127
 30
0
  0
VERTEX
  5
120
100
AcDbEntity
  8
s100-lasercut
  6
CONTINUOUS
 62
    7
420
    0
370
    9
100
AcDbVertex
100
AcDb2dVertex
 10
75.55861483583109
 20
-31.34536962865256
 30
0
  0
VERTEX
  5
121
100
AcDbEntity
  8
s100-lasercut
  6
CONTINUOUS
 62
    7
420
    0
370
    9
100
AcDbVertex
100
AcDb2dVertex
 10
74.55861483583109
 20
-32.34536962865256
 30
0
  0
SEQEND
  5
122
100
AcDbEntity
  8
s100-lasercut
  6
CONTINUOUS
 62
    7
420
    0
370
    9
  0
POLYLINE
  5
123
100
AcDbEntity
  8
s001-#def-active-grp
  6
CONTINUOUS
 62
    7
420
    0
370
   25
100
AcDb2dPolyline
 10
0
 20
0
 30
0
 70
    0
  0
VERTEX
  5
124
100
AcDbEntity
  8
s001-#def-active-grp
  6
CONTINUOUS
 62
    7
420
    0
370
   25
100
AcDbVertex
100
AcDb2dVertex
 10
64.68554515830417
 20
1.562539650816536
 30
0
  0
VERTEX
  5
125
100
AcDbEntity
  8
s001-#def-active-grp
  6
CONTINUOUS
 62
    7
420
    0
370
   25
100
AcDbVertex
100
AcDb2dVertex
 10
64.68554515830417
 20
2.565299986619568
 30
0
  0
VERTEX
  5
126
100
AcDbEntity
  8
s001-#def-active-grp
  6
CONTINUOUS
 62
    7
420
    0
370
   25
100
AcDbVertex
100
AcDb2dVertex
 10
65.73573330632587
 20
2.565299986619568
 30
0
  0
VERTEX
  5
127
100
AcDbEntity
  8
s001-#def-active-grp
  6
CONTINUOUS
 62
    7
420
    0
370
   25
100
AcDbVertex
100
AcDb2dVertex
 10
65.73573330632587
 20
1.562539650816536
 30
0
  0
VERTEX
  5
128
100
AcDbEntity
  8
s001-#def-active-grp
  6
CONTINUOUS
 62
    7
420
    0
370
   25
100
AcDbVertex
100
AcDb2dVertex
 10
64.68554515830417
 20
1.562539650816536
 30
0
  0
SEQEND
  5
129
100
AcDbEntity
  8
s001-#def-active-grp
  6
CONTINUOUS
 62
    7
420
    0
370
   25
  0
LINE
  5
12A
100
AcDbEntity
  8
s100-lasercut
  6
CONTINUOUS
 62
    7
420
    0
370
    9
100
AcDbLine
 10
-54.81151571660477
 20
3.343424552789852
 11
-54.81151571660477
 21
-32.97036742792996
  0
LINE
  5
12B
100
AcDbEntity
  8
s100-lasercut
  6
CONTINUOUS
 62
    7
420
    0
370
    9
100
AcDbLine
 10
5.714681950482777
 20
-30.31343426455566
 11
5.714681950482777
 21
0.68656573544434
  0
LINE
  5
12C
100
AcDbEntity
  8
s100-lasercut
  6
CONTINUOUS
 62
    7
420
    0
370
    9
100
AcDbLine
 10
-39.54841688306099
 20
11.94966456898812
 11
-15.548416883061
 21
11.94966456898812
  0
LINE
  5
12D
100
AcDbEntity
  8
s100-lasercut
  6
CONTINUOUS
 62
    7
420
    0
370
    9
100
AcDbLine
 10
-15.548416883061
 20
7.949664568988116
 11
-39.54841688306099
 21
7.949664568988116
  0
LINE
  5
12E
100
AcDbEntity
  8
s100-lasercut
  6
CONTINUOUS
 62
    7
420
    0
370
    9
100
AcDbLine
 10
-39.54841688306099
 20
-37.57653309809943
 11
-15.548416883061
 21
-37.57653309809943
  0
LINE
  5
12F
100
AcDbEntity
  8
s100-lasercut
  6
CONTINUOUS
 62
    7
420
    0
370
    9
100
AcDbLine
 10
-15.548416883061
 20
-41.57653309809943
 11
-39.54841688306099
 21
-41.57653309809943
  0
LINE
  5
130
100
AcDbEntity
  8
s100-lasercut
  6
CONTINUOUS
 62
    7
420
    0
370
    9
100
AcDbLine
 10
-124.6964157442247
 20
2.716598274101546
 11
-124.6964157442247
 21
-33.95573354814102
  0
LINE
  5
131
100
AcDbEntity
  8
s100-lasercut
  6
CONTINUOUS
 62
    7
420
    0
370
    9
100
AcDbLine
 10
-122.2497090422396
 20
-38.25509702195536
 11
-84.86533981261135
 21
-38.25509702195536
  0
LINE
  5
132
100
AcDbEntity
  8
s100-lasercut
  6
CONTINUOUS
 62
    7
420
    0
370
    9
100
AcDbLine
 10
-64.17021807713718
 20
-31.94192850428138
 11
-64.17021807713718
 21
-0.9419285042813765
  0
LINE
  5
133
100
AcDbEntity
  8
s100-lasercut
  6
CONTINUOUS
 62
    7
420
    0
370
    9
100
AcDbLine
 10
-84.86533981261135
 20
5.37548373449744
 11
-121.9996622597286
 21
5.37548373449744
  0
LINE
  5
134
100
AcDbEntity
  8
s100-lasercut
  6
CONTINUOUS
 62
    7
420
    0
370
    9
100
AcDbLine
 10
17.19309653122369
 20
3.627455751450956
 11
17.19309653122369
 21
1.296663744780204
  0
LINE
  5
135
100
AcDbEntity
  8
s100-lasercut
  6
CONTINUOUS
 62
    7
420
    0
370
    9
100
AcDbLine
 10
19.31992933869437
 20
-37.03283861821483
 11
56.86589611782572
 21
-37.03283861821483
  0
LINE
  5
136
100
AcDbEntity
  8
s100-lasercut
  6
CONTINUOUS
 62
    7
420
    0
370
    9
100
AcDbLine
 10
77.71929419831125
 20
-31.02126182194938
 11
77.71929419831125
 21
-0.02126182194938586
  0
LINE
  5
137
100
AcDbEntity
  8
s100-lasercut
  6
CONTINUOUS
 62
    7
420
    0
370
    9
100
AcDbLine
 10
56.86589611782572
 20
6.308591140923316
 11
19.92220509362073
 21
6.308591140923316
  0
LINE
  5
138
100
AcDbEntity
  8
s001-#def-active-grp
  6
CONTINUOUS
 62
    7
420
    0
370
   25
100
AcDbLine
 10
65.99883419267076
 20
1.219252318833089
 11
65.61263600579639
 21
1.603192095775224
  0
LINE
  5
139
100
AcDbEntity
  8
s001-#def-active-grp
  6
CONTINUOUS
 62
    7
420
    0
370
   25
100
AcDbLine
 10
65.6871654748096
 20
1.718374036569216
 11
66.10272387257953
 21
1.30281567903242
  0
LINE
  5
13A
100
AcDbEntity
  8
s001-#def-active-grp
  6
CONTINUOUS
 62
    7
420
    0
370
   25
100
AcDbLine
 10
64.71602374307054
 20
2.42753336312256
 11
64.32982548914094
 21
2.812613068837738
  0
LINE
  5
13B
100
AcDbEntity
  8
s001-#def-active-grp
  6
CONTINUOUS
 62
    7
420
    0
370
   25
100
AcDbLine
 10
64.44274894288915
 20
2.897294913549043
 11
64.82557025543588
 21
2.515613673944092
  0
LINE
  5
13C
100
AcDbEntity
  8
s001-#def-active-grp
  6
CONTINUOUS
 62
    7
420
    0
370
   25
100
AcDbLine
 10
73.41998629162757
 20
3.362539516706086
 11
73.41998629162757
 21
3.236065422315217
  0
ARC
  5
13D
100
AcDbEntity
  8
s100-lasercut
  6
CONTINUOUS
 62
    7
420
    0
370
    9
100
AcDbCircle
 10
-39.54841688306099
 20
8.958678037331566
 40
5.990986531656549
100
AcDbArc
 50
90
 51
180
  0
SPLINE
  5
13E
100
AcDbEntity
  8
s100-lasercut
  6
CONTINUOUS
 62
    7
420
    0
370
    9
100
AcDbSpline
210
0
220
0
230
0
 70
    8
 71
    3
 72
    8
 73
    4
 74
    0
 42
1e-07
 43
1e-07
 40
0
 40
0
 40
0
 40
0
 40
1
 40
1
 40
1
 40
1
 10
-45.53940341471754
 20
8.958678037331566
 30
0
 10
-45.82243216855918
 20
7.643825938629721
 30
0
 10
-48.48487947251084
 20
7.343407100950518
 30
0
 10
-50.82166814010003
 20
7.343407100950518
 30
0
  0
ARC
  5
13F
100
AcDbEntity
  8
s100-lasercut
  6
CONTINUOUS
 62
    7
420
    0
370
    9
100
AcDbCircle
 10
-50.81151571660739
 20
3.343419984934117
 40
3.999999999999998
100
AcDbArc
 50
90.14542291062503
 51
179.9999345702863
  0
ARC
  5
140
100
AcDbEntity
  8
s100-lasercut
  6
CONTINUOUS
 62
    7
420
    0
370
    9
100
AcDbCircle
 10
-50.81151753122856
 20
-32.96655731152305
 40
4.000000000000004
100
AcDbArc
 50
-179.9454240943548
 51
-90.56151139200593
  0
SPLINE
  5
141
100
AcDbEntity
  8
s100-lasercut
  6
CONTINUOUS
 62
    7
420
    0
370
    9
100
AcDbSpline
210
0
220
0
230
0
 70
    8
 71
    3
 72
    8
 73
    4
 74
    0
 42
1e-07
 43
1e-07
 40
0
 40
0
 40
0
 40
0
 40
1
 40
1
 40
1
 40
1
 10
-50.85071779403933
 20
-36.96636522433532
 30
0
 10
-48.48487947251084
 20
-36.97027563006183
 30
0
 10
-45.82243216855918
 20
-37.27069446774104
 30
0
 10
-45.54187066287612
 20
-38.85673265059684
 30
0
  0
ARC
  5
142
100
AcDbEntity
  8
s100-lasercut
  6
CONTINUOUS
 62
    7
420
    0
370
    9
100
AcDbCircle
 10
-39.54841688306099
 20
-38.57653309809944
 40
5.999999999999998
100
AcDbArc
 50
-177.3233178464318
 51
-90
  0
ARC
  5
143
100
AcDbEntity
  8
s100-lasercut
  6
CONTINUOUS
 62
    7
420
    0
370
    9
100
AcDbCircle
 10
-6.548416883060998
 20
-38.57653309809943
 40
6
100
AcDbArc
 50
-90
 51
0
  0
SPLINE
  5
144
100
AcDbEntity
  8
s100-lasercut
  6
CONTINUOUS
 62
    7
420
    0
370
    9
100
AcDbSpline
210
0
220
0
230
0
 70
    8
 71
    3
 72
    8
 73
    4
 74
    0
 42
1e-07
 43
1e-07
 40
0
 40
0
 40
0
 40
0
 40
1
 40
1
 40
1
 40
1
 10
-0.5484168830609981
 20
-38.57653309809943
 30
0
 10
-0.08531804951722322
 20
-35.87653309809943
 30
0
 10
4.914681950482777
 20
-35.07653309809943
 30
0
 10
5.714681950482777
 20
-30.31343426455566
 30
0
  0
SPLINE
  5
145
100
AcDbEntity
  8
s100-lasercut
  6
CONTINUOUS
 62
    7
420
    0
370
    9
100
AcDbSpline
210
0
220
0
230
0
 70
    8
 71
    3
 72
    8
 73
    4
 74
    0
 42
1e-07
 43
1e-07
 40
0
 40
0
 40
0
 40
0
 40
1
 40
1
 40
1
 40
1
 10
5.714681950482777
 20
0.68656573544434
 30
0
 10
4.914681950482777
 20
5.449664568988116
 30
0
 10
-0.08531804951722322
 20
6.249664568988113
 30
0
 10
-0.5484168830609981
 20
8.949664568988116
 30
0
  0
ARC
  5
146
100
AcDbEntity
  8
s100-lasercut
  6
CONTINUOUS
 62
    7
420
    0
370
    9
100
AcDbCircle
 10
-6.548416883061
 20
8.949664568988116
 40
6.000000000000002
100
AcDbArc
 50
0
 51
89.99999999999999
  0
ARC
  5
147
100
AcDbEntity
  8
s100-lasercut
  6
CONTINUOUS
 62
    7
420
    0
370
    9
100
AcDbCircle
 10
-15.548416883061
 20
9.949664568988117
 40
1.999999999999998
100
AcDbArc
 50
-5.088887490341627e-14
 51
90
  0
ARC
  5
148
100
AcDbEntity
  8
s100-lasercut
  6
CONTINUOUS
 62
    7
420
    0
370
    9
100
AcDbCircle
 10
-15.548416883061
 20
9.949664568988114
 40
2
100
AcDbArc
 50
-90
 51
5.088887490341627e-14
  0
ARC
  5
149
100
AcDbEntity
  8
s100-lasercut
  6
CONTINUOUS
 62
    7
420
    0
370
    9
100
AcDbCircle
 10
-39.54841688306099
 20
9.949664568988116
 40
2
100
AcDbArc
 50
180
 51
-90
  0
ARC
  5
14A
100
AcDbEntity
  8
s100-lasercut
  6
CONTINUOUS
 62
    7
420
    0
370
    9
100
AcDbCircle
 10
-39.54841688306099
 20
9.949664568988116
 40
2
100
AcDbArc
 50
90
 51
180
  0
ARC
  5
14B
100
AcDbEntity
  8
s100-lasercut
  6
CONTINUOUS
 62
    7
420
    0
370
    9
100
AcDbCircle
 10
-39.54841688306099
 20
-39.57653309809943
 40
2
100
AcDbArc
 50
180
 51
-90
  0
ARC
  5
14C
100
AcDbEntity
  8
s100-lasercut
  6
CONTINUOUS
 62
    7
420
    0
370
    9
100
AcDbCircle
 10
-39.54841688306099
 20
-39.57653309809943
 40
2
100
AcDbArc
 50
90
 51
180
  0
ARC
  5
14D
100
AcDbEntity
  8
s100-lasercut
  6
CONTINUOUS
 62
    7
420
    0
370
    9
100
AcDbCircle
 10
-15.548416883061
 20
-39.57653309809943
 40
2
100
AcDbArc
 50
0
 51
90
  0
ARC
  5
14E
100
AcDbEntity
  8
s100-lasercut
  6
CONTINUOUS
 62
    7
420
    0
370
    9
100
AcDbCircle
 10
-15.548416883061
 20
-39.57653309809943
 40
2
100
AcDbArc
 50
-90
 51
0
  0
ARC
  5
14F
100
AcDbEntity
  8
s100-lasercut
  6
CONTINUOUS
 62
    7
420
    0
370
    9
100
AcDbCircle
 10
-120.8742854252877
 20
1.537056064148128
 40
3.999999999999957
100
AcDbArc
 50
106.3404476651988
 51
162.8493252730116
  0
ARC
  5
150
100
AcDbEntity
  8
s100-lasercut
  6
CONTINUOUS
 62
    7
420
    0
370
    9
100
AcDbCircle
 10
-120.7408927641501
 20
-34.55057634594719
 40
3.999999999999976
100
AcDbArc
 50
171.4477828990878
 51
-112.160603458398
  0
SPLINE
  5
151
100
AcDbEntity
  8
s100-lasercut
  6
CONTINUOUS
 62
    7
420
    0
370
    9
100
AcDbSpline
210
0
220
0
230
0
 70
    8
 71
    3
 72
    8
 73
    4
 74
    0
 42
1e-07
 43
1e-07
 40
0
 40
0
 40
0
 40
0
 40
1
 40
1
 40
1
 40
1
 10
-84.86533981261135
 20
-38.25509702195536
 30
0
 10
-83.63630268574869
 20
-38.50092263811863
 30
0
 10
-82.81849396267026
 20
-39.21740392308963
 30
0
 10
-82.43331691068094
 20
-40.20502733782515
 30
0
  0
ARC
  5
152
100
AcDbEntity
  8
s100-lasercut
  6
CONTINUOUS
 62
    7
420
    0
370
    9
100
AcDbCircle
 10
-76.43331691068096
 20
-40.20502733782515
 40
5.999999999999986
100
AcDbArc
 50
180
 51
-89.99999999999987
  0
ARC
  5
153
100
AcDbEntity
  8
s100-lasercut
  6
CONTINUOUS
 62
    7
420
    0
370
    9
100
AcDbCircle
 10
-76.43331691068093
 20
-40.20502733782515
 40
6
100
AcDbArc
 50
-90.00000000000014
 51
0
  0
SPLINE
  5
154
100
AcDbEntity
  8
s100-lasercut
  6
CONTINUOUS
 62
    7
420
    0
370
    9
100
AcDbSpline
210
0
220
0
230
0
 70
    8
 71
    3
 72
    8
 73
    4
 74
    0
 42
1e-07
 43
1e-07
 40
0
 40
0
 40
0
 40
0
 40
1
 40
1
 40
1
 40
1
 10
-70.43331691068094
 20
-40.20502733782515
 30
0
 10
-69.97021807713718
 20
-37.50502733782515
 30
0
 10
-64.97021807713718
 20
-36.70502733782515
 30
0
 10
-64.17021807713718
 20
-31.94192850428138
 30
0
  0
SPLINE
  5
155
100
AcDbEntity
  8
s100-lasercut
  6
CONTINUOUS
 62
    7
420
    0
370
    9
100
AcDbSpline
210
0
220
0
230
0
 70
    8
 71
    3
 72
    8
 73
    4
 74
    0
 42
1e-07
 43
1e-07
 40
0
 40
0
 40
0
 40
0
 40
1
 40
1
 40
1
 40
1
 10
-64.17021807713718
 20
-0.9419285042813765
 30
0
 10
-64.97021807713718
 20
3.821170329262394
 30
0
 10
-69.97021807713718
 20
4.621170329262394
 30
0
 10
-70.43331691068094
 20
7.321170329262394
 30
0
  0
ARC
  5
156
100
AcDbEntity
  8
s100-lasercut
  6
CONTINUOUS
 62
    7
420
    0
370
    9
100
AcDbCircle
 10
-76.43331691068094
 20
7.321170329262394
 40
6
100
AcDbArc
 50
0
 51
90
  0
ARC
  5
157
100
AcDbEntity
  8
s100-lasercut
  6
CONTINUOUS
 62
    7
420
    0
370
    9
100
AcDbCircle
 10
-76.43331691068094
 20
7.321170329262394
 40
6
100
AcDbArc
 50
90
 51
180
  0
SPLINE
  5
158
100
AcDbEntity
  8
s100-lasercut
  6
CONTINUOUS
 62
    7
420
    0
370
    9
100
AcDbSpline
210
0
220
0
230
0
 70
    8
 71
    3
 72
    8
 73
    4
 74
    0
 42
1e-07
 43
1e-07
 40
0
 40
0
 40
0
 40
0
 40
1
 40
1
 40
1
 40
1
 10
-82.43331691068094
 20
7.321170329262394
 30
0
 10
-82.81849396267026
 20
6.333546914526877
 30
0
 10
-83.63630268574869
 20
5.617065629555874
 30
0
 10
-84.86533981261135
 20
5.37548373449744
 30
0
  0
ARC
  5
159
100
AcDbEntity
  8
s100-lasercut
  6
CONTINUOUS
 62
    7
420
    0
370
    9
100
AcDbCircle
 10
-76.43331691068094
 20
-40.20502733782515
 40
1.100000000000009
100
AcDbArc
 50
-90
 51
0
  0
ARC
  5
15A
100
AcDbEntity
  8
s100-lasercut
  6
CONTINUOUS
 62
    7
420
    0
370
    9
100
AcDbCircle
 10
-76.43331691068094
 20
-40.20502733782515
 40
1.100000000000001
100
AcDbArc
 50
180
 51
-90
  0
ARC
  5
15B
100
AcDbEntity
  8
s100-lasercut
  6
CONTINUOUS
 62
    7
420
    0
370
    9
100
AcDbCircle
 10
-76.43331691068094
 20
-40.20502733782515
 40
1.100000000000009
100
AcDbArc
 50
90
 51
180
  0
ARC
  5
15C
100
AcDbEntity
  8
s100-lasercut
  6
CONTINUOUS
 62
    7
420
    0
370
    9
100
AcDbCircle
 10
-76.43331691068094
 20
-40.20502733782515
 40
1.100000000000001
100
AcDbArc
 50
0
 51
90
  0
ARC
  5
15D
100
AcDbEntity
  8
s100-lasercut
  6
CONTINUOUS
 62
    7
420
    0
370
    9
100
AcDbCircle
 10
-120.7408927641501
 20
-34.55057634594718
 40
1.099999999999994
100
AcDbArc
 50
-90
 51
7.402018167769678e-13
  0
ARC
  5
15E
100
AcDbEntity
  8
s100-lasercut
  6
CONTINUOUS
 62
    7
420
    0
370
    9
100
AcDbCircle
 10
-120.7408927641501
 20
-34.55057634594718
 40
1.09999999999998
100
AcDbArc
 50
179.9999999999993
 51
-90
  0
ARC
  5
15F
100
AcDbEntity
  8
s100-lasercut
  6
CONTINUOUS
 62
    7
420
    0
370
    9
100
AcDbCircle
 10
-120.7408927641501
 20
-34.55057634594715
 40
1.099999999999994
100
AcDbArc
 50
90
 51
-179.9999999999993
  0
ARC
  5
160
100
AcDbEntity
  8
s100-lasercut
  6
CONTINUOUS
 62
    7
420
    0
370
    9
100
AcDbCircle
 10
-120.7408927641501
 20
-34.55057634594715
 40
1.099999999999994
100
AcDbArc
 50
-7.402018167769678e-13
 51
90
  0
ARC
  5
161
100
AcDbEntity
  8
s100-lasercut
  6
CONTINUOUS
 62
    7
420
    0
370
    9
100
AcDbCircle
 10
-120.8742854252876
 20
1.537056064148089
 40
1.099999999999994
100
AcDbArc
 50
-90
 51
0
  0
ARC
  5
162
100
AcDbEntity
  8
s100-lasercut
  6
CONTINUOUS
 62
    7
420
    0
370
    9
100
AcDbCircle
 10
-120.8742854252876
 20
1.537056064148089
 40
1.1
100
AcDbArc
 50
180
 51
-90
  0
ARC
  5
163
100
AcDbEntity
  8
s100-lasercut
  6
CONTINUOUS
 62
    7
420
    0
370
    9
100
AcDbCircle
 10
-120.8742854252876
 20
1.537056064148089
 40
1.099999999999994
100
AcDbArc
 50
90
 51
180
  0
ARC
  5
164
100
AcDbEntity
  8
s100-lasercut
  6
CONTINUOUS
 62
    7
420
    0
370
    9
100
AcDbCircle
 10
-120.8742854252876
 20
1.537056064148089
 40
1.100000000000001
100
AcDbArc
 50
0
 51
90
  0
ARC
  5
165
100
AcDbEntity
  8
s100-lasercut
  6
CONTINUOUS
 62
    7
420
    0
370
    9
100
AcDbCircle
 10
-76.43331691068094
 20
7.321170329262394
 40
1.100000000000009
100
AcDbArc
 50
-90
 51
0
  0
ARC
  5
166
100
AcDbEntity
  8
s100-lasercut
  6
CONTINUOUS
 62
    7
420
    0
370
    9
100
AcDbCircle
 10
-76.43331691068094
 20
7.321170329262394
 40
1.100000000000001
100
AcDbArc
 50
180
 51
-90
  0
ARC
  5
167
100
AcDbEntity
  8
s100-lasercut
  6
CONTINUOUS
 62
    7
420
    0
370
    9
100
AcDbCircle
 10
-76.43331691068094
 20
7.321170329262394
 40
1.100000000000009
100
AcDbArc
 50
90
 51
180
  0
ARC
  5
168
100
AcDbEntity
  8
s100-lasercut
  6
CONTINUOUS
 62
    7
420
    0
370
    9
100
AcDbCircle
 10
-76.43331691068094
 20
7.321170329262394
 40
1.100000000000001
100
AcDbArc
 50
0
 51
90
  0
SPLINE
  5
169
100
AcDbEntity
  8
s001-#def-active-grp
  6
CONTINUOUS
 62
    7
420
    0
370
   25
100
AcDbSpline
210
0
220
0
230
0
 70
    8
 71
    2
 72
    6
 73
    3
 74
    0
 42
1e-07
 43
1e-07
 40
0
 40
0
 40
0
 40
1
 40
1
 40
1
 10
65.19595923415559
 20
2.223152683992005
 30
0
 10
65.25919628135102
 20
2.223152683992005
 30
0
 10
65.30436575404542
 20
2.177983211297608
 30
0
  0
SPLINE
  5
16A
100
AcDbEntity
  8
s001-#def-active-grp
  6
CONTINUOUS
 62
    7
420
    0
370
   25
100
AcDbSpline
210
0
220
0
230
0
 70
    8
 71
    2
 72
    6
 73
    3
 74
    0
 42
1e-07
 43
1e-07
 40
0
 40
0
 40
0
 40
1
 40
1
 40
1
 10
65.30436575404542
 20
2.177983211297608
 30
0
 10
65.34953511945147
 20
2.132813845891572
 30
0
 10
65.34953511945147
 20
2.067318271417236
 30
0
  0
SPLINE
  5
16B
100
AcDbEntity
  8
s001-#def-active-grp
  6
CONTINUOUS
 62
    7
420
    0
370
   25
100
AcDbSpline
210
0
220
0
230
0
 70
    8
 71
    2
 72
    6
 73
    3
 74
    0
 42
1e-07
 43
1e-07
 40
0
 40
0
 40
0
 40
1
 40
1
 40
1
 10
65.34953511945147
 20
2.067318271417236
 30
0
 10
65.34953511945147
 20
1.996165703553771
 30
0
 10
65.30436575404542
 20
1.951555578727341
 30
0
  0
SPLINE
  5
16C
100
AcDbEntity
  8
s001-#def-active-grp
  6
CONTINUOUS
 62
    7
420
    0
370
   25
100
AcDbSpline
210
0
220
0
230
0
 70
    8
 71
    2
 72
    6
 73
    3
 74
    0
 42
1e-07
 43
1e-07
 40
0
 40
0
 40
0
 40
1
 40
1
 40
1
 10
65.30436575404542
 20
1.951555578727341
 30
0
 10
65.25919628135102
 20
1.906966965217208
 30
0
 10
65.19256076804538
 20
1.906966965217208
 30
0
  0
SPLINE
  5
16D
100
AcDbEntity
  8
s001-#def-active-grp
  6
CONTINUOUS
 62
    7
420
    0
370
   25
100
AcDbSpline
210
0
220
0
230
0
 70
    8
 71
    2
 72
    6
 73
    3
 74
    0
 42
1e-07
 43
1e-07
 40
0
 40
0
 40
0
 40
1
 40
1
 40
1
 10
65.19256076804538
 20
1.906966965217208
 30
0
 10
65.12706508628267
 20
1.906966965217208
 30
0
 10
65.08189572087664
 20
1.949877856988525
 30
0
  0
SPLINE
  5
16E
100
AcDbEntity
  8
s001-#def-active-grp
  6
CONTINUOUS
 62
    7
420
    0
370
   25
100
AcDbSpline
210
0
220
0
230
0
 70
    8
 71
    2
 72
    6
 73
    3
 74
    0
 42
1e-07
 43
1e-07
 40
0
 40
0
 40
0
 40
1
 40
1
 40
1
 10
65.08189572087664
 20
1.949877856988525
 30
0
 10
65.03672635547059
 20
1.992788802404021
 30
0
 10
65.03672635547059
 20
2.066178278941727
 30
0
  0
SPLINE
  5
16F
100
AcDbEntity
  8
s001-#def-active-grp
  6
CONTINUOUS
 62
    7
420
    0
370
   25
100
AcDbSpline
210
0
220
0
230
0
 70
    8
 71
    2
 72
    6
 73
    3
 74
    0
 42
1e-07
 43
1e-07
 40
0
 40
0
 40
0
 40
1
 40
1
 40
1
 10
65.03672635547059
 20
2.066178278941727
 30
0
 10
65.03672635547059
 20
2.138449274320223
 30
0
 10
65.08981113425631
 20
2.182500158567048
 30
0
  0
SPLINE
  5
170
100
AcDbEntity
  8
s001-#def-active-grp
  6
CONTINUOUS
 62
    7
420
    0
370
   25
100
AcDbSpline
210
0
220
0
230
0
 70
    8
 71
    2
 72
    6
 73
    3
 74
    0
 42
1e-07
 43
1e-07
 40
0
 40
0
 40
0
 40
1
 40
1
 40
1
 10
65.08981113425631
 20
2.182500158567048
 30
0
 10
65.13498049966233
 20
2.223152683992005
 30
0
 10
65.19595923415559
 20
2.223152683992005
 30
0
  0
ARC
  5
171
100
AcDbEntity
  8
s100-lasercut
  6
CONTINUOUS
 62
    7
420
    0
370
    9
100
AcDbCircle
 10
21.01956385179628
 20
2.46205974811558
 40
4.000000000000001
100
AcDbArc
 50
105.9226678450929
 51
163.0612639967764
  0
ARC
  5
172
100
AcDbEntity
  8
s100-lasercut
  6
CONTINUOUS
 62
    7
420
    0
370
    9
100
AcDbCircle
 10
21.01956385179627
 20
2.462059748115577
 40
3.999999999999994
100
AcDbArc
 50
-163.0612639967764
 51
-90.4113890121229
  0
ARC
  5
173
100
AcDbEntity
  8
s100-lasercut
  6
CONTINUOUS
 62
    7
420
    0
370
    9
100
AcDbCircle
 10
21.01956385179627
 20
2.462059748115576
 40
3.999999999999994
100
AcDbArc
 50
-90.4113890121229
 51
-17.76151402746943
  0
ARC
  5
174
100
AcDbEntity
  8
s100-lasercut
  6
CONTINUOUS
 62
    7
420
    0
370
    9
100
AcDbCircle
 10
20.85984842135981
 20
-33.3411385736767
 40
4.000000000000001
100
AcDbArc
 50
15.31909414401382
 51
85.88284225750139
  0
ARC
  5
175
100
AcDbEntity
  8
s100-lasercut
  6
CONTINUOUS
 62
    7
420
    0
370
    9
100
AcDbCircle
 10
20.85984842135982
 20
-33.34113857367669
 40
3.999999999999995
100
AcDbArc
 50
85.88284225750145
 51
156.4465903709891
  0
ARC
  5
176
100
AcDbEntity
  8
s100-lasercut
  6
CONTINUOUS
 62
    7
420
    0
370
    9
100
AcDbCircle
 10
20.85984842135983
 20
-33.3411385736767
 40
4.000000000000015
100
AcDbArc
 50
156.4465903709891
 51
-158.0979470180425
  0
ARC
  5
177
100
AcDbEntity
  8
s100-lasercut
  6
CONTINUOUS
 62
    7
420
    0
370
    9
100
AcDbCircle
 10
20.85984842135981
 20
-33.34113857367672
 40
3.999999999999992
100
AcDbArc
 50
-158.0979470180426
 51
-112.6424844070739
  0
SPLINE
  5
178
100
AcDbEntity
  8
s100-lasercut
  6
CONTINUOUS
 62
    7
420
    0
370
    9
100
AcDbSpline
210
0
220
0
230
0
 70
    8
 71
    3
 72
    8
 73
    4
 74
    0
 42
1e-07
 43
1e-07
 40
0
 40
0
 40
0
 40
0
 40
1
 40
1
 40
1
 40
1
 10
56.86589611782572
 20
-37.03283861821483
 30
0
 10
58.09493324468838
 20
-37.58025595578664
 30
0
 10
58.91274196776681
 20
-38.29673724075764
 30
0
 10
59.45619536476746
 20
-39.28436065549316
 30
0
  0
ARC
  5
179
100
AcDbEntity
  8
s100-lasercut
  6
CONTINUOUS
 62
    7
420
    0
370
    9
100
AcDbCircle
 10
65.45619536476747
 20
-39.28436065549316
 40
6.000000000000007
100
AcDbArc
 50
180
 51
-90
  0
ARC
  5
17A
100
AcDbEntity
  8
s100-lasercut
  6
CONTINUOUS
 62
    7
420
    0
370
    9
100
AcDbCircle
 10
65.45619536476747
 20
-39.28436065549316
 40
6
100
AcDbArc
 50
-90
 51
0
  0
SPLINE
  5
17B
100
AcDbEntity
  8
s100-lasercut
  6
CONTINUOUS
 62
    7
420
    0
370
    9
100
AcDbSpline
210
0
220
0
230
0
 70
    8
 71
    3
 72
    8
 73
    4
 74
    0
 42
1e-07
 43
1e-07
 40
0
 40
0
 40
0
 40
0
 40
1
 40
1
 40
1
 40
1
 10
71.45619536476747
 20
-39.28436065549316
 30
0
 10
71.91929419831123
 20
-36.58436065549316
 30
0
 10
76.91929419831123
 20
-35.78436065549316
 30
0
 10
77.71929419831125
 20
-31.02126182194938
 30
0
  0
SPLINE
  5
17C
100
AcDbEntity
  8
s100-lasercut
  6
CONTINUOUS
 62
    7
420
    0
370
    9
100
AcDbSpline
210
0
220
0
230
0
 70
    8
 71
    3
 72
    8
 73
    4
 74
    0
 42
1e-07
 43
1e-07
 40
0
 40
0
 40
0
 40
0
 40
1
 40
1
 40
1
 40
1
 10
77.71929419831125
 20
-0.02126182194938586
 30
0
 10
76.91929419831123
 20
4.741837011594392
 30
0
 10
71.91929419831123
 20
5.541837011594392
 30
0
 10
71.45619536476747
 20
8.241837011594392
 30
0
  0
ARC
  5
17D
100
AcDbEntity
  8
s100-lasercut
  6
CONTINUOUS
 62
    7
420
    0
370
    9
100
AcDbCircle
 10
65.45619536476747
 20
8.241837011594392
 40
6
100
AcDbArc
 50
0
 51
90
  0
ARC
  5
17E
100
AcDbEntity
  8
s100-lasercut
  6
CONTINUOUS
 62
    7
420
    0
370
    9
100
AcDbCircle
 10
65.45619536476747
 20
8.241837011594392
 40
6
100
AcDbArc
 50
90
 51
180
  0
SPLINE
  5
17F
100
AcDbEntity
  8
s100-lasercut
  6
CONTINUOUS
 62
    7
420
    0
370
    9
100
AcDbSpline
210
0
220
0
230
0
 70
    8
 71
    3
 72
    8
 73
    4
 74
    0
 42
1e-07
 43
1e-07
 40
0
 40
0
 40
0
 40
0
 40
1
 40
1
 40
1
 40
1
 10
59.45619536476746
 20
8.241837011594392
 30
0
 10
58.91274196776681
 20
7.254213596858868
 30
0
 10
58.09493324468838
 20
6.537732311887876
 30
0
 10
56.86589611782572
 20
6.308591140923316
 30
0
  0
ARC
  5
180
100
AcDbEntity
  8
s100-lasercut
  6
CONTINUOUS
 62
    7
420
    0
370
    9
100
AcDbCircle
 10
65.45619536476747
 20
-39.28436065549316
 40
1.099999999999994
100
AcDbArc
 50
-90
 51
0
  0
ARC
  5
181
100
AcDbEntity
  8
s100-lasercut
  6
CONTINUOUS
 62
    7
420
    0
370
    9
100
AcDbCircle
 10
65.45619536476747
 20
-39.28436065549316
 40
1.100000000000001
100
AcDbArc
 50
180
 51
-90
  0
ARC
  5
182
100
AcDbEntity
  8
s100-lasercut
  6
CONTINUOUS
 62
    7
420
    0
370
    9
100
AcDbCircle
 10
65.45619536476747
 20
-39.28436065549316
 40
1.099999999999994
100
AcDbArc
 50
90
 51
180
  0
ARC
  5
183
100
AcDbEntity
  8
s100-lasercut
  6
CONTINUOUS
 62
    7
420
    0
370
    9
100
AcDbCircle
 10
65.45619536476747
 20
-39.28436065549316
 40
1.100000000000001
100
AcDbArc
 50
0
 51
90
  0
ARC
  5
184
100
AcDbEntity
  8
s100-lasercut
  6
CONTINUOUS
 62
    7
420
    0
370
    9
100
AcDbCircle
 10
20.85984842135981
 20
-33.3411385736767
 40
1.100000000000001
100
AcDbArc
 50
-90
 51
0
  0
ARC
  5
185
100
AcDbEntity
  8
s100-lasercut
  6
CONTINUOUS
 62
    7
420
    0
370
    9
100
AcDbCircle
 10
20.85984842135981
 20
-33.3411385736767
 40
1.099999999999994
100
AcDbArc
 50
180
 51
-90
  0
ARC
  5
186
100
AcDbEntity
  8
s100-lasercut
  6
CONTINUOUS
 62
    7
420
    0
370
    9
100
AcDbCircle
 10
20.85984842135981
 20
-33.3411385736767
 40
1.100000000000001
100
AcDbArc
 50
90
 51
180
  0
ARC
  5
187
100
AcDbEntity
  8
s100-lasercut
  6
CONTINUOUS
 62
    7
420
    0
370
    9
100
AcDbCircle
 10
20.85984842135981
 20
-33.3411385736767
 40
1.100000000000009
100
AcDbArc
 50
0
 51
90
  0
ARC
  5
188
100
AcDbEntity
  8
s100-lasercut
  6
CONTINUOUS
 62
    7
420
    0
370
    9
100
AcDbCircle
 10
21.01956385179628
 20
2.462059748115582
 40
1.100000000000001
100
AcDbArc
 50
-90
 51
0
  0
ARC
  5
189
100
AcDbEntity
  8
s100-lasercut
  6
CONTINUOUS
 62
    7
420
    0
370
    9
100
AcDbCircle
 10
21.01956385179628
 20
2.462059748115582
 40
1.100000000000001
100
AcDbArc
 50
180
 51
-90
  0
ARC
  5
18A
100
AcDbEntity
  8
s100-lasercut
  6
CONTINUOUS
 62
    7
420
    0
370
    9
100
AcDbCircle
 10
21.01956385179628
 20
2.462059748115582
 40
1.100000000000001
100
AcDbArc
 50
90
 51
180
  0
ARC
  5
18B
100
AcDbEntity
  8
s100-lasercut
  6
CONTINUOUS
 62
    7
420
    0
370
    9
100
AcDbCircle
 10
21.01956385179628
 20
2.462059748115582
 40
1.100000000000001
100
AcDbArc
 50
0
 51
90
  0
ARC
  5
18C
100
AcDbEntity
  8
s100-lasercut
  6
CONTINUOUS
 62
    7
420
    0
370
    9
100
AcDbCircle
 10
65.45619536476747
 20
8.241837011594392
 40
1.099999999999994
100
AcDbArc
 50
-90
 51
0
  0
ARC
  5
18D
100
AcDbEntity
  8
s100-lasercut
  6
CONTINUOUS
 62
    7
420
    0
370
    9
100
AcDbCircle
 10
65.45619536476747
 20
8.241837011594392
 40
1.100000000000001
100
AcDbArc
 50
180
 51
-90
  0
ARC
  5
18E
100
AcDbEntity
  8
s100-lasercut
  6
CONTINUOUS
 62
    7
420
    0
370
    9
100
AcDbCircle
 10
65.45619536476747
 20
8.241837011594392
 40
1.099999999999994
100
AcDbArc
 50
90
 51
180
  0
ARC
  5
18F
100
AcDbEntity
  8
s100-lasercut
  6
CONTINUOUS
 62
    7
420
    0
370
    9
100
AcDbCircle
 10
65.45619536476747
 20
8.241837011594392
 40
1.100000000000001
100
AcDbArc
 50
0
 51
90
  0
SPLINE
  5
190
100
AcDbEntity
  8
s001-#def-active-grp
  6
CONTINUOUS
 62
    7
420
    0
370
   25
100
AcDbSpline
210
0
220
0
230
0
 70
    8
 71
    2
 72
    6
 73
    3
 74
    0
 42
1e-07
 43
1e-07
 40
0
 40
0
 40
0
 40
1
 40
1
 40
1
 10
64.94251832427418
 20
-2.244601417761229
 30
0
 10
64.94251832427418
 20
-2.155402625780486
 30
0
 10
65.00913242014084
 20
-2.088207818251037
 30
0
  0
SPLINE
  5
191
100
AcDbEntity
  8
s001-#def-active-grp
  6
CONTINUOUS
 62
    7
420
    0
370
   25
100
AcDbSpline
210
0
220
0
230
0
 70
    8
 71
    2
 72
    6
 73
    3
 74
    0
 42
1e-07
 43
1e-07
 40
0
 40
0
 40
0
 40
1
 40
1
 40
1
 10
65.00913242014084
 20
-2.088207818251037
 30
0
 10
65.07576801391278
 20
-2.021013010721587
 30
0
 10
65.16272981675303
 20
-2.021013010721587
 30
0
  0
SPLINE
  5
192
100
AcDbEntity
  8
s001-#def-active-grp
  6
CONTINUOUS
 62
    7
420
    0
370
   25
100
AcDbSpline
210
0
220
0
230
0
 70
    8
 71
    2
 72
    6
 73
    3
 74
    0
 42
1e-07
 43
1e-07
 40
0
 40
0
 40
0
 40
1
 40
1
 40
1
 10
65.16272981675303
 20
-2.021013010721587
 30
0
 10
65.24855165393984
 20
-2.021013010721587
 30
0
 10
65.3078311017338
 20
-2.084250165205383
 30
0
  0
SPLINE
  5
193
100
AcDbEntity
  8
s001-#def-active-grp
  6
CONTINUOUS
 62
    7
420
    0
370
   25
100
AcDbSpline
210
0
220
0
230
0
 70
    8
 71
    2
 72
    6
 73
    3
 74
    0
 42
1e-07
 43
1e-07
 40
0
 40
0
 40
0
 40
1
 40
1
 40
1
 10
65.3078311017338
 20
-2.084250165205383
 30
0
 10
65.36711054952775
 20
-2.147487212400817
 30
0
 10
65.36711054952775
 20
-2.243482936602019
 30
0
  0
SPLINE
  5
194
100
AcDbEntity
  8
s001-#def-active-grp
  6
CONTINUOUS
 62
    7
420
    0
370
   25
100
AcDbSpline
210
0
220
0
230
0
 70
    8
 71
    2
 72
    6
 73
    3
 74
    0
 42
1e-07
 43
1e-07
 40
0
 40
0
 40
0
 40
1
 40
1
 40
1
 10
65.36711054952775
 20
-2.243482936602019
 30
0
 10
65.36711054952775
 20
-2.338338668327712
 30
0
 10
65.30499187620316
 20
-2.403834296446227
 30
0
  0
SPLINE
  5
195
100
AcDbEntity
  8
s001-#def-active-grp
  6
CONTINUOUS
 62
    7
420
    0
370
   25
100
AcDbSpline
210
0
220
0
230
0
 70
    8
 71
    2
 72
    6
 73
    3
 74
    0
 42
1e-07
 43
1e-07
 40
0
 40
0
 40
0
 40
1
 40
1
 40
1
 10
65.30499187620316
 20
-2.403834296446227
 30
0
 10
65.24289471419488
 20
-2.469329870920562
 30
0
 10
65.15481443019544
 20
-2.469329870920562
 30
0
  0
SPLINE
  5
196
100
AcDbEntity
  8
s001-#def-active-grp
  6
CONTINUOUS
 62
    7
420
    0
370
   25
100
AcDbSpline
210
0
220
0
230
0
 70
    8
 71
    2
 72
    6
 73
    3
 74
    0
 42
1e-07
 43
1e-07
 40
0
 40
0
 40
0
 40
1
 40
1
 40
1
 10
65.15481443019544
 20
-2.469329870920562
 30
0
 10
65.06899259300863
 20
-2.469329870920562
 30
0
 10
65.00575546534691
 20
-2.403275055866622
 30
0
  0
SPLINE
  5
197
100
AcDbEntity
  8
s001-#def-active-grp
  6
CONTINUOUS
 62
    7
420
    0
370
   25
100
AcDbSpline
210
0
220
0
230
0
 70
    8
 71
    2
 72
    6
 73
    3
 74
    0
 42
1e-07
 43
1e-07
 40
0
 40
0
 40
0
 40
1
 40
1
 40
1
 10
65.00575546534691
 20
-2.403275055866622
 30
0
 10
64.94251832427418
 20
-2.337198675852203
 30
0
 10
64.94251832427418
 20
-2.244601417761229
 30
0
  0
SPLINE
  5
198
100
AcDbEntity
  8
s001-#def-active-grp
  6
CONTINUOUS
 62
    7
420
    0
370
   25
100
AcDbSpline
210
0
220
0
230
0
 70
    8
 71
    2
 72
    6
 73
    3
 74
    0
 42
1e-07
 43
1e-07
 40
0
 40
0
 40
0
 40
1
 40
1
 40
1
 10
65.1800918951175
 20
-7.739206204991721
 30
0
 10
65.18460881556484
 20
-8.07008269099512
 30
0
 10
65.17953265453789
 20
-8.119209773149276
 30
0
  0
SPLINE
  5
199
100
AcDbEntity
  8
s001-#def-active-grp
  6
CONTINUOUS
 62
    7
420
    0
370
   25
100
AcDbSpline
210
0
220
0
230
0
 70
    8
 71
    2
 72
    6
 73
    3
 74
    0
 42
1e-07
 43
1e-07
 40
0
 40
0
 40
0
 40
1
 40
1
 40
1
 10
65.17953265453789
 20
-8.119209773149276
 30
0
 10
65.17445646668884
 20
-8.168336854465238
 30
0
 10
65.16032489980671
 20
-8.186404607500815
 30
0
  0
SPLINE
  5
19A
100
AcDbEntity
  8
s001-#def-active-grp
  6
CONTINUOUS
 62
    7
420
    0
370
   25
100
AcDbSpline
210
0
220
0
230
0
 70
    8
 71
    2
 72
    6
 73
    3
 74
    0
 42
1e-07
 43
1e-07
 40
0
 40
0
 40
0
 40
1
 40
1
 40
1
 10
65.16032489980671
 20
-8.186404607500815
 30
0
 10
65.14621484424086
 20
-8.204472363050961
 30
0
 10
65.11119782771084
 20
-8.204472363050961
 30
0
  0
SPLINE
  5
19B
100
AcDbEntity
  8
s001-#def-active-grp
  6
CONTINUOUS
 62
    7
420
    0
370
   25
100
AcDbSpline
210
0
220
0
230
0
 70
    8
 71
    2
 72
    6
 73
    3
 74
    0
 42
1e-07
 43
1e-07
 40
0
 40
0
 40
0
 40
1
 40
1
 40
1
 10
65.11119782771084
 20
-8.204472363050961
 30
0
 10
65.07620229567502
 20
-8.204472363050961
 30
0
 10
65.06209224010917
 20
-8.183006149772488
 30
0
  0
SPLINE
  5
19C
100
AcDbEntity
  8
s001-#def-active-grp
  6
CONTINUOUS
 62
    7
420
    0
370
   25
100
AcDbSpline
210
0
220
0
230
0
 70
    8
 71
    2
 72
    6
 73
    3
 74
    0
 42
1e-07
 43
1e-07
 40
0
 40
0
 40
0
 40
1
 40
1
 40
1
 10
65.06209224010917
 20
-8.183006149772488
 30
0
 10
65.04798218454334
 20
-8.161561446762576
 30
0
 10
65.04402449126454
 20
-8.129383636694335
 30
0
  0
SPLINE
  5
19D
100
AcDbEntity
  8
s001-#def-active-grp
  6
CONTINUOUS
 62
    7
420
    0
370
   25
100
AcDbSpline
210
0
220
0
230
0
 70
    8
 71
    2
 72
    6
 73
    3
 74
    0
 42
1e-07
 43
1e-07
 40
0
 40
0
 40
0
 40
1
 40
1
 40
1
 10
65.04402449126454
 20
-8.129383636694335
 30
0
 10
65.04006679798576
 20
-8.097184320967578
 30
0
 10
65.04006679798576
 20
-8.004587076287649
 30
0
  0
SPLINE
  5
19E
100
AcDbEntity
  8
s001-#def-active-grp
  6
CONTINUOUS
 62
    7
420
    0
370
   25
100
AcDbSpline
210
0
220
0
230
0
 70
    8
 71
    2
 72
    6
 73
    3
 74
    0
 42
1e-07
 43
1e-07
 40
0
 40
0
 40
0
 40
1
 40
1
 40
1
 10
65.04006679798576
 20
-8.004587076287649
 30
0
 10
65.04006679798576
 20
-7.911989845018767
 30
0
 10
65.04006679798576
 20
-7.666935182791137
 30
0
  0
SPLINE
  5
19F
100
AcDbEntity
  8
s001-#def-active-grp
  6
CONTINUOUS
 62
    7
420
    0
370
   25
100
AcDbSpline
210
0
220
0
230
0
 70
    8
 71
    2
 72
    6
 73
    3
 74
    0
 42
1e-07
 43
1e-07
 40
0
 40
0
 40
0
 40
1
 40
1
 40
1
 10
65.11121933902714
 20
-6.358162988405608
 30
0
 10
65.17219799305411
 20
-6.358162988405608
 30
0
 10
65.21566815222712
 20
-6.404472399931334
 30
0
  0
SPLINE
  5
1A0
100
AcDbEntity
  8
s001-#def-active-grp
  6
CONTINUOUS
 62
    7
420
    0
370
   25
100
AcDbSpline
210
0
220
0
230
0
 70
    8
 71
    2
 72
    6
 73
    3
 74
    0
 42
1e-07
 43
1e-07
 40
0
 40
0
 40
0
 40
1
 40
1
 40
1
 10
65.21566815222712
 20
-6.404472399931334
 30
0
 10
65.25913831140014
 20
-6.45076024649658
 30
0
 10
65.25913831140014
 20
-6.521891249399566
 30
0
  0
SPLINE
  5
1A1
100
AcDbEntity
  8
s001-#def-active-grp
  6
CONTINUOUS
 62
    7
420
    0
370
   25
100
AcDbSpline
210
0
220
0
230
0
 70
    8
 71
    2
 72
    6
 73
    3
 74
    0
 42
1e-07
 43
1e-07
 40
0
 40
0
 40
0
 40
1
 40
1
 40
1
 10
65.25913831140014
 20
-6.521891249399566
 30
0
 10
65.25913831140014
 20
-6.590785397272491
 30
0
 10
65.21566815222712
 20
-6.637653995733642
 30
0
  0
SPLINE
  5
1A2
100
AcDbEntity
  8
s001-#def-active-grp
  6
CONTINUOUS
 62
    7
420
    0
370
   25
100
AcDbSpline
210
0
220
0
230
0
 70
    8
 71
    2
 72
    6
 73
    3
 74
    0
 42
1e-07
 43
1e-07
 40
0
 40
0
 40
0
 40
1
 40
1
 40
1
 10
65.21566815222712
 20
-6.637653995733642
 30
0
 10
65.17219799305411
 20
-6.684501029234314
 30
0
 10
65.10896086539242
 20
-6.684501029234314
 30
0
  0
SPLINE
  5
1A3
100
AcDbEntity
  8
s001-#def-active-grp
  6
CONTINUOUS
 62
    7
420
    0
370
   25
100
AcDbSpline
210
0
220
0
230
0
 70
    8
 71
    2
 72
    6
 73
    3
 74
    0
 42
1e-07
 43
1e-07
 40
0
 40
0
 40
0
 40
1
 40
1
 40
1
 10
65.10896086539242
 20
-6.684501029234314
 30
0
 10
65.04572372431966
 20
-6.684501029234314
 30
0
 10
65.00337204630586
 20
-6.638772476892852
 30
0
  0
SPLINE
  5
1A4
100
AcDbEntity
  8
s001-#def-active-grp
  6
CONTINUOUS
 62
    7
420
    0
370
   25
100
AcDbSpline
210
0
220
0
230
0
 70
    8
 71
    2
 72
    6
 73
    3
 74
    0
 42
1e-07
 43
1e-07
 40
0
 40
0
 40
0
 40
1
 40
1
 40
1
 10
65.00337204630586
 20
-6.638772476892852
 30
0
 10
64.96102036829205
 20
-6.59304381726303
 30
0
 10
64.96102036829205
 20
-6.521891249399566
 30
0
  0
SPLINE
  5
1A5
100
AcDbEntity
  8
s001-#def-active-grp
  6
CONTINUOUS
 62
    7
420
    0
370
   25
100
AcDbSpline
210
0
220
0
230
0
 70
    8
 71
    2
 72
    6
 73
    3
 74
    0
 42
1e-07
 43
1e-07
 40
0
 40
0
 40
0
 40
1
 40
1
 40
1
 10
64.96102036829205
 20
-6.521891249399566
 30
0
 10
64.96102036829205
 20
-6.446243299227142
 30
0
 10
65.01070669437857
 20
-6.401073933821104
 30
0
  0
SPLINE
  5
1A6
100
AcDbEntity
  8
s001-#def-active-grp
  6
CONTINUOUS
 62
    7
420
    0
370
   25
100
AcDbSpline
210
0
220
0
230
0
 70
    8
 71
    2
 72
    6
 73
    3
 74
    0
 42
1e-07
 43
1e-07
 40
0
 40
0
 40
0
 40
1
 40
1
 40
1
 10
65.01070669437857
 20
-6.401073933821104
 30
0
 10
65.05361761297198
 20
-6.358162988405608
 30
0
 10
65.11121933902714
 20
-6.358162988405608
 30
0
  0
SPLINE
  5
1A7
100
AcDbEntity
  8
s001-#def-active-grp
  6
CONTINUOUS
 62
    7
420
    0
370
   25
100
AcDbSpline
210
0
220
0
230
0
 70
    8
 71
    2
 72
    6
 73
    3
 74
    0
 42
1e-07
 43
1e-07
 40
0
 40
0
 40
0
 40
1
 40
1
 40
1
 10
65.21234665929623
 20
-12.73920620499172
 30
0
 10
65.21686360656568
 20
-13.07008269099512
 30
0
 10
65.21178747236081
 20
-13.11920977314927
 30
0
  0
SPLINE
  5
1A8
100
AcDbEntity
  8
s001-#def-active-grp
  6
CONTINUOUS
 62
    7
420
    0
370
   25
100
AcDbSpline
210
0
220
0
230
0
 70
    8
 71
    2
 72
    6
 73
    3
 74
    0
 42
1e-07
 43
1e-07
 40
0
 40
0
 40
0
 40
1
 40
1
 40
1
 10
65.21178747236081
 20
-13.11920977314927
 30
0
 10
65.2067112308676
 20
-13.16833685446524
 30
0
 10
65.19257963716336
 20
-13.18640460750081
 30
0
  0
SPLINE
  5
1A9
100
AcDbEntity
  8
s001-#def-active-grp
  6
CONTINUOUS
 62
    7
420
    0
370
   25
100
AcDbSpline
210
0
220
0
230
0
 70
    8
 71
    2
 72
    6
 73
    3
 74
    0
 42
1e-07
 43
1e-07
 40
0
 40
0
 40
0
 40
1
 40
1
 40
1
 10
65.19257963716336
 20
-13.18640460750081
 30
0
 10
65.17846960841962
 20
-13.20447236305096
 30
0
 10
65.14345261871168
 20
-13.20447236305096
 30
0
  0
SPLINE
  5
1AA
100
AcDbEntity
  8
s001-#def-active-grp
  6
CONTINUOUS
 62
    7
420
    0
370
   25
100
AcDbSpline
210
0
220
0
230
0
 70
    8
 71
    2
 72
    6
 73
    3
 74
    0
 42
1e-07
 43
1e-07
 40
0
 40
0
 40
0
 40
1
 40
1
 40
1
 10
65.14345261871168
 20
-13.20447236305096
 30
0
 10
65.10845708667586
 20
-13.20447236305096
 30
0
 10
65.09434700428793
 20
-13.18300614977249
 30
0
  0
SPLINE
  5
1AB
100
AcDbEntity
  8
s001-#def-active-grp
  6
CONTINUOUS
 62
    7
420
    0
370
   25
100
AcDbSpline
210
0
220
0
230
0
 70
    8
 71
    2
 72
    6
 73
    3
 74
    0
 42
1e-07
 43
1e-07
 40
0
 40
0
 40
0
 40
1
 40
1
 40
1
 10
65.09434700428793
 20
-13.18300614977249
 30
0
 10
65.08023697554418
 20
-13.16156144676258
 30
0
 10
65.07627926885434
 20
-13.12938363669434
 30
0
  0
SPLINE
  5
1AC
100
AcDbEntity
  8
s001-#def-active-grp
  6
CONTINUOUS
 62
    7
420
    0
370
   25
100
AcDbSpline
210
0
220
0
230
0
 70
    8
 71
    2
 72
    6
 73
    3
 74
    0
 42
1e-07
 43
1e-07
 40
0
 40
0
 40
0
 40
1
 40
1
 40
1
 10
65.07627926885434
 20
-13.12938363669434
 30
0
 10
65.07232156216452
 20
-13.09718432096758
 30
0
 10
65.07232156216452
 20
-13.00458707628765
 30
0
  0
SPLINE
  5
1AD
100
AcDbEntity
  8
s001-#def-active-grp
  6
CONTINUOUS
 62
    7
420
    0
370
   25
100
AcDbSpline
210
0
220
0
230
0
 70
    8
 71
    2
 72
    6
 73
    3
 74
    0
 42
1e-07
 43
1e-07
 40
0
 40
0
 40
0
 40
1
 40
1
 40
1
 10
65.07232156216452
 20
-13.00458707628765
 30
0
 10
65.07232156216452
 20
-12.91198984501877
 30
0
 10
65.07232156216452
 20
-12.66693518279114
 30
0
  0
SPLINE
  5
1AE
100
AcDbEntity
  8
s001-#def-active-grp
  6
CONTINUOUS
 62
    7
420
    0
370
   25
100
AcDbSpline
210
0
220
0
230
0
 70
    8
 71
    2
 72
    6
 73
    3
 74
    0
 42
1e-07
 43
1e-07
 40
0
 40
0
 40
0
 40
1
 40
1
 40
1
 10
65.1434740763838
 20
-11.35816298840561
 30
0
 10
65.20445281087706
 20
-11.35816298840561
 30
0
 10
65.24792294322796
 20
-11.40447239993133
 30
0
  0
SPLINE
  5
1AF
100
AcDbEntity
  8
s001-#def-active-grp
  6
CONTINUOUS
 62
    7
420
    0
370
   25
100
AcDbSpline
210
0
220
0
230
0
 70
    8
 71
    2
 72
    6
 73
    3
 74
    0
 42
1e-07
 43
1e-07
 40
0
 40
0
 40
0
 40
1
 40
1
 40
1
 10
65.24792294322796
 20
-11.40447239993133
 30
0
 10
65.2913930755789
 20
-11.45076024649658
 30
0
 10
65.2913930755789
 20
-11.52189124939957
 30
0
  0
SPLINE
  5
1B0
100
AcDbEntity
  8
s001-#def-active-grp
  6
CONTINUOUS
 62
    7
420
    0
370
   25
100
AcDbSpline
210
0
220
0
230
0
 70
    8
 71
    2
 72
    6
 73
    3
 74
    0
 42
1e-07
 43
1e-07
 40
0
 40
0
 40
0
 40
1
 40
1
 40
1
 10
65.2913930755789
 20
-11.52189124939957
 30
0
 10
65.2913930755789
 20
-11.59078539727249
 30
0
 10
65.24792294322796
 20
-11.63765399573364
 30
0
  0
SPLINE
  5
1B1
100
AcDbEntity
  8
s001-#def-active-grp
  6
CONTINUOUS
 62
    7
420
    0
370
   25
100
AcDbSpline
210
0
220
0
230
0
 70
    8
 71
    2
 72
    6
 73
    3
 74
    0
 42
1e-07
 43
1e-07
 40
0
 40
0
 40
0
 40
1
 40
1
 40
1
 10
65.24792294322796
 20
-11.63765399573364
 30
0
 10
65.20445281087706
 20
-11.68450102923431
 30
0
 10
65.14121565639326
 20
-11.68450102923431
 30
0
  0
SPLINE
  5
1B2
100
AcDbEntity
  8
s001-#def-active-grp
  6
CONTINUOUS
 62
    7
420
    0
370
   25
100
AcDbSpline
210
0
220
0
230
0
 70
    8
 71
    2
 72
    6
 73
    3
 74
    0
 42
1e-07
 43
1e-07
 40
0
 40
0
 40
0
 40
1
 40
1
 40
1
 10
65.14121565639326
 20
-11.68450102923431
 30
0
 10
65.07797850190946
 20
-11.68450102923431
 30
0
 10
65.03562679707358
 20
-11.63877247689285
 30
0
  0
SPLINE
  5
1B3
100
AcDbEntity
  8
s001-#def-active-grp
  6
CONTINUOUS
 62
    7
420
    0
370
   25
100
AcDbSpline
210
0
220
0
230
0
 70
    8
 71
    2
 72
    6
 73
    3
 74
    0
 42
1e-07
 43
1e-07
 40
0
 40
0
 40
0
 40
1
 40
1
 40
1
 10
65.03562679707358
 20
-11.63877247689285
 30
0
 10
64.99327514588185
 20
-11.59304381726303
 30
0
 10
64.99327514588185
 20
-11.52189124939957
 30
0
  0
SPLINE
  5
1B4
100
AcDbEntity
  8
s001-#def-active-grp
  6
CONTINUOUS
 62
    7
420
    0
370
   25
100
AcDbSpline
210
0
220
0
230
0
 70
    8
 71
    2
 72
    6
 73
    3
 74
    0
 42
1e-07
 43
1e-07
 40
0
 40
0
 40
0
 40
1
 40
1
 40
1
 10
64.99327514588185
 20
-11.52189124939957
 30
0
 10
64.99327514588185
 20
-11.44624329922714
 30
0
 10
65.04296145855733
 20
-11.4010739338211
 30
0
  0
SPLINE
  5
1B5
100
AcDbEntity
  8
s001-#def-active-grp
  6
CONTINUOUS
 62
    7
420
    0
370
   25
100
AcDbSpline
210
0
220
0
230
0
 70
    8
 71
    2
 72
    6
 73
    3
 74
    0
 42
1e-07
 43
1e-07
 40
0
 40
0
 40
0
 40
1
 40
1
 40
1
 10
65.04296145855733
 20
-11.4010739338211
 30
0
 10
65.08587240397281
 20
-11.35816298840561
 30
0
 10
65.1434740763838
 20
-11.35816298840561
 30
0
  0
SPLINE
  5
1B6
100
AcDbEntity
  8
s001-#def-active-grp
  6
CONTINUOUS
 62
    7
420
    0
370
   25
100
AcDbSpline
210
0
220
0
230
0
 70
    8
 71
    2
 72
    6
 73
    3
 74
    0
 42
1e-07
 43
1e-07
 40
0
 40
0
 40
0
 40
1
 40
1
 40
1
 10
64.83180535852262
 20
-12.50320692179718
 30
0
 10
64.50206885158369
 20
-12.50658387659111
 30
0
 10
64.45406024723599
 20
-12.50206692932167
 30
0
  0
SPLINE
  5
1B7
100
AcDbEntity
  8
s001-#def-active-grp
  6
CONTINUOUS
 62
    7
420
    0
370
   25
100
AcDbSpline
210
0
220
0
230
0
 70
    8
 71
    2
 72
    6
 73
    3
 74
    0
 42
1e-07
 43
1e-07
 40
0
 40
0
 40
0
 40
1
 40
1
 40
1
 10
64.45406024723599
 20
-12.50206692932167
 30
0
 10
64.40607315420456
 20
-12.49754998205223
 30
0
 10
64.38686539947338
 20
-12.48288071272888
 30
0
  0
SPLINE
  5
1B8
100
AcDbEntity
  8
s001-#def-active-grp
  6
CONTINUOUS
 62
    7
420
    0
370
   25
100
AcDbSpline
210
0
220
0
230
0
 70
    8
 71
    2
 72
    6
 73
    3
 74
    0
 42
1e-07
 43
1e-07
 40
0
 40
0
 40
0
 40
1
 40
1
 40
1
 10
64.38686539947338
 20
-12.48288071272888
 30
0
 10
64.36767916946957
 20
-12.46818987844505
 30
0
 10
64.36767916946957
 20
-12.43375358698883
 30
0
  0
SPLINE
  5
1B9
100
AcDbEntity
  8
s001-#def-active-grp
  6
CONTINUOUS
 62
    7
420
    0
370
   25
100
AcDbSpline
210
0
220
0
230
0
 70
    8
 71
    2
 72
    6
 73
    3
 74
    0
 42
1e-07
 43
1e-07
 40
0
 40
0
 40
0
 40
1
 40
1
 40
1
 10
64.36767916946957
 20
-12.43375358698883
 30
0
 10
64.36767916946957
 20
-12.39931734917679
 30
0
 10
64.3885646325285
 20
-12.38520726678886
 30
0
  0
SPLINE
  5
1BA
100
AcDbEntity
  8
s001-#def-active-grp
  6
CONTINUOUS
 62
    7
420
    0
370
   25
100
AcDbSpline
210
0
220
0
230
0
 70
    8
 71
    2
 72
    6
 73
    3
 74
    0
 42
1e-07
 43
1e-07
 40
0
 40
0
 40
0
 40
1
 40
1
 40
1
 10
64.3885646325285
 20
-12.38520726678886
 30
0
 10
64.40947160690376
 20
-12.37107572672882
 30
0
 10
64.44220865189382
 20
-12.36713953135528
 30
0
  0
SPLINE
  5
1BB
100
AcDbEntity
  8
s001-#def-active-grp
  6
CONTINUOUS
 62
    7
420
    0
370
   25
100
AcDbSpline
210
0
220
0
230
0
 70
    8
 71
    2
 72
    6
 73
    3
 74
    0
 42
1e-07
 43
1e-07
 40
0
 40
0
 40
0
 40
1
 40
1
 40
1
 10
64.44220865189382
 20
-12.36713953135528
 30
0
 10
64.47496720820018
 20
-12.36318182466545
 30
0
 10
64.5669837009842
 20
-12.36318182466545
 30
0
  0
SPLINE
  5
1BC
100
AcDbEntity
  8
s001-#def-active-grp
  6
CONTINUOUS
 62
    7
420
    0
370
   25
100
AcDbSpline
210
0
220
0
230
0
 70
    8
 71
    2
 72
    6
 73
    3
 74
    0
 42
1e-07
 43
1e-07
 40
0
 40
0
 40
0
 40
1
 40
1
 40
1
 10
64.5669837009842
 20
-12.36318182466545
 30
0
 10
64.65902169167347
 20
-12.36318182466545
 30
0
 10
64.90519483506031
 20
-12.36318182466545
 30
0
  0
SPLINE
  5
1BD
100
AcDbEntity
  8
s001-#def-active-grp
  6
CONTINUOUS
 62
    7
420
    0
370
   25
100
AcDbSpline
210
0
220
0
230
0
 70
    8
 71
    2
 72
    6
 73
    3
 74
    0
 42
1e-07
 43
1e-07
 40
0
 40
0
 40
0
 40
1
 40
1
 40
1
 10
65.82101487933943
 20
-12.36318182466545
 30
0
 10
65.87181967317412
 20
-12.37221571920433
 30
0
 10
65.88874741613216
 20
-12.39254192827263
 30
0
  0
SPLINE
  5
1BE
100
AcDbEntity
  8
s001-#def-active-grp
  6
CONTINUOUS
 62
    7
420
    0
370
   25
100
AcDbSpline
210
0
220
0
230
0
 70
    8
 71
    2
 72
    6
 73
    3
 74
    0
 42
1e-07
 43
1e-07
 40
0
 40
0
 40
0
 40
1
 40
1
 40
1
 10
65.88874741613216
 20
-12.39254192827263
 30
0
 10
65.90569672405073
 20
-12.41286813734093
 30
0
 10
65.90569672405073
 20
-12.43489357946434
 30
0
  0
SPLINE
  5
1BF
100
AcDbEntity
  8
s001-#def-active-grp
  6
CONTINUOUS
 62
    7
420
    0
370
   25
100
AcDbSpline
210
0
220
0
230
0
 70
    8
 71
    2
 72
    6
 73
    3
 74
    0
 42
1e-07
 43
1e-07
 40
0
 40
0
 40
0
 40
1
 40
1
 40
1
 10
65.90569672405073
 20
-12.43489357946434
 30
0
 10
65.90569672405073
 20
-12.45689756391563
 30
0
 10
65.88932816802807
 20
-12.47496529934921
 30
0
  0
SPLINE
  5
1C0
100
AcDbEntity
  8
s001-#def-active-grp
  6
CONTINUOUS
 62
    7
420
    0
370
   25
100
AcDbSpline
210
0
220
0
230
0
 70
    8
 71
    2
 72
    6
 73
    3
 74
    0
 42
1e-07
 43
1e-07
 40
0
 40
0
 40
0
 40
1
 40
1
 40
1
 10
65.88932816802807
 20
-12.47496529934921
 30
0
 10
65.87295961200545
 20
-12.49303303478279
 30
0
 10
65.82327329932997
 20
-12.50320692179718
 30
0
  0
SPLINE
  5
1C1
100
AcDbEntity
  8
s001-#def-active-grp
  6
CONTINUOUS
 62
    7
420
    0
370
   25
100
AcDbSpline
210
0
220
0
230
0
 70
    8
 71
    2
 72
    6
 73
    3
 74
    0
 42
1e-07
 43
1e-07
 40
0
 40
0
 40
0
 40
1
 40
1
 40
1
 10
64.98036424862335
 20
-16.55350988028565
 30
0
 10
64.97810577498862
 20
-16.22265478489914
 30
0
 10
64.98318196283768
 20
-16.17352787373581
 30
0
  0
SPLINE
  5
1C2
100
AcDbEntity
  8
s001-#def-active-grp
  6
CONTINUOUS
 62
    7
420
    0
370
   25
100
AcDbSpline
210
0
220
0
230
0
 70
    8
 71
    2
 72
    6
 73
    3
 74
    0
 42
1e-07
 43
1e-07
 40
0
 40
0
 40
0
 40
1
 40
1
 40
1
 10
64.98318196283768
 20
-16.17352787373581
 30
0
 10
64.98825809704255
 20
-16.12440074799576
 30
0
 10
65.00236817943045
 20
-16.106332958918
 30
0
  0
SPLINE
  5
1C3
100
AcDbEntity
  8
s001-#def-active-grp
  6
CONTINUOUS
 62
    7
420
    0
370
   25
100
AcDbSpline
210
0
220
0
230
0
 70
    8
 71
    2
 72
    6
 73
    3
 74
    0
 42
1e-07
 43
1e-07
 40
0
 40
0
 40
0
 40
1
 40
1
 40
1
 10
65.00236817943045
 20
-16.106332958918
 30
0
 10
65.0164997194905
 20
-16.08826516984024
 30
0
 10
65.0514953051705
 20
-16.08826516984024
 30
0
  0
SPLINE
  5
1C4
100
AcDbEntity
  8
s001-#def-active-grp
  6
CONTINUOUS
 62
    7
420
    0
370
   25
100
AcDbSpline
210
0
220
0
230
0
 70
    8
 71
    2
 72
    6
 73
    3
 74
    0
 42
1e-07
 43
1e-07
 40
0
 40
0
 40
0
 40
1
 40
1
 40
1
 10
65.0514953051705
 20
-16.08826516984024
 30
0
 10
65.08651229487845
 20
-16.08826516984024
 30
0
 10
65.10062232362219
 20
-16.10973142502823
 30
0
  0
SPLINE
  5
1C5
100
AcDbEntity
  8
s001-#def-active-grp
  6
CONTINUOUS
 62
    7
420
    0
370
   25
100
AcDbSpline
210
0
220
0
230
0
 70
    8
 71
    2
 72
    6
 73
    3
 74
    0
 42
1e-07
 43
1e-07
 40
0
 40
0
 40
0
 40
1
 40
1
 40
1
 10
65.10062232362219
 20
-16.10973142502823
 30
0
 10
65.11473235236593
 20
-16.13117600796738
 30
0
 10
65.11869011269997
 20
-16.16337539074936
 30
0
  0
SPLINE
  5
1C6
100
AcDbEntity
  8
s001-#def-active-grp
  6
CONTINUOUS
 62
    7
420
    0
370
   25
100
AcDbSpline
210
0
220
0
230
0
 70
    8
 71
    2
 72
    6
 73
    3
 74
    0
 42
1e-07
 43
1e-07
 40
0
 40
0
 40
0
 40
1
 40
1
 40
1
 10
65.11869011269997
 20
-16.16337539074936
 30
0
 10
65.12264776574563
 20
-16.19555331585922
 30
0
 10
65.12206701384972
 20
-16.28815046666183
 30
0
  0
SPLINE
  5
1C7
100
AcDbEntity
  8
s001-#def-active-grp
  6
CONTINUOUS
 62
    7
420
    0
370
   25
100
AcDbSpline
210
0
220
0
230
0
 70
    8
 71
    2
 72
    6
 73
    3
 74
    0
 42
1e-07
 43
1e-07
 40
0
 40
0
 40
0
 40
1
 40
1
 40
1
 10
65.12206701384972
 20
-16.28815046666183
 30
0
 10
65.1215078269143
 20
-16.38074772475281
 30
0
 10
65.12038934575509
 20
-16.62578082201996
 30
0
  0
SPLINE
  5
1C8
100
AcDbEntity
  8
s001-#def-active-grp
  6
CONTINUOUS
 62
    7
420
    0
370
   25
100
AcDbSpline
210
0
220
0
230
0
 70
    8
 71
    2
 72
    6
 73
    3
 74
    0
 42
1e-07
 43
1e-07
 40
0
 40
0
 40
0
 40
1
 40
1
 40
1
 10
65.04471983062217
 20
-17.93457454113283
 30
0
 10
64.98374120341728
 20
-17.93457454113283
 30
0
 10
64.94027101742216
 20
-17.88770592926063
 30
0
  0
SPLINE
  5
1C9
100
AcDbEntity
  8
s001-#def-active-grp
  6
CONTINUOUS
 62
    7
420
    0
370
   25
100
AcDbSpline
210
0
220
0
230
0
 70
    8
 71
    2
 72
    6
 73
    3
 74
    0
 42
1e-07
 43
1e-07
 40
0
 40
0
 40
0
 40
1
 40
1
 40
1
 10
64.94027101742216
 20
-17.88770592926063
 30
0
 10
64.89680088507126
 20
-17.84083730397739
 30
0
 10
64.89791936623047
 20
-17.76970627425232
 30
0
  0
SPLINE
  5
1CA
100
AcDbEntity
  8
s001-#def-active-grp
  6
CONTINUOUS
 62
    7
420
    0
370
   25
100
AcDbSpline
210
0
220
0
230
0
 70
    8
 71
    2
 72
    6
 73
    3
 74
    0
 42
1e-07
 43
1e-07
 40
0
 40
0
 40
0
 40
1
 40
1
 40
1
 10
64.89791936623047
 20
-17.76970627425232
 30
0
 10
64.89791936623047
 20
-17.70081223366775
 30
0
 10
64.94138949858137
 20
-17.65452433345833
 30
0
  0
SPLINE
  5
1CB
100
AcDbEntity
  8
s001-#def-active-grp
  6
CONTINUOUS
 62
    7
420
    0
370
   25
100
AcDbSpline
210
0
220
0
230
0
 70
    8
 71
    2
 72
    6
 73
    3
 74
    0
 42
1e-07
 43
1e-07
 40
0
 40
0
 40
0
 40
1
 40
1
 40
1
 10
64.94138949858137
 20
-17.65452433345833
 30
0
 10
64.98488114224861
 20
-17.60821497557678
 30
0
 10
65.04811829673241
 20
-17.60821497557678
 30
0
  0
SPLINE
  5
1CC
100
AcDbEntity
  8
s001-#def-active-grp
  6
CONTINUOUS
 62
    7
420
    0
370
   25
100
AcDbSpline
210
0
220
0
230
0
 70
    8
 71
    2
 72
    6
 73
    3
 74
    0
 42
1e-07
 43
1e-07
 40
0
 40
0
 40
0
 40
1
 40
1
 40
1
 10
65.04811829673241
 20
-17.60821497557678
 30
0
 10
65.11135545121618
 20
-17.60821497557678
 30
0
 10
65.15368564473579
 20
-17.65396509287872
 30
0
  0
SPLINE
  5
1CD
100
AcDbEntity
  8
s001-#def-active-grp
  6
CONTINUOUS
 62
    7
420
    0
370
   25
100
AcDbSpline
210
0
220
0
230
0
 70
    8
 71
    2
 72
    6
 73
    3
 74
    0
 42
1e-07
 43
1e-07
 40
0
 40
0
 40
0
 40
1
 40
1
 40
1
 10
65.15368564473579
 20
-17.65396509287872
 30
0
 10
65.19603729592751
 20
-17.69969375250854
 30
0
 10
65.19603729592751
 20
-17.77082475541153
 30
0
  0
SPLINE
  5
1CE
100
AcDbEntity
  8
s001-#def-active-grp
  6
CONTINUOUS
 62
    7
420
    0
370
   25
100
AcDbSpline
210
0
220
0
230
0
 70
    8
 71
    2
 72
    6
 73
    3
 74
    0
 42
1e-07
 43
1e-07
 40
0
 40
0
 40
0
 40
1
 40
1
 40
1
 10
65.19603729592751
 20
-17.77082475541153
 30
0
 10
65.1949188147683
 20
-17.84649424372234
 30
0
 10
65.14523250209282
 20
-17.89166360912838
 30
0
  0
SPLINE
  5
1CF
100
AcDbEntity
  8
s001-#def-active-grp
  6
CONTINUOUS
 62
    7
420
    0
370
   25
100
AcDbSpline
210
0
220
0
230
0
 70
    8
 71
    2
 72
    6
 73
    3
 74
    0
 42
1e-07
 43
1e-07
 40
0
 40
0
 40
0
 40
1
 40
1
 40
1
 10
65.14523250209282
 20
-17.89166360912838
 30
0
 10
65.10232155667731
 20
-17.93457454113283
 30
0
 10
65.04471983062217
 20
-17.93457454113283
 30
0
  0
SPLINE
  5
1D0
100
AcDbEntity
  8
s001-#def-active-grp
  6
CONTINUOUS
 62
    7
420
    0
370
   25
100
AcDbSpline
210
0
220
0
230
0
 70
    8
 71
    2
 72
    6
 73
    3
 74
    0
 42
1e-07
 43
1e-07
 40
0
 40
0
 40
0
 40
1
 40
1
 40
1
 10
65.21410508500526
 20
-17.06166542885818
 30
0
 10
65.39818101273963
 20
-17.05940700886764
 30
0
 10
65.42470194446037
 20
-17.06392384884872
 30
0
  0
SPLINE
  5
1D1
100
AcDbEntity
  8
s001-#def-active-grp
  6
CONTINUOUS
 62
    7
420
    0
370
   25
100
AcDbSpline
210
0
220
0
230
0
 70
    8
 71
    2
 72
    6
 73
    3
 74
    0
 42
1e-07
 43
1e-07
 40
0
 40
0
 40
0
 40
1
 40
1
 40
1
 10
65.42470194446037
 20
-17.06392384884872
 30
0
 10
65.45124433385323
 20
-17.06844079611816
 30
0
 10
65.46197746144722
 20
-17.0836908709816
 30
0
  0
SPLINE
  5
1D2
100
AcDbEntity
  8
s001-#def-active-grp
  6
CONTINUOUS
 62
    7
420
    0
370
   25
100
AcDbSpline
210
0
220
0
230
0
 70
    8
 71
    2
 72
    6
 73
    3
 74
    0
 42
1e-07
 43
1e-07
 40
0
 40
0
 40
0
 40
1
 40
1
 40
1
 10
65.46197746144722
 20
-17.0836908709816
 30
0
 10
65.47271048175284
 20
-17.09894094584503
 30
0
 10
65.47271048175284
 20
-17.13337718365707
 30
0
  0
SPLINE
  5
1D3
100
AcDbEntity
  8
s001-#def-active-grp
  6
CONTINUOUS
 62
    7
420
    0
370
   25
100
AcDbSpline
210
0
220
0
230
0
 70
    8
 71
    2
 72
    6
 73
    3
 74
    0
 42
1e-07
 43
1e-07
 40
0
 40
0
 40
0
 40
1
 40
1
 40
1
 10
65.47271048175284
 20
-17.13337718365707
 30
0
 10
65.47271048175284
 20
-17.16781352875748
 30
0
 10
65.46083741532752
 20
-17.18136426327743
 30
0
  0
SPLINE
  5
1D4
100
AcDbEntity
  8
s001-#def-active-grp
  6
CONTINUOUS
 62
    7
420
    0
370
   25
100
AcDbSpline
210
0
220
0
230
0
 70
    8
 71
    2
 72
    6
 73
    3
 74
    0
 42
1e-07
 43
1e-07
 40
0
 40
0
 40
0
 40
1
 40
1
 40
1
 10
65.46083741532752
 20
-17.18136426327743
 30
0
 10
65.44898580657431
 20
-17.19491510508576
 30
0
 10
65.43091812478491
 20
-17.19887275813141
 30
0
  0
SPLINE
  5
1D5
100
AcDbEntity
  8
s001-#def-active-grp
  6
CONTINUOUS
 62
    7
420
    0
370
   25
100
AcDbSpline
210
0
220
0
230
0
 70
    8
 71
    2
 72
    6
 73
    3
 74
    0
 42
1e-07
 43
1e-07
 40
0
 40
0
 40
0
 40
1
 40
1
 40
1
 10
65.43091812478491
 20
-17.19887275813141
 30
0
 10
65.41285033570716
 20
-17.20283051846542
 30
0
 10
65.36146478997657
 20
-17.20283051846542
 30
0
  0
SPLINE
  5
1D6
100
AcDbEntity
  8
s001-#def-active-grp
  6
CONTINUOUS
 62
    7
420
    0
370
   25
100
AcDbSpline
210
0
220
0
230
0
 70
    8
 71
    2
 72
    6
 73
    3
 74
    0
 42
1e-07
 43
1e-07
 40
0
 40
0
 40
0
 40
1
 40
1
 40
1
 10
65.36146478997657
 20
-17.20283051846542
 30
0
 10
65.31010070191809
 20
-17.20283051846542
 30
0
 10
65.1723340784211
 20
-17.20169047234573
 30
0
  0
SPLINE
  5
1D7
100
AcDbEntity
  8
s001-#def-active-grp
  6
CONTINUOUS
 62
    7
420
    0
370
   25
100
AcDbSpline
210
0
220
0
230
0
 70
    8
 71
    2
 72
    6
 73
    3
 74
    0
 42
1e-07
 43
1e-07
 40
0
 40
0
 40
0
 40
1
 40
1
 40
1
 10
64.66078006373831
 20
-17.19831357119598
 30
0
 10
64.63255995260664
 20
-17.1892796766571
 30
0
 10
64.62294535981604
 20
-17.16839428065338
 30
0
  0
SPLINE
  5
1D8
100
AcDbEntity
  8
s001-#def-active-grp
  6
CONTINUOUS
 62
    7
420
    0
370
   25
100
AcDbSpline
210
0
220
0
230
0
 70
    8
 71
    2
 72
    6
 73
    3
 74
    0
 42
1e-07
 43
1e-07
 40
0
 40
0
 40
0
 40
1
 40
1
 40
1
 10
64.62294535981604
 20
-17.16839428065338
 30
0
 10
64.61335222469756
 20
-17.14748721240082
 30
0
 10
64.61335222469756
 20
-17.12548333523788
 30
0
  0
SPLINE
  5
1D9
100
AcDbEntity
  8
s001-#def-active-grp
  6
CONTINUOUS
 62
    7
420
    0
370
   25
100
AcDbSpline
210
0
220
0
230
0
 70
    8
 71
    2
 72
    6
 73
    3
 74
    0
 42
1e-07
 43
1e-07
 40
0
 40
0
 40
0
 40
1
 40
1
 40
1
 10
64.61335222469756
 20
-17.12548333523788
 30
0
 10
64.61335222469756
 20
-17.10345789311447
 30
0
 10
64.62294535981604
 20
-17.0859493982605
 30
0
  0
SPLINE
  5
1DA
100
AcDbEntity
  8
s001-#def-active-grp
  6
CONTINUOUS
 62
    7
420
    0
370
   25
100
AcDbSpline
210
0
220
0
230
0
 70
    8
 71
    2
 72
    6
 73
    3
 74
    0
 42
1e-07
 43
1e-07
 40
0
 40
0
 40
0
 40
1
 40
1
 40
1
 10
64.62294535981604
 20
-17.0859493982605
 30
0
 10
64.63255995260664
 20
-17.06844079611816
 30
0
 10
64.6596615825791
 20
-17.05828852770843
 30
0
  0
SPLINE
  5
1DB
100
AcDbEntity
  8
s001-#def-active-grp
  6
CONTINUOUS
 62
    7
420
    0
370
   25
100
AcDbSpline
210
0
220
0
230
0
 70
    8
 71
    2
 72
    6
 73
    3
 74
    0
 42
1e-07
 43
1e-07
 40
0
 40
0
 40
0
 40
1
 40
1
 40
1
 10
65.33832086669395
 20
-16.56480219481506
 30
0
 10
65.66805737363288
 20
-16.56254377482452
 30
0
 10
65.71604445325323
 20
-16.56706072209396
 30
0
  0
SPLINE
  5
1DC
100
AcDbEntity
  8
s001-#def-active-grp
  6
CONTINUOUS
 62
    7
420
    0
370
   25
100
AcDbSpline
210
0
220
0
230
0
 70
    8
 71
    2
 72
    6
 73
    3
 74
    0
 42
1e-07
 43
1e-07
 40
0
 40
0
 40
0
 40
1
 40
1
 40
1
 10
65.71604445325323
 20
-16.56706072209396
 30
0
 10
65.76405309783408
 20
-16.57157756207504
 30
0
 10
65.78323926078269
 20
-16.58682763693848
 30
0
  0
SPLINE
  5
1DD
100
AcDbEntity
  8
s001-#def-active-grp
  6
CONTINUOUS
 62
    7
420
    0
370
   25
100
AcDbSpline
210
0
220
0
230
0
 70
    8
 71
    2
 72
    6
 73
    3
 74
    0
 42
1e-07
 43
1e-07
 40
0
 40
0
 40
0
 40
1
 40
1
 40
1
 10
65.78323926078269
 20
-16.58682763693848
 30
0
 10
65.80244698869177
 20
-16.60207771180191
 30
0
 10
65.80186623679589
 20
-16.63651394961395
 30
0
  0
SPLINE
  5
1DE
100
AcDbEntity
  8
s001-#def-active-grp
  6
CONTINUOUS
 62
    7
420
    0
370
   25
100
AcDbSpline
210
0
220
0
230
0
 70
    8
 71
    2
 72
    6
 73
    3
 74
    0
 42
1e-07
 43
1e-07
 40
0
 40
0
 40
0
 40
1
 40
1
 40
1
 10
65.80186623679589
 20
-16.63651394961395
 30
0
 10
65.80130704986044
 20
-16.67095029471436
 30
0
 10
65.78042154656836
 20
-16.68450102923431
 30
0
  0
SPLINE
  5
1DF
100
AcDbEntity
  8
s001-#def-active-grp
  6
CONTINUOUS
 62
    7
420
    0
370
   25
100
AcDbSpline
210
0
220
0
230
0
 70
    8
 71
    2
 72
    6
 73
    3
 74
    0
 42
1e-07
 43
1e-07
 40
0
 40
0
 40
0
 40
1
 40
1
 40
1
 10
65.78042154656836
 20
-16.68450102923431
 30
0
 10
65.75953615056466
 20
-16.69805187104263
 30
0
 10
65.72677758084723
 20
-16.70200963137665
 30
0
  0
SPLINE
  5
1E0
100
AcDbEntity
  8
s001-#def-active-grp
  6
CONTINUOUS
 62
    7
420
    0
370
   25
100
AcDbSpline
210
0
220
0
230
0
 70
    8
 71
    2
 72
    6
 73
    3
 74
    0
 42
1e-07
 43
1e-07
 40
0
 40
0
 40
0
 40
1
 40
1
 40
1
 10
65.72677758084723
 20
-16.70200963137665
 30
0
 10
65.69404046880194
 20
-16.7059672844223
 30
0
 10
65.60200250493477
 20
-16.7059672844223
 30
0
  0
SPLINE
  5
1E1
100
AcDbEntity
  8
s001-#def-active-grp
  6
CONTINUOUS
 62
    7
420
    0
370
   25
100
AcDbSpline
210
0
220
0
230
0
 70
    8
 71
    2
 72
    6
 73
    3
 74
    0
 42
1e-07
 43
1e-07
 40
0
 40
0
 40
0
 40
1
 40
1
 40
1
 10
65.60200250493477
 20
-16.7059672844223
 30
0
 10
65.50996454106757
 20
-16.7059672844223
 30
0
 10
65.26379139768073
 20
-16.70482734559097
 30
0
  0
SPLINE
  5
1E2
100
AcDbEntity
  8
s001-#def-active-grp
  6
CONTINUOUS
 62
    7
420
    0
370
   25
100
AcDbSpline
210
0
220
0
230
0
 70
    8
 71
    2
 72
    6
 73
    3
 74
    0
 42
1e-07
 43
1e-07
 40
0
 40
0
 40
0
 40
1
 40
1
 40
1
 10
64.34799285130688
 20
-16.70145033715286
 30
0
 10
64.29716653274485
 20
-16.69241644261398
 30
0
 10
64.28021726505943
 20
-16.67153104661026
 30
0
  0
SPLINE
  5
1E3
100
AcDbEntity
  8
s001-#def-active-grp
  6
CONTINUOUS
 62
    7
420
    0
370
   25
100
AcDbSpline
210
0
220
0
230
0
 70
    8
 71
    2
 72
    6
 73
    3
 74
    0
 42
1e-07
 43
1e-07
 40
0
 40
0
 40
0
 40
1
 40
1
 40
1
 10
64.28021726505943
 20
-16.67153104661026
 30
0
 10
64.26328949527928
 20
-16.6506239783577
 30
0
 10
64.26384873585889
 20
-16.62862010119476
 30
0
  0
SPLINE
  5
1E4
100
AcDbEntity
  8
s001-#def-active-grp
  6
CONTINUOUS
 62
    7
420
    0
370
   25
100
AcDbSpline
210
0
220
0
230
0
 70
    8
 71
    2
 72
    6
 73
    3
 74
    0
 42
1e-07
 43
1e-07
 40
0
 40
0
 40
0
 40
1
 40
1
 40
1
 10
64.26384873585889
 20
-16.62862010119476
 30
0
 10
64.2644294877548
 20
-16.60659465907135
 30
0
 10
64.28079801695534
 20
-16.58908616421738
 30
0
  0
SPLINE
  5
1E5
100
AcDbEntity
  8
s001-#def-active-grp
  6
CONTINUOUS
 62
    7
420
    0
370
   25
100
AcDbSpline
210
0
220
0
230
0
 70
    8
 71
    2
 72
    6
 73
    3
 74
    0
 42
1e-07
 43
1e-07
 40
0
 40
0
 40
0
 40
1
 40
1
 40
1
 10
64.28079801695534
 20
-16.58908616421738
 30
0
 10
64.29716653274485
 20
-16.57157756207504
 30
0
 10
64.34685285883137
 20
-16.56142529366531
 30
0
  0
SPLINE
  5
1E6
100
AcDbEntity
  8
s001-#def-active-grp
  6
CONTINUOUS
 62
    7
420
    0
370
   25
100
AcDbSpline
210
0
220
0
230
0
 70
    8
 71
    2
 72
    6
 73
    3
 74
    0
 42
1e-07
 43
1e-07
 40
0
 40
0
 40
0
 40
1
 40
1
 40
1
 10
64.30830951924744
 20
-22.24460141776123
 30
0
 10
64.30830951924744
 20
-22.15540262578049
 30
0
 10
64.37492361511411
 20
-22.08820781825104
 30
0
  0
SPLINE
  5
1E7
100
AcDbEntity
  8
s001-#def-active-grp
  6
CONTINUOUS
 62
    7
420
    0
370
   25
100
AcDbSpline
210
0
220
0
230
0
 70
    8
 71
    2
 72
    6
 73
    3
 74
    0
 42
1e-07
 43
1e-07
 40
0
 40
0
 40
0
 40
1
 40
1
 40
1
 10
64.37492361511411
 20
-22.08820781825104
 30
0
 10
64.44155920888605
 20
-22.02101301072159
 30
0
 10
64.5285210117263
 20
-22.02101301072159
 30
0
  0
SPLINE
  5
1E8
100
AcDbEntity
  8
s001-#def-active-grp
  6
CONTINUOUS
 62
    7
420
    0
370
   25
100
AcDbSpline
210
0
220
0
230
0
 70
    8
 71
    2
 72
    6
 73
    3
 74
    0
 42
1e-07
 43
1e-07
 40
0
 40
0
 40
0
 40
1
 40
1
 40
1
 10
64.5285210117263
 20
-22.02101301072159
 30
0
 10
64.61434284891311
 20
-22.02101301072159
 30
0
 10
64.67362229670707
 20
-22.08425016520538
 30
0
  0
SPLINE
  5
1E9
100
AcDbEntity
  8
s001-#def-active-grp
  6
CONTINUOUS
 62
    7
420
    0
370
   25
100
AcDbSpline
210
0
220
0
230
0
 70
    8
 71
    2
 72
    6
 73
    3
 74
    0
 42
1e-07
 43
1e-07
 40
0
 40
0
 40
0
 40
1
 40
1
 40
1
 10
64.67362229670707
 20
-22.08425016520538
 30
0
 10
64.73290174450102
 20
-22.14748721240082
 30
0
 10
64.73290174450102
 20
-22.24348293660202
 30
0
  0
SPLINE
  5
1EA
100
AcDbEntity
  8
s001-#def-active-grp
  6
CONTINUOUS
 62
    7
420
    0
370
   25
100
AcDbSpline
210
0
220
0
230
0
 70
    8
 71
    2
 72
    6
 73
    3
 74
    0
 42
1e-07
 43
1e-07
 40
0
 40
0
 40
0
 40
1
 40
1
 40
1
 10
64.73290174450102
 20
-22.24348293660202
 30
0
 10
64.73290174450102
 20
-22.33833866832771
 30
0
 10
64.67078307117643
 20
-22.40383429644623
 30
0
  0
SPLINE
  5
1EB
100
AcDbEntity
  8
s001-#def-active-grp
  6
CONTINUOUS
 62
    7
420
    0
370
   25
100
AcDbSpline
210
0
220
0
230
0
 70
    8
 71
    2
 72
    6
 73
    3
 74
    0
 42
1e-07
 43
1e-07
 40
0
 40
0
 40
0
 40
1
 40
1
 40
1
 10
64.67078307117643
 20
-22.40383429644623
 30
0
 10
64.60868590916814
 20
-22.46932987092056
 30
0
 10
64.52060562516871
 20
-22.46932987092056
 30
0
  0
SPLINE
  5
1EC
100
AcDbEntity
  8
s001-#def-active-grp
  6
CONTINUOUS
 62
    7
420
    0
370
   25
100
AcDbSpline
210
0
220
0
230
0
 70
    8
 71
    2
 72
    6
 73
    3
 74
    0
 42
1e-07
 43
1e-07
 40
0
 40
0
 40
0
 40
1
 40
1
 40
1
 10
64.52060562516871
 20
-22.46932987092056
 30
0
 10
64.4347837879819
 20
-22.46932987092056
 30
0
 10
64.37154666032018
 20
-22.40327505586662
 30
0
  0
SPLINE
  5
1ED
100
AcDbEntity
  8
s001-#def-active-grp
  6
CONTINUOUS
 62
    7
420
    0
370
   25
100
AcDbSpline
210
0
220
0
230
0
 70
    8
 71
    2
 72
    6
 73
    3
 74
    0
 42
1e-07
 43
1e-07
 40
0
 40
0
 40
0
 40
1
 40
1
 40
1
 10
64.37154666032018
 20
-22.40327505586662
 30
0
 10
64.30830951924744
 20
-22.3371986758522
 30
0
 10
64.30830951924744
 20
-22.24460141776123
 30
0
  0
SPLINE
  5
1EE
100
AcDbEntity
  8
s001-#def-active-grp
  6
CONTINUOUS
 62
    7
420
    0
370
   25
100
AcDbSpline
210
0
220
0
230
0
 70
    8
 71
    2
 72
    6
 73
    3
 74
    0
 42
1e-07
 43
1e-07
 40
0
 40
0
 40
0
 40
1
 40
1
 40
1
 10
65.25123112644377
 20
-22.34171562312164
 30
0
 10
65.38108244384946
 20
-22.59240571377792
 30
0
 10
65.87456866945448
 20
-22.37221571920433
 30
0
  0
SPLINE
  5
1EF
100
AcDbEntity
  8
s001-#def-active-grp
  6
CONTINUOUS
 62
    7
420
    0
370
   25
100
AcDbSpline
210
0
220
0
230
0
 70
    8
 71
    2
 72
    6
 73
    3
 74
    0
 42
1e-07
 43
1e-07
 40
0
 40
0
 40
0
 40
1
 40
1
 40
1
 10
65.87456866945448
 20
-22.37221571920433
 30
0
 10
66.34433032716933
 20
-22.10571631310501
 30
0
 10
66.76214703764143
 20
-22.43319434640922
 30
0
  0
SPLINE
  5
1F0
100
AcDbEntity
  8
s001-#def-active-grp
  6
CONTINUOUS
 62
    7
420
    0
370
   25
100
AcDbSpline
210
0
220
0
230
0
 70
    8
 71
    2
 72
    6
 73
    3
 74
    0
 42
1e-07
 43
1e-07
 40
0
 40
0
 40
0
 40
1
 40
1
 40
1
 10
66.76214703764143
 20
-22.43319434640922
 30
0
 10
66.8976552411479
 20
-22.65564281461754
 30
0
 10
66.69665157045546
 20
-22.63531660554924
 30
0
  0
SPLINE
  5
1F1
100
AcDbEntity
  8
s001-#def-active-grp
  6
CONTINUOUS
 62
    7
420
    0
370
   25
100
AcDbSpline
210
0
220
0
230
0
 70
    8
 71
    2
 72
    6
 73
    3
 74
    0
 42
1e-07
 43
1e-07
 40
0
 40
0
 40
0
 40
1
 40
1
 40
1
 10
66.69665157045546
 20
-22.63531660554924
 30
0
 10
66.29124554838361
 20
-22.26606767294922
 30
0
 10
65.84972551311674
 20
-22.63531660554924
 30
0
  0
SPLINE
  5
1F2
100
AcDbEntity
  8
s001-#def-active-grp
  6
CONTINUOUS
 62
    7
420
    0
370
   25
100
AcDbSpline
210
0
220
0
230
0
 70
    8
 71
    2
 72
    6
 73
    3
 74
    0
 42
1e-07
 43
1e-07
 40
0
 40
0
 40
0
 40
1
 40
1
 40
1
 10
65.84972551311674
 20
-22.63531660554924
 30
0
 10
65.22976497854415
 20
-22.76630783496418
 30
0
 10
65.07055366481961
 20
-22.36430030582466
 30
0
  0
SPLINE
  5
1F3
100
AcDbEntity
  8
s001-#def-active-grp
  6
CONTINUOUS
 62
    7
420
    0
370
   25
100
AcDbSpline
210
0
220
0
230
0
 70
    8
 71
    2
 72
    6
 73
    3
 74
    0
 42
1e-07
 43
1e-07
 40
0
 40
0
 40
0
 40
1
 40
1
 40
1
 10
65.07055366481961
 20
-22.36430030582466
 30
0
 10
65.08296446050826
 20
-22.25929225204506
 30
0
 10
65.25123112644377
 20
-22.34171562312164
 30
0
  0
SPLINE
  5
1F4
100
AcDbEntity
  8
s001-#def-active-grp
  6
CONTINUOUS
 62
    7
420
    0
370
   25
100
AcDbSpline
210
0
220
0
230
0
 70
    8
 71
    2
 72
    6
 73
    3
 74
    0
 42
1e-07
 43
1e-07
 40
0
 40
0
 40
0
 40
1
 40
1
 40
1
 10
65.74695442165557
 20
-21.70145033715286
 30
0
 10
65.74695442165557
 20
-21.62466234086075
 30
0
 10
65.80453458275022
 20
-21.56650142787018
 30
0
  0
SPLINE
  5
1F5
100
AcDbEntity
  8
s001-#def-active-grp
  6
CONTINUOUS
 62
    7
420
    0
370
   25
100
AcDbSpline
210
0
220
0
230
0
 70
    8
 71
    2
 72
    6
 73
    3
 74
    0
 42
1e-07
 43
1e-07
 40
0
 40
0
 40
0
 40
1
 40
1
 40
1
 10
65.80453458275022
 20
-21.56650142787018
 30
0
 10
65.86213630880536
 20
-21.50834051487961
 30
0
 10
65.93780582393828
 20
-21.50834051487961
 30
0
  0
SPLINE
  5
1F6
100
AcDbEntity
  8
s001-#def-active-grp
  6
CONTINUOUS
 62
    7
420
    0
370
   25
100
AcDbSpline
210
0
220
0
230
0
 70
    8
 71
    2
 72
    6
 73
    3
 74
    0
 42
1e-07
 43
1e-07
 40
0
 40
0
 40
0
 40
1
 40
1
 40
1
 10
65.93780582393828
 20
-21.50834051487961
 30
0
 10
66.01119524683179
 20
-21.50834051487961
 30
0
 10
66.06258079256239
 20
-21.56312452672043
 30
0
  0
SPLINE
  5
1F7
100
AcDbEntity
  8
s001-#def-active-grp
  6
CONTINUOUS
 62
    7
420
    0
370
   25
100
AcDbSpline
210
0
220
0
230
0
 70
    8
 71
    2
 72
    6
 73
    3
 74
    0
 42
1e-07
 43
1e-07
 40
0
 40
0
 40
0
 40
1
 40
1
 40
1
 10
66.06258079256239
 20
-21.56312452672043
 30
0
 10
66.11396633829298
 20
-21.61788697360077
 30
0
 10
66.11396633829298
 20
-21.70031039832153
 30
0
  0
SPLINE
  5
1F8
100
AcDbEntity
  8
s001-#def-active-grp
  6
CONTINUOUS
 62
    7
420
    0
370
   25
100
AcDbSpline
210
0
220
0
230
0
 70
    8
 71
    2
 72
    6
 73
    3
 74
    0
 42
1e-07
 43
1e-07
 40
0
 40
0
 40
0
 40
1
 40
1
 40
1
 10
66.11396633829298
 20
-21.70031039832153
 30
0
 10
66.11396633829298
 20
-21.78275528071442
 30
0
 10
66.06032237257185
 20
-21.83921696064987
 30
0
  0
SPLINE
  5
1F9
100
AcDbEntity
  8
s001-#def-active-grp
  6
CONTINUOUS
 62
    7
420
    0
370
   25
100
AcDbSpline
210
0
220
0
230
0
 70
    8
 71
    2
 72
    6
 73
    3
 74
    0
 42
1e-07
 43
1e-07
 40
0
 40
0
 40
0
 40
1
 40
1
 40
1
 10
66.06032237257185
 20
-21.83921696064987
 30
0
 10
66.00667840685071
 20
-21.89567874787369
 30
0
 10
65.92989041055861
 20
-21.89567874787369
 30
0
  0
SPLINE
  5
1FA
100
AcDbEntity
  8
s001-#def-active-grp
  6
CONTINUOUS
 62
    7
420
    0
370
   25
100
AcDbSpline
210
0
220
0
230
0
 70
    8
 71
    2
 72
    6
 73
    3
 74
    0
 42
1e-07
 43
1e-07
 40
0
 40
0
 40
0
 40
1
 40
1
 40
1
 10
65.92989041055861
 20
-21.89567874787369
 30
0
 10
65.85650088037673
 20
-21.89567874787369
 30
0
 10
65.80171686853589
 20
-21.83865777371444
 30
0
  0
SPLINE
  5
1FB
100
AcDbEntity
  8
s001-#def-active-grp
  6
CONTINUOUS
 62
    7
420
    0
370
   25
100
AcDbSpline
210
0
220
0
230
0
 70
    8
 71
    2
 72
    6
 73
    3
 74
    0
 42
1e-07
 43
1e-07
 40
0
 40
0
 40
0
 40
1
 40
1
 40
1
 10
65.80171686853589
 20
-21.83865777371444
 30
0
 10
65.74695442165557
 20
-21.78161523459472
 30
0
 10
65.74695442165557
 20
-21.70145033715286
 30
0
  0
SPLINE
  5
1FC
100
AcDbEntity
  8
s001-#def-active-grp
  6
CONTINUOUS
 62
    7
420
    0
370
   25
100
AcDbSpline
210
0
220
0
230
0
 70
    8
 71
    2
 72
    6
 73
    3
 74
    0
 42
1e-07
 43
1e-07
 40
0
 40
0
 40
0
 40
1
 40
1
 40
1
 10
64.68947012687704
 20
-27.78551556287327
 30
0
 10
64.63188991213821
 20
-27.88940516231575
 30
0
 10
64.59743213618776
 20
-27.92384142694988
 30
0
  0
SPLINE
  5
1FD
100
AcDbEntity
  8
s001-#def-active-grp
  6
CONTINUOUS
 62
    7
420
    0
370
   25
100
AcDbSpline
210
0
220
0
230
0
 70
    8
 71
    2
 72
    6
 73
    3
 74
    0
 42
1e-07
 43
1e-07
 40
0
 40
0
 40
0
 40
1
 40
1
 40
1
 10
64.59743213618776
 20
-27.92384142694988
 30
0
 10
64.56299584473155
 20
-27.95827770499506
 30
0
 10
64.53701269591829
 20
-27.95941769747057
 30
0
  0
SPLINE
  5
1FE
100
AcDbEntity
  8
s001-#def-active-grp
  6
CONTINUOUS
 62
    7
420
    0
370
   25
100
AcDbSpline
210
0
220
0
230
0
 70
    8
 71
    2
 72
    6
 73
    3
 74
    0
 42
1e-07
 43
1e-07
 40
0
 40
0
 40
0
 40
1
 40
1
 40
1
 10
64.53701269591829
 20
-27.95941769747057
 30
0
 10
64.51105105842134
 20
-27.96053617862978
 30
0
 10
64.4895848434665
 20
-27.94530764190473
 30
0
  0
SPLINE
  5
1FF
100
AcDbEntity
  8
s001-#def-active-grp
  6
CONTINUOUS
 62
    7
420
    0
370
   25
100
AcDbSpline
210
0
220
0
230
0
 70
    8
 71
    2
 72
    6
 73
    3
 74
    0
 42
1e-07
 43
1e-07
 40
0
 40
0
 40
0
 40
1
 40
1
 40
1
 10
64.4895848434665
 20
-27.94530764190473
 30
0
 10
64.46814013982794
 20
-27.93005760727443
 30
0
 10
64.46474168712876
 20
-27.90691365716972
 30
0
  0
SPLINE
  5
200
100
AcDbEntity
  8
s001-#def-active-grp
  6
CONTINUOUS
 62
    7
420
    0
370
   25
100
AcDbSpline
210
0
220
0
230
0
 70
    8
 71
    2
 72
    6
 73
    3
 74
    0
 42
1e-07
 43
1e-07
 40
0
 40
0
 40
0
 40
1
 40
1
 40
1
 10
64.46474168712876
 20
-27.90691365716972
 30
0
 10
64.46136473233483
 20
-27.8837482225708
 30
0
 10
64.47095785404227
 20
-27.85101116416969
 30
0
  0
SPLINE
  5
201
100
AcDbEntity
  8
s001-#def-active-grp
  6
CONTINUOUS
 62
    7
420
    0
370
   25
100
AcDbSpline
210
0
220
0
230
0
 70
    8
 71
    2
 72
    6
 73
    3
 74
    0
 42
1e-07
 43
1e-07
 40
0
 40
0
 40
0
 40
1
 40
1
 40
1
 10
64.47095785404227
 20
-27.85101116416969
 30
0
 10
64.48057247365497
 20
-27.81825262127438
 30
0
 10
64.54155114109301
 20
-27.71098609386005
 30
0
  0
SPLINE
  5
202
100
AcDbEntity
  8
s001-#def-active-grp
  6
CONTINUOUS
 62
    7
420
    0
370
   25
100
AcDbSpline
210
0
220
0
230
0
 70
    8
 71
    2
 72
    6
 73
    3
 74
    0
 42
1e-07
 43
1e-07
 40
0
 40
0
 40
0
 40
1
 40
1
 40
1
 10
65.30039679373286
 20
-26.33669673321762
 30
0
 10
65.3658923682072
 20
-26.33669673321762
 30
0
 10
65.4110618409016
 20
-26.38696390507736
 30
0
  0
SPLINE
  5
203
100
AcDbEntity
  8
s001-#def-active-grp
  6
CONTINUOUS
 62
    7
420
    0
370
   25
100
AcDbSpline
210
0
220
0
230
0
 70
    8
 71
    2
 72
    6
 73
    3
 74
    0
 42
1e-07
 43
1e-07
 40
0
 40
0
 40
0
 40
1
 40
1
 40
1
 10
65.4110618409016
 20
-26.38696390507736
 30
0
 10
65.45623120630762
 20
-26.43720940468826
 30
0
 10
65.45623120630762
 20
-26.51173898098984
 30
0
  0
SPLINE
  5
204
100
AcDbEntity
  8
s001-#def-active-grp
  6
CONTINUOUS
 62
    7
420
    0
370
   25
100
AcDbSpline
210
0
220
0
230
0
 70
    8
 71
    2
 72
    6
 73
    3
 74
    0
 42
1e-07
 43
1e-07
 40
0
 40
0
 40
0
 40
1
 40
1
 40
1
 10
65.45623120630762
 20
-26.51173898098984
 30
0
 10
65.45623120630762
 20
-26.58738693116226
 30
0
 10
65.4110618409016
 20
-26.63707324383774
 30
0
  0
SPLINE
  5
205
100
AcDbEntity
  8
s001-#def-active-grp
  6
CONTINUOUS
 62
    7
420
    0
370
   25
100
AcDbSpline
210
0
220
0
230
0
 70
    8
 71
    2
 72
    6
 73
    3
 74
    0
 42
1e-07
 43
1e-07
 40
0
 40
0
 40
0
 40
1
 40
1
 40
1
 10
65.4110618409016
 20
-26.63707324383774
 30
0
 10
65.3658923682072
 20
-26.68675955651321
 30
0
 10
65.29813837374232
 20
-26.68675955651321
 30
0
  0
SPLINE
  5
206
100
AcDbEntity
  8
s001-#def-active-grp
  6
CONTINUOUS
 62
    7
420
    0
370
   25
100
AcDbSpline
210
0
220
0
230
0
 70
    8
 71
    2
 72
    6
 73
    3
 74
    0
 42
1e-07
 43
1e-07
 40
0
 40
0
 40
0
 40
1
 40
1
 40
1
 10
65.29813837374232
 20
-26.68675955651321
 30
0
 10
65.23150275314831
 20
-26.68675955651321
 30
0
 10
65.1868925746777
 20
-26.63765399573364
 30
0
  0
SPLINE
  5
207
100
AcDbEntity
  8
s001-#def-active-grp
  6
CONTINUOUS
 62
    7
420
    0
370
   25
100
AcDbSpline
210
0
220
0
230
0
 70
    8
 71
    2
 72
    6
 73
    3
 74
    0
 42
1e-07
 43
1e-07
 40
0
 40
0
 40
0
 40
1
 40
1
 40
1
 10
65.1868925746777
 20
-26.63765399573364
 30
0
 10
65.14230396116756
 20
-26.58852686999359
 30
0
 10
65.14230396116756
 20
-26.51173898098984
 30
0
  0
SPLINE
  5
208
100
AcDbEntity
  8
s001-#def-active-grp
  6
CONTINUOUS
 62
    7
420
    0
370
   25
100
AcDbSpline
210
0
220
0
230
0
 70
    8
 71
    2
 72
    6
 73
    3
 74
    0
 42
1e-07
 43
1e-07
 40
0
 40
0
 40
0
 40
1
 40
1
 40
1
 10
65.14230396116756
 20
-26.51173898098984
 30
0
 10
65.14230396116756
 20
-26.43155251858749
 30
0
 10
65.19424874747776
 20
-26.38300614474335
 30
0
  0
SPLINE
  5
209
100
AcDbEntity
  8
s001-#def-active-grp
  6
CONTINUOUS
 62
    7
420
    0
370
   25
100
AcDbSpline
210
0
220
0
230
0
 70
    8
 71
    2
 72
    6
 73
    3
 74
    0
 42
1e-07
 43
1e-07
 40
0
 40
0
 40
0
 40
1
 40
1
 40
1
 10
65.19424874747776
 20
-26.38300614474335
 30
0
 10
65.24053659404299
 20
-26.33669673321762
 30
0
 10
65.30039679373286
 20
-26.33669673321762
 30
0
  0
SPLINE
  5
20A
100
AcDbEntity
  8
s001-#def-active-grp
  6
CONTINUOUS
 62
    7
420
    0
370
   25
100
AcDbSpline
210
0
220
0
230
0
 70
    8
 71
    2
 72
    6
 73
    3
 74
    0
 42
1e-07
 43
1e-07
 40
0
 40
0
 40
0
 40
1
 40
1
 40
1
 10
66.06827632750057
 20
-27.77985864995041
 30
0
 10
66.11118727291606
 20
-27.84649424372234
 30
0
 10
66.11852193439984
 20
-27.87247739253559
 30
0
  0
SPLINE
  5
20B
100
AcDbEntity
  8
s001-#def-active-grp
  6
CONTINUOUS
 62
    7
420
    0
370
   25
100
AcDbSpline
210
0
220
0
230
0
 70
    8
 71
    2
 72
    6
 73
    3
 74
    0
 42
1e-07
 43
1e-07
 40
0
 40
0
 40
0
 40
1
 40
1
 40
1
 10
66.11852193439984
 20
-27.87247739253559
 30
0
 10
66.12585659588359
 20
-27.89843903003254
 30
0
 10
66.1252973016598
 20
-27.92046447215595
 30
0
  0
SPLINE
  5
20C
100
AcDbEntity
  8
s001-#def-active-grp
  6
CONTINUOUS
 62
    7
420
    0
370
   25
100
AcDbSpline
210
0
220
0
230
0
 70
    8
 71
    2
 72
    6
 73
    3
 74
    0
 42
1e-07
 43
1e-07
 40
0
 40
0
 40
0
 40
1
 40
1
 40
1
 10
66.1252973016598
 20
-27.92046447215595
 30
0
 10
66.12473811472438
 20
-27.94246842978516
 30
0
 10
66.10157262648127
 20
-27.95885845689097
 30
0
  0
SPLINE
  5
20D
100
AcDbEntity
  8
s001-#def-active-grp
  6
CONTINUOUS
 62
    7
420
    0
370
   25
100
AcDbSpline
210
0
220
0
230
0
 70
    8
 71
    2
 72
    6
 73
    3
 74
    0
 42
1e-07
 43
1e-07
 40
0
 40
0
 40
0
 40
1
 40
1
 40
1
 10
66.10157262648127
 20
-27.95885845689097
 30
0
 10
66.07842870319865
 20
-27.97522698609152
 30
0
 10
66.04736936653637
 20
-27.9684515785984
 30
0
  0
SPLINE
  5
20E
100
AcDbEntity
  8
s001-#def-active-grp
  6
CONTINUOUS
 62
    7
420
    0
370
   25
100
AcDbSpline
210
0
220
0
230
0
 70
    8
 71
    2
 72
    6
 73
    3
 74
    0
 42
1e-07
 43
1e-07
 40
0
 40
0
 40
0
 40
1
 40
1
 40
1
 10
66.04736936653637
 20
-27.9684515785984
 30
0
 10
66.01633159483455
 20
-27.96167617110529
 30
0
 10
65.98301373089336
 20
-27.92835837421932
 30
0
  0
SPLINE
  5
20F
100
AcDbEntity
  8
s001-#def-active-grp
  6
CONTINUOUS
 62
    7
420
    0
370
   25
100
AcDbSpline
210
0
220
0
230
0
 70
    8
 71
    2
 72
    6
 73
    3
 74
    0
 42
1e-07
 43
1e-07
 40
0
 40
0
 40
0
 40
1
 40
1
 40
1
 10
65.98301373089336
 20
-27.92835837421932
 30
0
 10
65.94969597424051
 20
-27.89504056392231
 30
0
 10
65.88759875858807
 20
-27.79115099130192
 30
0
  0
SPLINE
  5
210
100
AcDbEntity
  8
s001-#def-active-grp
  6
CONTINUOUS
 62
    7
420
    0
370
   25
100
AcDbSpline
210
0
220
0
230
0
 70
    8
 71
    2
 72
    6
 73
    3
 74
    0
 42
1e-07
 43
1e-07
 40
0
 40
0
 40
0
 40
1
 40
1
 40
1
 10
66.56625814999126
 20
-27.73920620499172
 30
0
 10
66.57077498997234
 20
-28.07008269099512
 30
0
 10
66.56569874847912
 20
-28.11920977314928
 30
0
  0
SPLINE
  5
211
100
AcDbEntity
  8
s001-#def-active-grp
  6
CONTINUOUS
 62
    7
420
    0
370
   25
100
AcDbSpline
210
0
220
0
230
0
 70
    8
 71
    2
 72
    6
 73
    3
 74
    0
 42
1e-07
 43
1e-07
 40
0
 40
0
 40
0
 40
1
 40
1
 40
1
 10
66.56569874847912
 20
-28.11920977314928
 30
0
 10
66.56062272156259
 20
-28.16833685446524
 30
0
 10
66.54649112785839
 20
-28.18640460750082
 30
0
  0
SPLINE
  5
212
100
AcDbEntity
  8
s001-#def-active-grp
  6
CONTINUOUS
 62
    7
420
    0
370
   25
100
AcDbSpline
210
0
220
0
230
0
 70
    8
 71
    2
 72
    6
 73
    3
 74
    0
 42
1e-07
 43
1e-07
 40
0
 40
0
 40
0
 40
1
 40
1
 40
1
 10
66.54649112785839
 20
-28.18640460750082
 30
0
 10
66.53238099182627
 20
-28.20447236305096
 30
0
 10
66.49736400211833
 20
-28.20447236305096
 30
0
  0
SPLINE
  5
213
100
AcDbEntity
  8
s001-#def-active-grp
  6
CONTINUOUS
 62
    7
420
    0
370
   25
100
AcDbSpline
210
0
220
0
230
0
 70
    8
 71
    2
 72
    6
 73
    3
 74
    0
 42
1e-07
 43
1e-07
 40
0
 40
0
 40
0
 40
1
 40
1
 40
1
 10
66.49736400211833
 20
-28.20447236305096
 30
0
 10
66.46236847008251
 20
-28.20447236305096
 30
0
 10
66.44825833405039
 20
-28.18300614977249
 30
0
  0
SPLINE
  5
214
100
AcDbEntity
  8
s001-#def-active-grp
  6
CONTINUOUS
 62
    7
420
    0
370
   25
100
AcDbSpline
210
0
220
0
230
0
 70
    8
 71
    2
 72
    6
 73
    3
 74
    0
 42
1e-07
 43
1e-07
 40
0
 40
0
 40
0
 40
1
 40
1
 40
1
 10
66.44825833405039
 20
-28.18300614977249
 30
0
 10
66.43414841259502
 20
-28.16156144676258
 30
0
 10
66.43019075954936
 20
-28.12938363669434
 30
0
  0
SPLINE
  5
215
100
AcDbEntity
  8
s001-#def-active-grp
  6
CONTINUOUS
 62
    7
420
    0
370
   25
100
AcDbSpline
210
0
220
0
230
0
 70
    8
 71
    2
 72
    6
 73
    3
 74
    0
 42
1e-07
 43
1e-07
 40
0
 40
0
 40
0
 40
1
 40
1
 40
1
 10
66.43019075954936
 20
-28.12938363669434
 30
0
 10
66.42623289192699
 20
-28.09718432096758
 30
0
 10
66.42623289192699
 20
-28.00458707628765
 30
0
  0
SPLINE
  5
216
100
AcDbEntity
  8
s001-#def-active-grp
  6
CONTINUOUS
 62
    7
420
    0
370
   25
100
AcDbSpline
210
0
220
0
230
0
 70
    8
 71
    2
 72
    6
 73
    3
 74
    0
 42
1e-07
 43
1e-07
 40
0
 40
0
 40
0
 40
1
 40
1
 40
1
 10
66.42623289192699
 20
-28.00458707628765
 30
0
 10
66.42623289192699
 20
-27.91198984501877
 30
0
 10
66.42623289192699
 20
-27.66693518279114
 30
0
  0
SPLINE
  5
217
100
AcDbEntity
  8
s001-#def-active-grp
  6
CONTINUOUS
 62
    7
420
    0
370
   25
100
AcDbSpline
210
0
220
0
230
0
 70
    8
 71
    2
 72
    6
 73
    3
 74
    0
 42
1e-07
 43
1e-07
 40
0
 40
0
 40
0
 40
1
 40
1
 40
1
 10
66.49738545979045
 20
-26.35816298840561
 30
0
 10
66.55836408699534
 20
-26.35816298840561
 30
0
 10
66.60183432663462
 20
-26.40447239993134
 30
0
  0
SPLINE
  5
218
100
AcDbEntity
  8
s001-#def-active-grp
  6
CONTINUOUS
 62
    7
420
    0
370
   25
100
AcDbSpline
210
0
220
0
230
0
 70
    8
 71
    2
 72
    6
 73
    3
 74
    0
 42
1e-07
 43
1e-07
 40
0
 40
0
 40
0
 40
1
 40
1
 40
1
 10
66.60183432663462
 20
-26.40447239993134
 30
0
 10
66.64530456627392
 20
-26.45076024649658
 30
0
 10
66.64530456627392
 20
-26.52189124939957
 30
0
  0
SPLINE
  5
219
100
AcDbEntity
  8
s001-#def-active-grp
  6
CONTINUOUS
 62
    7
420
    0
370
   25
100
AcDbSpline
210
0
220
0
230
0
 70
    8
 71
    2
 72
    6
 73
    3
 74
    0
 42
1e-07
 43
1e-07
 40
0
 40
0
 40
0
 40
1
 40
1
 40
1
 10
66.64530456627392
 20
-26.52189124939957
 30
0
 10
66.64530456627392
 20
-26.59078539727249
 30
0
 10
66.60183432663462
 20
-26.63765399573364
 30
0
  0
SPLINE
  5
21A
100
AcDbEntity
  8
s001-#def-active-grp
  6
CONTINUOUS
 62
    7
420
    0
370
   25
100
AcDbSpline
210
0
220
0
230
0
 70
    8
 71
    2
 72
    6
 73
    3
 74
    0
 42
1e-07
 43
1e-07
 40
0
 40
0
 40
0
 40
1
 40
1
 40
1
 10
66.60183432663462
 20
-26.63765399573364
 30
0
 10
66.55836408699534
 20
-26.68450102923431
 30
0
 10
66.49512703979991
 20
-26.68450102923431
 30
0
  0
SPLINE
  5
21B
100
AcDbEntity
  8
s001-#def-active-grp
  6
CONTINUOUS
 62
    7
420
    0
370
   25
100
AcDbSpline
210
0
220
0
230
0
 70
    8
 71
    2
 72
    6
 73
    3
 74
    0
 42
1e-07
 43
1e-07
 40
0
 40
0
 40
0
 40
1
 40
1
 40
1
 10
66.49512703979991
 20
-26.68450102923431
 30
0
 10
66.43188977802777
 20
-26.68450102923431
 30
0
 10
66.38953812683604
 20
-26.63877247689285
 30
0
  0
SPLINE
  5
21C
100
AcDbEntity
  8
s001-#def-active-grp
  6
CONTINUOUS
 62
    7
420
    0
370
   25
100
AcDbSpline
210
0
220
0
230
0
 70
    8
 71
    2
 72
    6
 73
    3
 74
    0
 42
1e-07
 43
1e-07
 40
0
 40
0
 40
0
 40
1
 40
1
 40
1
 10
66.38953812683604
 20
-26.63877247689285
 30
0
 10
66.34718647564432
 20
-26.59304381726303
 30
0
 10
66.34718647564432
 20
-26.52189124939957
 30
0
  0
SPLINE
  5
21D
100
AcDbEntity
  8
s001-#def-active-grp
  6
CONTINUOUS
 62
    7
420
    0
370
   25
100
AcDbSpline
210
0
220
0
230
0
 70
    8
 71
    2
 72
    6
 73
    3
 74
    0
 42
1e-07
 43
1e-07
 40
0
 40
0
 40
0
 40
1
 40
1
 40
1
 10
66.34718647564432
 20
-26.52189124939957
 30
0
 10
66.34718647564432
 20
-26.44624329922714
 30
0
 10
66.3968727883198
 20
-26.4010739338211
 30
0
  0
SPLINE
  5
21E
100
AcDbEntity
  8
s001-#def-active-grp
  6
CONTINUOUS
 62
    7
420
    0
370
   25
100
AcDbSpline
210
0
220
0
230
0
 70
    8
 71
    2
 72
    6
 73
    3
 74
    0
 42
1e-07
 43
1e-07
 40
0
 40
0
 40
0
 40
1
 40
1
 40
1
 10
66.3968727883198
 20
-26.4010739338211
 30
0
 10
66.43978384102365
 20
-26.35816298840561
 30
0
 10
66.49738545979045
 20
-26.35816298840561
 30
0
  0
SPLINE
  5
21F
100
AcDbEntity
  8
s001-#def-active-grp
  6
CONTINUOUS
 62
    7
420
    0
370
   25
100
AcDbSpline
210
0
220
0
230
0
 70
    8
 71
    2
 72
    6
 73
    3
 74
    0
 42
1e-07
 43
1e-07
 40
0
 40
0
 40
0
 40
1
 40
1
 40
1
 10
72.40700290563348
 20
-16.55350988028565
 30
0
 10
72.40474443199878
 20
-16.22265478489914
 30
0
 10
72.40982061984781
 20
-16.17352787373581
 30
0
  0
SPLINE
  5
220
100
AcDbEntity
  8
s001-#def-active-grp
  6
CONTINUOUS
 62
    7
420
    0
370
   25
100
AcDbSpline
210
0
220
0
230
0
 70
    8
 71
    2
 72
    6
 73
    3
 74
    0
 42
1e-07
 43
1e-07
 40
0
 40
0
 40
0
 40
1
 40
1
 40
1
 10
72.40982061984781
 20
-16.17352787373581
 30
0
 10
72.41489675405268
 20
-16.12440074799576
 30
0
 10
72.42900683644061
 20
-16.106332958918
 30
0
  0
SPLINE
  5
221
100
AcDbEntity
  8
s001-#def-active-grp
  6
CONTINUOUS
 62
    7
420
    0
370
   25
100
AcDbSpline
210
0
220
0
230
0
 70
    8
 71
    2
 72
    6
 73
    3
 74
    0
 42
1e-07
 43
1e-07
 40
0
 40
0
 40
0
 40
1
 40
1
 40
1
 10
72.42900683644061
 20
-16.106332958918
 30
0
 10
72.44313837650066
 20
-16.08826516984024
 30
0
 10
72.47813396218066
 20
-16.08826516984024
 30
0
  0
SPLINE
  5
222
100
AcDbEntity
  8
s001-#def-active-grp
  6
CONTINUOUS
 62
    7
420
    0
370
   25
100
AcDbSpline
210
0
220
0
230
0
 70
    8
 71
    2
 72
    6
 73
    3
 74
    0
 42
1e-07
 43
1e-07
 40
0
 40
0
 40
0
 40
1
 40
1
 40
1
 10
72.47813396218066
 20
-16.08826516984024
 30
0
 10
72.5131509518886
 20
-16.08826516984024
 30
0
 10
72.52726098063235
 20
-16.10973142502823
 30
0
  0
SPLINE
  5
223
100
AcDbEntity
  8
s001-#def-active-grp
  6
CONTINUOUS
 62
    7
420
    0
370
   25
100
AcDbSpline
210
0
220
0
230
0
 70
    8
 71
    2
 72
    6
 73
    3
 74
    0
 42
1e-07
 43
1e-07
 40
0
 40
0
 40
0
 40
1
 40
1
 40
1
 10
72.52726098063235
 20
-16.10973142502823
 30
0
 10
72.54137100937609
 20
-16.13117600796738
 30
0
 10
72.5453287697101
 20
-16.16337539074936
 30
0
  0
SPLINE
  5
224
100
AcDbEntity
  8
s001-#def-active-grp
  6
CONTINUOUS
 62
    7
420
    0
370
   25
100
AcDbSpline
210
0
220
0
230
0
 70
    8
 71
    2
 72
    6
 73
    3
 74
    0
 42
1e-07
 43
1e-07
 40
0
 40
0
 40
0
 40
1
 40
1
 40
1
 10
72.5453287697101
 20
-16.16337539074936
 30
0
 10
72.54928642275576
 20
-16.19555331585922
 30
0
 10
72.54870567085985
 20
-16.28815046666183
 30
0
  0
SPLINE
  5
225
100
AcDbEntity
  8
s001-#def-active-grp
  6
CONTINUOUS
 62
    7
420
    0
370
   25
100
AcDbSpline
210
0
220
0
230
0
 70
    8
 71
    2
 72
    6
 73
    3
 74
    0
 42
1e-07
 43
1e-07
 40
0
 40
0
 40
0
 40
1
 40
1
 40
1
 10
72.54870567085985
 20
-16.28815046666183
 30
0
 10
72.54814648392443
 20
-16.38074772475281
 30
0
 10
72.54702800276522
 20
-16.62578082201996
 30
0
  0
SPLINE
  5
226
100
AcDbEntity
  8
s001-#def-active-grp
  6
CONTINUOUS
 62
    7
420
    0
370
   25
100
AcDbSpline
210
0
220
0
230
0
 70
    8
 71
    2
 72
    6
 73
    3
 74
    0
 42
1e-07
 43
1e-07
 40
0
 40
0
 40
0
 40
1
 40
1
 40
1
 10
72.4713584876323
 20
-17.93457454113283
 30
0
 10
72.41037986042741
 20
-17.93457454113283
 30
0
 10
72.36690967443232
 20
-17.88770592926063
 30
0
  0
SPLINE
  5
227
100
AcDbEntity
  8
s001-#def-active-grp
  6
CONTINUOUS
 62
    7
420
    0
370
   25
100
AcDbSpline
210
0
220
0
230
0
 70
    8
 71
    2
 72
    6
 73
    3
 74
    0
 42
1e-07
 43
1e-07
 40
0
 40
0
 40
0
 40
1
 40
1
 40
1
 10
72.36690967443232
 20
-17.88770592926063
 30
0
 10
72.32343954208139
 20
-17.84083730397739
 30
0
 10
72.3245580232406
 20
-17.76970627425232
 30
0
  0
SPLINE
  5
228
100
AcDbEntity
  8
s001-#def-active-grp
  6
CONTINUOUS
 62
    7
420
    0
370
   25
100
AcDbSpline
210
0
220
0
230
0
 70
    8
 71
    2
 72
    6
 73
    3
 74
    0
 42
1e-07
 43
1e-07
 40
0
 40
0
 40
0
 40
1
 40
1
 40
1
 10
72.3245580232406
 20
-17.76970627425232
 30
0
 10
72.3245580232406
 20
-17.70081223366775
 30
0
 10
72.36802815559153
 20
-17.65452433345833
 30
0
  0
SPLINE
  5
229
100
AcDbEntity
  8
s001-#def-active-grp
  6
CONTINUOUS
 62
    7
420
    0
370
   25
100
AcDbSpline
210
0
220
0
230
0
 70
    8
 71
    2
 72
    6
 73
    3
 74
    0
 42
1e-07
 43
1e-07
 40
0
 40
0
 40
0
 40
1
 40
1
 40
1
 10
72.36802815559153
 20
-17.65452433345833
 30
0
 10
72.41151979925874
 20
-17.60821497557678
 30
0
 10
72.47475695374254
 20
-17.60821497557678
 30
0
  0
SPLINE
  5
22A
100
AcDbEntity
  8
s001-#def-active-grp
  6
CONTINUOUS
 62
    7
420
    0
370
   25
100
AcDbSpline
210
0
220
0
230
0
 70
    8
 71
    2
 72
    6
 73
    3
 74
    0
 42
1e-07
 43
1e-07
 40
0
 40
0
 40
0
 40
1
 40
1
 40
1
 10
72.47475695374254
 20
-17.60821497557678
 30
0
 10
72.53799410822634
 20
-17.60821497557678
 30
0
 10
72.58032430174592
 20
-17.65396509287872
 30
0
  0
SPLINE
  5
22B
100
AcDbEntity
  8
s001-#def-active-grp
  6
CONTINUOUS
 62
    7
420
    0
370
   25
100
AcDbSpline
210
0
220
0
230
0
 70
    8
 71
    2
 72
    6
 73
    3
 74
    0
 42
1e-07
 43
1e-07
 40
0
 40
0
 40
0
 40
1
 40
1
 40
1
 10
72.58032430174592
 20
-17.65396509287872
 30
0
 10
72.62267595293764
 20
-17.69969375250854
 30
0
 10
72.62267595293764
 20
-17.77082475541153
 30
0
  0
SPLINE
  5
22C
100
AcDbEntity
  8
s001-#def-active-grp
  6
CONTINUOUS
 62
    7
420
    0
370
   25
100
AcDbSpline
210
0
220
0
230
0
 70
    8
 71
    2
 72
    6
 73
    3
 74
    0
 42
1e-07
 43
1e-07
 40
0
 40
0
 40
0
 40
1
 40
1
 40
1
 10
72.62267595293764
 20
-17.77082475541153
 30
0
 10
72.62155747177843
 20
-17.84649424372234
 30
0
 10
72.57187115910295
 20
-17.89166360912838
 30
0
  0
SPLINE
  5
22D
100
AcDbEntity
  8
s001-#def-active-grp
  6
CONTINUOUS
 62
    7
420
    0
370
   25
100
AcDbSpline
210
0
220
0
230
0
 70
    8
 71
    2
 72
    6
 73
    3
 74
    0
 42
1e-07
 43
1e-07
 40
0
 40
0
 40
0
 40
1
 40
1
 40
1
 10
72.57187115910295
 20
-17.89166360912838
 30
0
 10
72.52896021368747
 20
-17.93457454113283
 30
0
 10
72.4713584876323
 20
-17.93457454113283
 30
0
  0
SPLINE
  5
22E
100
AcDbEntity
  8
s001-#def-active-grp
  6
CONTINUOUS
 62
    7
420
    0
370
   25
100
AcDbSpline
210
0
220
0
230
0
 70
    8
 71
    2
 72
    6
 73
    3
 74
    0
 42
1e-07
 43
1e-07
 40
0
 40
0
 40
0
 40
1
 40
1
 40
1
 10
72.64074374201539
 20
-17.06166542885818
 30
0
 10
72.82481966974979
 20
-17.05940700886764
 30
0
 10
72.8513406014705
 20
-17.06392384884872
 30
0
  0
SPLINE
  5
22F
100
AcDbEntity
  8
s001-#def-active-grp
  6
CONTINUOUS
 62
    7
420
    0
370
   25
100
AcDbSpline
210
0
220
0
230
0
 70
    8
 71
    2
 72
    6
 73
    3
 74
    0
 42
1e-07
 43
1e-07
 40
0
 40
0
 40
0
 40
1
 40
1
 40
1
 10
72.8513406014705
 20
-17.06392384884872
 30
0
 10
72.87788299086336
 20
-17.06844079611816
 30
0
 10
72.88861611845735
 20
-17.0836908709816
 30
0
  0
SPLINE
  5
230
100
AcDbEntity
  8
s001-#def-active-grp
  6
CONTINUOUS
 62
    7
420
    0
370
   25
100
AcDbSpline
210
0
220
0
230
0
 70
    8
 71
    2
 72
    6
 73
    3
 74
    0
 42
1e-07
 43
1e-07
 40
0
 40
0
 40
0
 40
1
 40
1
 40
1
 10
72.88861611845735
 20
-17.0836908709816
 30
0
 10
72.899349138763
 20
-17.09894094584503
 30
0
 10
72.899349138763
 20
-17.13337718365707
 30
0
  0
SPLINE
  5
231
100
AcDbEntity
  8
s001-#def-active-grp
  6
CONTINUOUS
 62
    7
420
    0
370
   25
100
AcDbSpline
210
0
220
0
230
0
 70
    8
 71
    2
 72
    6
 73
    3
 74
    0
 42
1e-07
 43
1e-07
 40
0
 40
0
 40
0
 40
1
 40
1
 40
1
 10
72.899349138763
 20
-17.13337718365707
 30
0
 10
72.899349138763
 20
-17.16781352875748
 30
0
 10
72.88747607233768
 20
-17.18136426327743
 30
0
  0
SPLINE
  5
232
100
AcDbEntity
  8
s001-#def-active-grp
  6
CONTINUOUS
 62
    7
420
    0
370
   25
100
AcDbSpline
210
0
220
0
230
0
 70
    8
 71
    2
 72
    6
 73
    3
 74
    0
 42
1e-07
 43
1e-07
 40
0
 40
0
 40
0
 40
1
 40
1
 40
1
 10
72.88747607233768
 20
-17.18136426327743
 30
0
 10
72.87562446358447
 20
-17.19491510508576
 30
0
 10
72.85755678179507
 20
-17.19887275813141
 30
0
  0
SPLINE
  5
233
100
AcDbEntity
  8
s001-#def-active-grp
  6
CONTINUOUS
 62
    7
420
    0
370
   25
100
AcDbSpline
210
0
220
0
230
0
 70
    8
 71
    2
 72
    6
 73
    3
 74
    0
 42
1e-07
 43
1e-07
 40
0
 40
0
 40
0
 40
1
 40
1
 40
1
 10
72.85755678179507
 20
-17.19887275813141
 30
0
 10
72.83948899271729
 20
-17.20283051846542
 30
0
 10
72.78810344698672
 20
-17.20283051846542
 30
0
  0
SPLINE
  5
234
100
AcDbEntity
  8
s001-#def-active-grp
  6
CONTINUOUS
 62
    7
420
    0
370
   25
100
AcDbSpline
210
0
220
0
230
0
 70
    8
 71
    2
 72
    6
 73
    3
 74
    0
 42
1e-07
 43
1e-07
 40
0
 40
0
 40
0
 40
1
 40
1
 40
1
 10
72.78810344698672
 20
-17.20283051846542
 30
0
 10
72.73673935892825
 20
-17.20283051846542
 30
0
 10
72.59897273543123
 20
-17.20169047234573
 30
0
  0
SPLINE
  5
235
100
AcDbEntity
  8
s001-#def-active-grp
  6
CONTINUOUS
 62
    7
420
    0
370
   25
100
AcDbSpline
210
0
220
0
230
0
 70
    8
 71
    2
 72
    6
 73
    3
 74
    0
 42
1e-07
 43
1e-07
 40
0
 40
0
 40
0
 40
1
 40
1
 40
1
 10
72.08741872074847
 20
-17.19831357119598
 30
0
 10
72.0591986096168
 20
-17.1892796766571
 30
0
 10
72.0495840168262
 20
-17.16839428065338
 30
0
  0
SPLINE
  5
236
100
AcDbEntity
  8
s001-#def-active-grp
  6
CONTINUOUS
 62
    7
420
    0
370
   25
100
AcDbSpline
210
0
220
0
230
0
 70
    8
 71
    2
 72
    6
 73
    3
 74
    0
 42
1e-07
 43
1e-07
 40
0
 40
0
 40
0
 40
1
 40
1
 40
1
 10
72.0495840168262
 20
-17.16839428065338
 30
0
 10
72.03999088170769
 20
-17.14748721240082
 30
0
 10
72.03999088170769
 20
-17.12548333523788
 30
0
  0
SPLINE
  5
237
100
AcDbEntity
  8
s001-#def-active-grp
  6
CONTINUOUS
 62
    7
420
    0
370
   25
100
AcDbSpline
210
0
220
0
230
0
 70
    8
 71
    2
 72
    6
 73
    3
 74
    0
 42
1e-07
 43
1e-07
 40
0
 40
0
 40
0
 40
1
 40
1
 40
1
 10
72.03999088170769
 20
-17.12548333523788
 30
0
 10
72.03999088170769
 20
-17.10345789311447
 30
0
 10
72.0495840168262
 20
-17.0859493982605
 30
0
  0
SPLINE
  5
238
100
AcDbEntity
  8
s001-#def-active-grp
  6
CONTINUOUS
 62
    7
420
    0
370
   25
100
AcDbSpline
210
0
220
0
230
0
 70
    8
 71
    2
 72
    6
 73
    3
 74
    0
 42
1e-07
 43
1e-07
 40
0
 40
0
 40
0
 40
1
 40
1
 40
1
 10
72.0495840168262
 20
-17.0859493982605
 30
0
 10
72.0591986096168
 20
-17.06844079611816
 30
0
 10
72.08630023958926
 20
-17.05828852770843
 30
0
  0
SPLINE
  5
239
100
AcDbEntity
  8
s001-#def-active-grp
  6
CONTINUOUS
 62
    7
420
    0
370
   25
100
AcDbSpline
210
0
220
0
230
0
 70
    8
 71
    2
 72
    6
 73
    3
 74
    0
 42
1e-07
 43
1e-07
 40
0
 40
0
 40
0
 40
1
 40
1
 40
1
 10
72.76495952370408
 20
-16.56480219481506
 30
0
 10
73.09469603064304
 20
-16.56254377482452
 30
0
 10
73.14268311026339
 20
-16.56706072209396
 30
0
  0
SPLINE
  5
23A
100
AcDbEntity
  8
s001-#def-active-grp
  6
CONTINUOUS
 62
    7
420
    0
370
   25
100
AcDbSpline
210
0
220
0
230
0
 70
    8
 71
    2
 72
    6
 73
    3
 74
    0
 42
1e-07
 43
1e-07
 40
0
 40
0
 40
0
 40
1
 40
1
 40
1
 10
73.14268311026339
 20
-16.56706072209396
 30
0
 10
73.19069175484424
 20
-16.57157756207504
 30
0
 10
73.20987791779282
 20
-16.58682763693848
 30
0
  0
SPLINE
  5
23B
100
AcDbEntity
  8
s001-#def-active-grp
  6
CONTINUOUS
 62
    7
420
    0
370
   25
100
AcDbSpline
210
0
220
0
230
0
 70
    8
 71
    2
 72
    6
 73
    3
 74
    0
 42
1e-07
 43
1e-07
 40
0
 40
0
 40
0
 40
1
 40
1
 40
1
 10
73.20987791779282
 20
-16.58682763693848
 30
0
 10
73.22908564570193
 20
-16.60207771180191
 30
0
 10
73.22850489380602
 20
-16.63651394961395
 30
0
  0
SPLINE
  5
23C
100
AcDbEntity
  8
s001-#def-active-grp
  6
CONTINUOUS
 62
    7
420
    0
370
   25
100
AcDbSpline
210
0
220
0
230
0
 70
    8
 71
    2
 72
    6
 73
    3
 74
    0
 42
1e-07
 43
1e-07
 40
0
 40
0
 40
0
 40
1
 40
1
 40
1
 10
73.22850489380602
 20
-16.63651394961395
 30
0
 10
73.2279457068706
 20
-16.67095029471436
 30
0
 10
73.20706020357852
 20
-16.68450102923431
 30
0
  0
SPLINE
  5
23D
100
AcDbEntity
  8
s001-#def-active-grp
  6
CONTINUOUS
 62
    7
420
    0
370
   25
100
AcDbSpline
210
0
220
0
230
0
 70
    8
 71
    2
 72
    6
 73
    3
 74
    0
 42
1e-07
 43
1e-07
 40
0
 40
0
 40
0
 40
1
 40
1
 40
1
 10
73.20706020357852
 20
-16.68450102923431
 30
0
 10
73.18617480757479
 20
-16.69805187104263
 30
0
 10
73.15341623785739
 20
-16.70200963137665
 30
0
  0
SPLINE
  5
23E
100
AcDbEntity
  8
s001-#def-active-grp
  6
CONTINUOUS
 62
    7
420
    0
370
   25
100
AcDbSpline
210
0
220
0
230
0
 70
    8
 71
    2
 72
    6
 73
    3
 74
    0
 42
1e-07
 43
1e-07
 40
0
 40
0
 40
0
 40
1
 40
1
 40
1
 10
73.15341623785739
 20
-16.70200963137665
 30
0
 10
73.1206791258121
 20
-16.7059672844223
 30
0
 10
73.0286411619449
 20
-16.7059672844223
 30
0
  0
SPLINE
  5
23F
100
AcDbEntity
  8
s001-#def-active-grp
  6
CONTINUOUS
 62
    7
420
    0
370
   25
100
AcDbSpline
210
0
220
0
230
0
 70
    8
 71
    2
 72
    6
 73
    3
 74
    0
 42
1e-07
 43
1e-07
 40
0
 40
0
 40
0
 40
1
 40
1
 40
1
 10
73.0286411619449
 20
-16.7059672844223
 30
0
 10
72.93660319807771
 20
-16.7059672844223
 30
0
 10
72.69043005469086
 20
-16.70482734559097
 30
0
  0
SPLINE
  5
240
100
AcDbEntity
  8
s001-#def-active-grp
  6
CONTINUOUS
 62
    7
420
    0
370
   25
100
AcDbSpline
210
0
220
0
230
0
 70
    8
 71
    2
 72
    6
 73
    3
 74
    0
 42
1e-07
 43
1e-07
 40
0
 40
0
 40
0
 40
1
 40
1
 40
1
 10
71.77463150831704
 20
-16.70145033715286
 30
0
 10
71.72380518975501
 20
-16.69241644261398
 30
0
 10
71.70685592206959
 20
-16.67153104661026
 30
0
  0
SPLINE
  5
241
100
AcDbEntity
  8
s001-#def-active-grp
  6
CONTINUOUS
 62
    7
420
    0
370
   25
100
AcDbSpline
210
0
220
0
230
0
 70
    8
 71
    2
 72
    6
 73
    3
 74
    0
 42
1e-07
 43
1e-07
 40
0
 40
0
 40
0
 40
1
 40
1
 40
1
 10
71.70685592206959
 20
-16.67153104661026
 30
0
 10
71.68992815228944
 20
-16.6506239783577
 30
0
 10
71.69048739286904
 20
-16.62862010119476
 30
0
  0
SPLINE
  5
242
100
AcDbEntity
  8
s001-#def-active-grp
  6
CONTINUOUS
 62
    7
420
    0
370
   25
100
AcDbSpline
210
0
220
0
230
0
 70
    8
 71
    2
 72
    6
 73
    3
 74
    0
 42
1e-07
 43
1e-07
 40
0
 40
0
 40
0
 40
1
 40
1
 40
1
 10
71.69048739286904
 20
-16.62862010119476
 30
0
 10
71.69106814476493
 20
-16.60659465907135
 30
0
 10
71.7074366739655
 20
-16.58908616421738
 30
0
  0
SPLINE
  5
243
100
AcDbEntity
  8
s001-#def-active-grp
  6
CONTINUOUS
 62
    7
420
    0
370
   25
100
AcDbSpline
210
0
220
0
230
0
 70
    8
 71
    2
 72
    6
 73
    3
 74
    0
 42
1e-07
 43
1e-07
 40
0
 40
0
 40
0
 40
1
 40
1
 40
1
 10
71.7074366739655
 20
-16.58908616421738
 30
0
 10
71.72380518975501
 20
-16.57157756207504
 30
0
 10
71.77349151584153
 20
-16.56142529366531
 30
0
  0
SPLINE
  5
244
100
AcDbEntity
  8
s001-#def-active-grp
  6
CONTINUOUS
 62
    7
420
    0
370
   25
100
AcDbSpline
210
0
220
0
230
0
 70
    8
 71
    2
 72
    6
 73
    3
 74
    0
 42
1e-07
 43
1e-07
 40
0
 40
0
 40
0
 40
1
 40
1
 40
1
 10
72.63898531630639
 20
-12.73920620499172
 30
0
 10
72.64350226357584
 20
-13.07008269099512
 30
0
 10
72.63842612937097
 20
-13.11920977314927
 30
0
  0
SPLINE
  5
245
100
AcDbEntity
  8
s001-#def-active-grp
  6
CONTINUOUS
 62
    7
420
    0
370
   25
100
AcDbSpline
210
0
220
0
230
0
 70
    8
 71
    2
 72
    6
 73
    3
 74
    0
 42
1e-07
 43
1e-07
 40
0
 40
0
 40
0
 40
1
 40
1
 40
1
 10
72.63842612937097
 20
-13.11920977314927
 30
0
 10
72.63334988787776
 20
-13.16833685446524
 30
0
 10
72.61921829417352
 20
-13.18640460750081
 30
0
  0
SPLINE
  5
246
100
AcDbEntity
  8
s001-#def-active-grp
  6
CONTINUOUS
 62
    7
420
    0
370
   25
100
AcDbSpline
210
0
220
0
230
0
 70
    8
 71
    2
 72
    6
 73
    3
 74
    0
 42
1e-07
 43
1e-07
 40
0
 40
0
 40
0
 40
1
 40
1
 40
1
 10
72.61921829417352
 20
-13.18640460750081
 30
0
 10
72.60510826542978
 20
-13.20447236305096
 30
0
 10
72.57009127572184
 20
-13.20447236305096
 30
0
  0
SPLINE
  5
247
100
AcDbEntity
  8
s001-#def-active-grp
  6
CONTINUOUS
 62
    7
420
    0
370
   25
100
AcDbSpline
210
0
220
0
230
0
 70
    8
 71
    2
 72
    6
 73
    3
 74
    0
 42
1e-07
 43
1e-07
 40
0
 40
0
 40
0
 40
1
 40
1
 40
1
 10
72.57009127572184
 20
-13.20447236305096
 30
0
 10
72.53509574368601
 20
-13.20447236305096
 30
0
 10
72.52098566129808
 20
-13.18300614977249
 30
0
  0
SPLINE
  5
248
100
AcDbEntity
  8
s001-#def-active-grp
  6
CONTINUOUS
 62
    7
420
    0
370
   25
100
AcDbSpline
210
0
220
0
230
0
 70
    8
 71
    2
 72
    6
 73
    3
 74
    0
 42
1e-07
 43
1e-07
 40
0
 40
0
 40
0
 40
1
 40
1
 40
1
 10
72.52098566129808
 20
-13.18300614977249
 30
0
 10
72.50687563255434
 20
-13.16156144676258
 30
0
 10
72.50291792586449
 20
-13.12938363669434
 30
0
  0
SPLINE
  5
249
100
AcDbEntity
  8
s001-#def-active-grp
  6
CONTINUOUS
 62
    7
420
    0
370
   25
100
AcDbSpline
210
0
220
0
230
0
 70
    8
 71
    2
 72
    6
 73
    3
 74
    0
 42
1e-07
 43
1e-07
 40
0
 40
0
 40
0
 40
1
 40
1
 40
1
 10
72.50291792586449
 20
-13.12938363669434
 30
0
 10
72.49896021917468
 20
-13.09718432096758
 30
0
 10
72.49896021917468
 20
-13.00458707628765
 30
0
  0
SPLINE
  5
24A
100
AcDbEntity
  8
s001-#def-active-grp
  6
CONTINUOUS
 62
    7
420
    0
370
   25
100
AcDbSpline
210
0
220
0
230
0
 70
    8
 71
    2
 72
    6
 73
    3
 74
    0
 42
1e-07
 43
1e-07
 40
0
 40
0
 40
0
 40
1
 40
1
 40
1
 10
72.49896021917468
 20
-13.00458707628765
 30
0
 10
72.49896021917468
 20
-12.91198984501877
 30
0
 10
72.49896021917468
 20
-12.66693518279114
 30
0
  0
SPLINE
  5
24B
100
AcDbEntity
  8
s001-#def-active-grp
  6
CONTINUOUS
 62
    7
420
    0
370
   25
100
AcDbSpline
210
0
220
0
230
0
 70
    8
 71
    2
 72
    6
 73
    3
 74
    0
 42
1e-07
 43
1e-07
 40
0
 40
0
 40
0
 40
1
 40
1
 40
1
 10
72.57011273339396
 20
-11.35816298840561
 30
0
 10
72.63109146788722
 20
-11.35816298840561
 30
0
 10
72.67456160023812
 20
-11.40447239993133
 30
0
  0
SPLINE
  5
24C
100
AcDbEntity
  8
s001-#def-active-grp
  6
CONTINUOUS
 62
    7
420
    0
370
   25
100
AcDbSpline
210
0
220
0
230
0
 70
    8
 71
    2
 72
    6
 73
    3
 74
    0
 42
1e-07
 43
1e-07
 40
0
 40
0
 40
0
 40
1
 40
1
 40
1
 10
72.67456160023812
 20
-11.40447239993133
 30
0
 10
72.71803173258905
 20
-11.45076024649658
 30
0
 10
72.71803173258905
 20
-11.52189124939957
 30
0
  0
SPLINE
  5
24D
100
AcDbEntity
  8
s001-#def-active-grp
  6
CONTINUOUS
 62
    7
420
    0
370
   25
100
AcDbSpline
210
0
220
0
230
0
 70
    8
 71
    2
 72
    6
 73
    3
 74
    0
 42
1e-07
 43
1e-07
 40
0
 40
0
 40
0
 40
1
 40
1
 40
1
 10
72.71803173258905
 20
-11.52189124939957
 30
0
 10
72.71803173258905
 20
-11.59078539727249
 30
0
 10
72.67456160023812
 20
-11.63765399573364
 30
0
  0
SPLINE
  5
24E
100
AcDbEntity
  8
s001-#def-active-grp
  6
CONTINUOUS
 62
    7
420
    0
370
   25
100
AcDbSpline
210
0
220
0
230
0
 70
    8
 71
    2
 72
    6
 73
    3
 74
    0
 42
1e-07
 43
1e-07
 40
0
 40
0
 40
0
 40
1
 40
1
 40
1
 10
72.67456160023812
 20
-11.63765399573364
 30
0
 10
72.63109146788722
 20
-11.68450102923431
 30
0
 10
72.56785431340342
 20
-11.68450102923431
 30
0
  0
SPLINE
  5
24F
100
AcDbEntity
  8
s001-#def-active-grp
  6
CONTINUOUS
 62
    7
420
    0
370
   25
100
AcDbSpline
210
0
220
0
230
0
 70
    8
 71
    2
 72
    6
 73
    3
 74
    0
 42
1e-07
 43
1e-07
 40
0
 40
0
 40
0
 40
1
 40
1
 40
1
 10
72.56785431340342
 20
-11.68450102923431
 30
0
 10
72.50461715891961
 20
-11.68450102923431
 30
0
 10
72.46226545408373
 20
-11.63877247689285
 30
0
  0
SPLINE
  5
250
100
AcDbEntity
  8
s001-#def-active-grp
  6
CONTINUOUS
 62
    7
420
    0
370
   25
100
AcDbSpline
210
0
220
0
230
0
 70
    8
 71
    2
 72
    6
 73
    3
 74
    0
 42
1e-07
 43
1e-07
 40
0
 40
0
 40
0
 40
1
 40
1
 40
1
 10
72.46226545408373
 20
-11.63877247689285
 30
0
 10
72.41991380289201
 20
-11.59304381726303
 30
0
 10
72.41991380289201
 20
-11.52189124939957
 30
0
  0
SPLINE
  5
251
100
AcDbEntity
  8
s001-#def-active-grp
  6
CONTINUOUS
 62
    7
420
    0
370
   25
100
AcDbSpline
210
0
220
0
230
0
 70
    8
 71
    2
 72
    6
 73
    3
 74
    0
 42
1e-07
 43
1e-07
 40
0
 40
0
 40
0
 40
1
 40
1
 40
1
 10
72.41991380289201
 20
-11.52189124939957
 30
0
 10
72.41991380289201
 20
-11.44624329922714
 30
0
 10
72.46960011556749
 20
-11.4010739338211
 30
0
  0
SPLINE
  5
252
100
AcDbEntity
  8
s001-#def-active-grp
  6
CONTINUOUS
 62
    7
420
    0
370
   25
100
AcDbSpline
210
0
220
0
230
0
 70
    8
 71
    2
 72
    6
 73
    3
 74
    0
 42
1e-07
 43
1e-07
 40
0
 40
0
 40
0
 40
1
 40
1
 40
1
 10
72.46960011556749
 20
-11.4010739338211
 30
0
 10
72.51251106098297
 20
-11.35816298840561
 30
0
 10
72.57011273339396
 20
-11.35816298840561
 30
0
  0
SPLINE
  5
253
100
AcDbEntity
  8
s001-#def-active-grp
  6
CONTINUOUS
 62
    7
420
    0
370
   25
100
AcDbSpline
210
0
220
0
230
0
 70
    8
 71
    2
 72
    6
 73
    3
 74
    0
 42
1e-07
 43
1e-07
 40
0
 40
0
 40
0
 40
1
 40
1
 40
1
 10
72.25844401553277
 20
-12.50320692179718
 30
0
 10
71.92870750859385
 20
-12.50658387659111
 30
0
 10
71.88069890424615
 20
-12.50206692932167
 30
0
  0
SPLINE
  5
254
100
AcDbEntity
  8
s001-#def-active-grp
  6
CONTINUOUS
 62
    7
420
    0
370
   25
100
AcDbSpline
210
0
220
0
230
0
 70
    8
 71
    2
 72
    6
 73
    3
 74
    0
 42
1e-07
 43
1e-07
 40
0
 40
0
 40
0
 40
1
 40
1
 40
1
 10
71.88069890424615
 20
-12.50206692932167
 30
0
 10
71.83271181121472
 20
-12.49754998205223
 30
0
 10
71.81350405648354
 20
-12.48288071272888
 30
0
  0
SPLINE
  5
255
100
AcDbEntity
  8
s001-#def-active-grp
  6
CONTINUOUS
 62
    7
420
    0
370
   25
100
AcDbSpline
210
0
220
0
230
0
 70
    8
 71
    2
 72
    6
 73
    3
 74
    0
 42
1e-07
 43
1e-07
 40
0
 40
0
 40
0
 40
1
 40
1
 40
1
 10
71.81350405648354
 20
-12.48288071272888
 30
0
 10
71.79431782647973
 20
-12.46818987844505
 30
0
 10
71.79431782647973
 20
-12.43375358698883
 30
0
  0
SPLINE
  5
256
100
AcDbEntity
  8
s001-#def-active-grp
  6
CONTINUOUS
 62
    7
420
    0
370
   25
100
AcDbSpline
210
0
220
0
230
0
 70
    8
 71
    2
 72
    6
 73
    3
 74
    0
 42
1e-07
 43
1e-07
 40
0
 40
0
 40
0
 40
1
 40
1
 40
1
 10
71.79431782647973
 20
-12.43375358698883
 30
0
 10
71.79431782647973
 20
-12.39931734917679
 30
0
 10
71.81520328953866
 20
-12.38520726678886
 30
0
  0
SPLINE
  5
257
100
AcDbEntity
  8
s001-#def-active-grp
  6
CONTINUOUS
 62
    7
420
    0
370
   25
100
AcDbSpline
210
0
220
0
230
0
 70
    8
 71
    2
 72
    6
 73
    3
 74
    0
 42
1e-07
 43
1e-07
 40
0
 40
0
 40
0
 40
1
 40
1
 40
1
 10
71.81520328953866
 20
-12.38520726678886
 30
0
 10
71.83611026391392
 20
-12.37107572672882
 30
0
 10
71.86884730890398
 20
-12.36713953135528
 30
0
  0
SPLINE
  5
258
100
AcDbEntity
  8
s001-#def-active-grp
  6
CONTINUOUS
 62
    7
420
    0
370
   25
100
AcDbSpline
210
0
220
0
230
0
 70
    8
 71
    2
 72
    6
 73
    3
 74
    0
 42
1e-07
 43
1e-07
 40
0
 40
0
 40
0
 40
1
 40
1
 40
1
 10
71.86884730890398
 20
-12.36713953135528
 30
0
 10
71.90160586521034
 20
-12.36318182466545
 30
0
 10
71.99362235799435
 20
-12.36318182466545
 30
0
  0
SPLINE
  5
259
100
AcDbEntity
  8
s001-#def-active-grp
  6
CONTINUOUS
 62
    7
420
    0
370
   25
100
AcDbSpline
210
0
220
0
230
0
 70
    8
 71
    2
 72
    6
 73
    3
 74
    0
 42
1e-07
 43
1e-07
 40
0
 40
0
 40
0
 40
1
 40
1
 40
1
 10
71.99362235799435
 20
-12.36318182466545
 30
0
 10
72.08566034868363
 20
-12.36318182466545
 30
0
 10
72.33183349207047
 20
-12.36318182466545
 30
0
  0
SPLINE
  5
25A
100
AcDbEntity
  8
s001-#def-active-grp
  6
CONTINUOUS
 62
    7
420
    0
370
   25
100
AcDbSpline
210
0
220
0
230
0
 70
    8
 71
    2
 72
    6
 73
    3
 74
    0
 42
1e-07
 43
1e-07
 40
0
 40
0
 40
0
 40
1
 40
1
 40
1
 10
73.24765353634959
 20
-12.36318182466545
 30
0
 10
73.29845833018427
 20
-12.37221571920433
 30
0
 10
73.31538607314232
 20
-12.39254192827263
 30
0
  0
SPLINE
  5
25B
100
AcDbEntity
  8
s001-#def-active-grp
  6
CONTINUOUS
 62
    7
420
    0
370
   25
100
AcDbSpline
210
0
220
0
230
0
 70
    8
 71
    2
 72
    6
 73
    3
 74
    0
 42
1e-07
 43
1e-07
 40
0
 40
0
 40
0
 40
1
 40
1
 40
1
 10
73.31538607314232
 20
-12.39254192827263
 30
0
 10
73.33233538106089
 20
-12.41286813734093
 30
0
 10
73.33233538106089
 20
-12.43489357946434
 30
0
  0
SPLINE
  5
25C
100
AcDbEntity
  8
s001-#def-active-grp
  6
CONTINUOUS
 62
    7
420
    0
370
   25
100
AcDbSpline
210
0
220
0
230
0
 70
    8
 71
    2
 72
    6
 73
    3
 74
    0
 42
1e-07
 43
1e-07
 40
0
 40
0
 40
0
 40
1
 40
1
 40
1
 10
73.33233538106089
 20
-12.43489357946434
 30
0
 10
73.33233538106089
 20
-12.45689756391563
 30
0
 10
73.31596682503823
 20
-12.47496529934921
 30
0
  0
SPLINE
  5
25D
100
AcDbEntity
  8
s001-#def-active-grp
  6
CONTINUOUS
 62
    7
420
    0
370
   25
100
AcDbSpline
210
0
220
0
230
0
 70
    8
 71
    2
 72
    6
 73
    3
 74
    0
 42
1e-07
 43
1e-07
 40
0
 40
0
 40
0
 40
1
 40
1
 40
1
 10
73.31596682503823
 20
-12.47496529934921
 30
0
 10
73.2995982690156
 20
-12.49303303478279
 30
0
 10
73.24991195634013
 20
-12.50320692179718
 30
0
  0
SPLINE
  5
25E
100
AcDbEntity
  8
s001-#def-active-grp
  6
CONTINUOUS
 62
    7
420
    0
370
   25
100
AcDbSpline
210
0
220
0
230
0
 70
    8
 71
    2
 72
    6
 73
    3
 74
    0
 42
1e-07
 43
1e-07
 40
0
 40
0
 40
0
 40
1
 40
1
 40
1
 10
72.60673055212766
 20
-7.739206204991721
 30
0
 10
72.611247472575
 20
-8.07008269099512
 30
0
 10
72.60617131154805
 20
-8.119209773149276
 30
0
  0
SPLINE
  5
25F
100
AcDbEntity
  8
s001-#def-active-grp
  6
CONTINUOUS
 62
    7
420
    0
370
   25
100
AcDbSpline
210
0
220
0
230
0
 70
    8
 71
    2
 72
    6
 73
    3
 74
    0
 42
1e-07
 43
1e-07
 40
0
 40
0
 40
0
 40
1
 40
1
 40
1
 10
72.60617131154805
 20
-8.119209773149276
 30
0
 10
72.601095123699
 20
-8.168336854465238
 30
0
 10
72.58696355681687
 20
-8.186404607500815
 30
0
  0
SPLINE
  5
260
100
AcDbEntity
  8
s001-#def-active-grp
  6
CONTINUOUS
 62
    7
420
    0
370
   25
100
AcDbSpline
210
0
220
0
230
0
 70
    8
 71
    2
 72
    6
 73
    3
 74
    0
 42
1e-07
 43
1e-07
 40
0
 40
0
 40
0
 40
1
 40
1
 40
1
 10
72.58696355681687
 20
-8.186404607500815
 30
0
 10
72.57285350125102
 20
-8.204472363050961
 30
0
 10
72.537836484721
 20
-8.204472363050961
 30
0
  0
SPLINE
  5
261
100
AcDbEntity
  8
s001-#def-active-grp
  6
CONTINUOUS
 62
    7
420
    0
370
   25
100
AcDbSpline
210
0
220
0
230
0
 70
    8
 71
    2
 72
    6
 73
    3
 74
    0
 42
1e-07
 43
1e-07
 40
0
 40
0
 40
0
 40
1
 40
1
 40
1
 10
72.537836484721
 20
-8.204472363050961
 30
0
 10
72.50284095268518
 20
-8.204472363050961
 30
0
 10
72.48873089711932
 20
-8.183006149772488
 30
0
  0
SPLINE
  5
262
100
AcDbEntity
  8
s001-#def-active-grp
  6
CONTINUOUS
 62
    7
420
    0
370
   25
100
AcDbSpline
210
0
220
0
230
0
 70
    8
 71
    2
 72
    6
 73
    3
 74
    0
 42
1e-07
 43
1e-07
 40
0
 40
0
 40
0
 40
1
 40
1
 40
1
 10
72.48873089711932
 20
-8.183006149772488
 30
0
 10
72.4746208415535
 20
-8.161561446762576
 30
0
 10
72.4706631482747
 20
-8.129383636694335
 30
0
  0
SPLINE
  5
263
100
AcDbEntity
  8
s001-#def-active-grp
  6
CONTINUOUS
 62
    7
420
    0
370
   25
100
AcDbSpline
210
0
220
0
230
0
 70
    8
 71
    2
 72
    6
 73
    3
 74
    0
 42
1e-07
 43
1e-07
 40
0
 40
0
 40
0
 40
1
 40
1
 40
1
 10
72.4706631482747
 20
-8.129383636694335
 30
0
 10
72.46670545499592
 20
-8.097184320967578
 30
0
 10
72.46670545499592
 20
-8.004587076287649
 30
0
  0
SPLINE
  5
264
100
AcDbEntity
  8
s001-#def-active-grp
  6
CONTINUOUS
 62
    7
420
    0
370
   25
100
AcDbSpline
210
0
220
0
230
0
 70
    8
 71
    2
 72
    6
 73
    3
 74
    0
 42
1e-07
 43
1e-07
 40
0
 40
0
 40
0
 40
1
 40
1
 40
1
 10
72.46670545499592
 20
-8.004587076287649
 30
0
 10
72.46670545499592
 20
-7.911989845018767
 30
0
 10
72.46670545499592
 20
-7.666935182791137
 30
0
  0
SPLINE
  5
265
100
AcDbEntity
  8
s001-#def-active-grp
  6
CONTINUOUS
 62
    7
420
    0
370
   25
100
AcDbSpline
210
0
220
0
230
0
 70
    8
 71
    2
 72
    6
 73
    3
 74
    0
 42
1e-07
 43
1e-07
 40
0
 40
0
 40
0
 40
1
 40
1
 40
1
 10
72.5378579960373
 20
-6.358162988405608
 30
0
 10
72.59883665006427
 20
-6.358162988405608
 30
0
 10
72.64230680923728
 20
-6.404472399931334
 30
0
  0
SPLINE
  5
266
100
AcDbEntity
  8
s001-#def-active-grp
  6
CONTINUOUS
 62
    7
420
    0
370
   25
100
AcDbSpline
210
0
220
0
230
0
 70
    8
 71
    2
 72
    6
 73
    3
 74
    0
 42
1e-07
 43
1e-07
 40
0
 40
0
 40
0
 40
1
 40
1
 40
1
 10
72.64230680923728
 20
-6.404472399931334
 30
0
 10
72.68577696841029
 20
-6.45076024649658
 30
0
 10
72.68577696841029
 20
-6.521891249399566
 30
0
  0
SPLINE
  5
267
100
AcDbEntity
  8
s001-#def-active-grp
  6
CONTINUOUS
 62
    7
420
    0
370
   25
100
AcDbSpline
210
0
220
0
230
0
 70
    8
 71
    2
 72
    6
 73
    3
 74
    0
 42
1e-07
 43
1e-07
 40
0
 40
0
 40
0
 40
1
 40
1
 40
1
 10
72.68577696841029
 20
-6.521891249399566
 30
0
 10
72.68577696841029
 20
-6.590785397272491
 30
0
 10
72.64230680923728
 20
-6.637653995733642
 30
0
  0
SPLINE
  5
268
100
AcDbEntity
  8
s001-#def-active-grp
  6
CONTINUOUS
 62
    7
420
    0
370
   25
100
AcDbSpline
210
0
220
0
230
0
 70
    8
 71
    2
 72
    6
 73
    3
 74
    0
 42
1e-07
 43
1e-07
 40
0
 40
0
 40
0
 40
1
 40
1
 40
1
 10
72.64230680923728
 20
-6.637653995733642
 30
0
 10
72.59883665006427
 20
-6.684501029234314
 30
0
 10
72.53559952240258
 20
-6.684501029234314
 30
0
  0
SPLINE
  5
269
100
AcDbEntity
  8
s001-#def-active-grp
  6
CONTINUOUS
 62
    7
420
    0
370
   25
100
AcDbSpline
210
0
220
0
230
0
 70
    8
 71
    2
 72
    6
 73
    3
 74
    0
 42
1e-07
 43
1e-07
 40
0
 40
0
 40
0
 40
1
 40
1
 40
1
 10
72.53559952240258
 20
-6.684501029234314
 30
0
 10
72.47236238132982
 20
-6.684501029234314
 30
0
 10
72.43001070331601
 20
-6.638772476892852
 30
0
  0
SPLINE
  5
26A
100
AcDbEntity
  8
s001-#def-active-grp
  6
CONTINUOUS
 62
    7
420
    0
370
   25
100
AcDbSpline
210
0
220
0
230
0
 70
    8
 71
    2
 72
    6
 73
    3
 74
    0
 42
1e-07
 43
1e-07
 40
0
 40
0
 40
0
 40
1
 40
1
 40
1
 10
72.43001070331601
 20
-6.638772476892852
 30
0
 10
72.38765902530221
 20
-6.59304381726303
 30
0
 10
72.38765902530221
 20
-6.521891249399566
 30
0
  0
SPLINE
  5
26B
100
AcDbEntity
  8
s001-#def-active-grp
  6
CONTINUOUS
 62
    7
420
    0
370
   25
100
AcDbSpline
210
0
220
0
230
0
 70
    8
 71
    2
 72
    6
 73
    3
 74
    0
 42
1e-07
 43
1e-07
 40
0
 40
0
 40
0
 40
1
 40
1
 40
1
 10
72.38765902530221
 20
-6.521891249399566
 30
0
 10
72.38765902530221
 20
-6.446243299227142
 30
0
 10
72.43734535138873
 20
-6.401073933821104
 30
0
  0
SPLINE
  5
26C
100
AcDbEntity
  8
s001-#def-active-grp
  6
CONTINUOUS
 62
    7
420
    0
370
   25
100
AcDbSpline
210
0
220
0
230
0
 70
    8
 71
    2
 72
    6
 73
    3
 74
    0
 42
1e-07
 43
1e-07
 40
0
 40
0
 40
0
 40
1
 40
1
 40
1
 10
72.43734535138873
 20
-6.401073933821104
 30
0
 10
72.48025626998214
 20
-6.358162988405608
 30
0
 10
72.5378579960373
 20
-6.358162988405608
 30
0
  0
SPLINE
  5
26D
100
AcDbEntity
  8
s001-#def-active-grp
  6
CONTINUOUS
 62
    7
420
    0
370
   25
100
AcDbSpline
210
0
220
0
230
0
 70
    8
 71
    2
 72
    6
 73
    3
 74
    0
 42
1e-07
 43
1e-07
 40
0
 40
0
 40
0
 40
1
 40
1
 40
1
 10
72.36915698128433
 20
-2.244601417761229
 30
0
 10
72.36915698128433
 20
-2.155402625780486
 30
0
 10
72.435771077151
 20
-2.088207818251037
 30
0
  0
SPLINE
  5
26E
100
AcDbEntity
  8
s001-#def-active-grp
  6
CONTINUOUS
 62
    7
420
    0
370
   25
100
AcDbSpline
210
0
220
0
230
0
 70
    8
 71
    2
 72
    6
 73
    3
 74
    0
 42
1e-07
 43
1e-07
 40
0
 40
0
 40
0
 40
1
 40
1
 40
1
 10
72.435771077151
 20
-2.088207818251037
 30
0
 10
72.50240667092294
 20
-2.021013010721587
 30
0
 10
72.58936847376319
 20
-2.021013010721587
 30
0
  0
SPLINE
  5
26F
100
AcDbEntity
  8
s001-#def-active-grp
  6
CONTINUOUS
 62
    7
420
    0
370
   25
100
AcDbSpline
210
0
220
0
230
0
 70
    8
 71
    2
 72
    6
 73
    3
 74
    0
 42
1e-07
 43
1e-07
 40
0
 40
0
 40
0
 40
1
 40
1
 40
1
 10
72.58936847376319
 20
-2.021013010721587
 30
0
 10
72.67519031095
 20
-2.021013010721587
 30
0
 10
72.73446975874396
 20
-2.084250165205383
 30
0
  0
SPLINE
  5
270
100
AcDbEntity
  8
s001-#def-active-grp
  6
CONTINUOUS
 62
    7
420
    0
370
   25
100
AcDbSpline
210
0
220
0
230
0
 70
    8
 71
    2
 72
    6
 73
    3
 74
    0
 42
1e-07
 43
1e-07
 40
0
 40
0
 40
0
 40
1
 40
1
 40
1
 10
72.73446975874396
 20
-2.084250165205383
 30
0
 10
72.79374920653791
 20
-2.147487212400817
 30
0
 10
72.79374920653791
 20
-2.243482936602019
 30
0
  0
SPLINE
  5
271
100
AcDbEntity
  8
s001-#def-active-grp
  6
CONTINUOUS
 62
    7
420
    0
370
   25
100
AcDbSpline
210
0
220
0
230
0
 70
    8
 71
    2
 72
    6
 73
    3
 74
    0
 42
1e-07
 43
1e-07
 40
0
 40
0
 40
0
 40
1
 40
1
 40
1
 10
72.79374920653791
 20
-2.243482936602019
 30
0
 10
72.79374920653791
 20
-2.338338668327712
 30
0
 10
72.73163053321332
 20
-2.403834296446227
 30
0
  0
SPLINE
  5
272
100
AcDbEntity
  8
s001-#def-active-grp
  6
CONTINUOUS
 62
    7
420
    0
370
   25
100
AcDbSpline
210
0
220
0
230
0
 70
    8
 71
    2
 72
    6
 73
    3
 74
    0
 42
1e-07
 43
1e-07
 40
0
 40
0
 40
0
 40
1
 40
1
 40
1
 10
72.73163053321332
 20
-2.403834296446227
 30
0
 10
72.66953337120503
 20
-2.469329870920562
 30
0
 10
72.5814530872056
 20
-2.469329870920562
 30
0
  0
SPLINE
  5
273
100
AcDbEntity
  8
s001-#def-active-grp
  6
CONTINUOUS
 62
    7
420
    0
370
   25
100
AcDbSpline
210
0
220
0
230
0
 70
    8
 71
    2
 72
    6
 73
    3
 74
    0
 42
1e-07
 43
1e-07
 40
0
 40
0
 40
0
 40
1
 40
1
 40
1
 10
72.5814530872056
 20
-2.469329870920562
 30
0
 10
72.49563125001879
 20
-2.469329870920562
 30
0
 10
72.43239412235707
 20
-2.403275055866622
 30
0
  0
SPLINE
  5
274
100
AcDbEntity
  8
s001-#def-active-grp
  6
CONTINUOUS
 62
    7
420
    0
370
   25
100
AcDbSpline
210
0
220
0
230
0
 70
    8
 71
    2
 72
    6
 73
    3
 74
    0
 42
1e-07
 43
1e-07
 40
0
 40
0
 40
0
 40
1
 40
1
 40
1
 10
72.43239412235707
 20
-2.403275055866622
 30
0
 10
72.36915698128433
 20
-2.337198675852203
 30
0
 10
72.36915698128433
 20
-2.244601417761229
 30
0
  0
SPLINE
  5
275
100
AcDbEntity
  8
s001-#def-active-grp
  6
CONTINUOUS
 62
    7
420
    0
370
   25
100
AcDbSpline
210
0
220
0
230
0
 70
    8
 71
    2
 72
    6
 73
    3
 74
    0
 42
1e-07
 43
1e-07
 40
0
 40
0
 40
0
 40
1
 40
1
 40
1
 10
65.61263600579639
 20
1.603192095775224
 30
0
 10
65.6239283203258
 20
1.702564721126176
 30
0
 10
65.6871654748096
 20
1.718374036569216
 30
0
  0
SPLINE
  5
276
100
AcDbEntity
  8
s001-#def-active-grp
  6
CONTINUOUS
 62
    7
420
    0
370
   25
100
AcDbSpline
210
0
220
0
230
0
 70
    8
 71
    2
 72
    6
 73
    3
 74
    0
 42
1e-07
 43
1e-07
 40
0
 40
0
 40
0
 40
1
 40
1
 40
1
 10
66.10272387257953
 20
1.30281567903242
 30
0
 10
66.08127907506366
 20
1.20907845193527
 30
0
 10
65.99883419267076
 20
1.219252318833089
 30
0
  0
SPLINE
  5
277
100
AcDbEntity
  8
s001-#def-active-grp
  6
CONTINUOUS
 62
    7
420
    0
370
   25
100
AcDbSpline
210
0
220
0
230
0
 70
    8
 71
    2
 72
    6
 73
    3
 74
    0
 42
1e-07
 43
1e-07
 40
0
 40
0
 40
0
 40
1
 40
1
 40
1
 10
64.32982548914094
 20
2.812613068837738
 30
0
 10
64.35692711911338
 20
2.888261019010162
 30
0
 10
64.44274894288915
 20
2.897294913549043
 30
0
  0
SPLINE
  5
278
100
AcDbEntity
  8
s001-#def-active-grp
  6
CONTINUOUS
 62
    7
420
    0
370
   25
100
AcDbSpline
210
0
220
0
230
0
 70
    8
 71
    2
 72
    6
 73
    3
 74
    0
 42
1e-07
 43
1e-07
 40
0
 40
0
 40
0
 40
1
 40
1
 40
1
 10
64.82557025543588
 20
2.515613673944092
 30
0
 10
64.81539636842149
 20
2.39479625107727
 30
0
 10
64.71602374307054
 20
2.42753336312256
 30
0
  0
SPLINE
  5
279
100
AcDbEntity
  8
s001-#def-active-grp
  6
CONTINUOUS
 62
    7
420
    0
370
   25
100
AcDbSpline
210
0
220
0
230
0
 70
    8
 71
    2
 72
    6
 73
    3
 74
    0
 42
1e-07
 43
1e-07
 40
0
 40
0
 40
0
 40
1
 40
1
 40
1
 10
72.768428583841
 20
1.520768724698641
 30
0
 10
72.78761485407796
 20
1.516251777429201
 30
0
 10
72.81583501885382
 20
1.488569395560837
 30
0
  0
SPLINE
  5
27A
100
AcDbEntity
  8
s001-#def-active-grp
  6
CONTINUOUS
 62
    7
420
    0
370
   25
100
AcDbSpline
210
0
220
0
230
0
 70
    8
 71
    2
 72
    6
 73
    3
 74
    0
 42
1e-07
 43
1e-07
 40
0
 40
0
 40
0
 40
1
 40
1
 40
1
 10
72.81583501885382
 20
1.488569395560837
 30
0
 10
72.8440766413018
 20
1.460908525008776
 30
0
 10
72.85255124161688
 20
1.410082219857788
 30
0
  0
SPLINE
  5
27B
100
AcDbEntity
  8
s001-#def-active-grp
  6
CONTINUOUS
 62
    7
420
    0
370
   25
100
AcDbSpline
210
0
220
0
230
0
 70
    8
 71
    2
 72
    6
 73
    3
 74
    0
 42
1e-07
 43
1e-07
 40
0
 40
0
 40
0
 40
1
 40
1
 40
1
 10
72.85255124161688
 20
1.410082219857788
 30
0
 10
72.86102584193196
 20
1.359277412612059
 30
0
 10
72.81979267189948
 20
1.302256438452815
 30
0
  0
SPLINE
  5
27C
100
AcDbEntity
  8
s001-#def-active-grp
  6
CONTINUOUS
 62
    7
420
    0
370
   25
100
AcDbSpline
210
0
220
0
230
0
 70
    8
 71
    2
 72
    6
 73
    3
 74
    0
 42
1e-07
 43
1e-07
 40
0
 40
0
 40
0
 40
1
 40
1
 40
1
 10
72.81979267189948
 20
1.302256438452815
 30
0
 10
72.77858095953908
 20
1.245235469951361
 30
0
 10
72.72097923348394
 20
1.239578542360171
 30
0
  0
SPLINE
  5
27D
100
AcDbEntity
  8
s001-#def-active-grp
  6
CONTINUOUS
 62
    7
420
    0
370
   25
100
AcDbSpline
210
0
220
0
230
0
 70
    8
 71
    2
 72
    6
 73
    3
 74
    0
 42
1e-07
 43
1e-07
 40
0
 40
0
 40
0
 40
1
 40
1
 40
1
 10
72.72097923348394
 20
1.239578542360171
 30
0
 10
72.66339907238927
 20
1.233921614978527
 30
0
 10
72.6238651354119
 20
1.257065546643055
 30
0
  0
SPLINE
  5
27E
100
AcDbEntity
  8
s001-#def-active-grp
  6
CONTINUOUS
 62
    7
420
    0
370
   25
100
AcDbSpline
210
0
220
0
230
0
 70
    8
 71
    2
 72
    6
 73
    3
 74
    0
 42
1e-07
 43
1e-07
 40
0
 40
0
 40
0
 40
1
 40
1
 40
1
 10
72.6238651354119
 20
1.257065546643055
 30
0
 10
72.58435265610663
 20
1.280230989623881
 30
0
 10
72.56006868670431
 20
1.329358068425275
 30
0
  0
SPLINE
  5
27F
100
AcDbEntity
  8
s001-#def-active-grp
  6
CONTINUOUS
 62
    7
420
    0
370
   25
100
AcDbSpline
210
0
220
0
230
0
 70
    8
 71
    2
 72
    6
 73
    3
 74
    0
 42
1e-07
 43
1e-07
 40
0
 40
0
 40
0
 40
1
 40
1
 40
1
 10
72.56006868670431
 20
1.329358068425275
 30
0
 10
72.53580628226248
 20
1.378485153932189
 30
0
 10
72.55217483828511
 20
1.434946887511828
 30
0
  0
SPLINE
  5
280
100
AcDbEntity
  8
s001-#def-active-grp
  6
CONTINUOUS
 62
    7
420
    0
370
   25
100
AcDbSpline
210
0
220
0
230
0
 70
    8
 71
    2
 72
    6
 73
    3
 74
    0
 42
1e-07
 43
1e-07
 40
0
 40
0
 40
0
 40
1
 40
1
 40
1
 10
72.55217483828511
 20
1.434946887511828
 30
0
 10
72.56854334066358
 20
1.491408621091463
 30
0
 10
72.6317804415032
 20
1.520768724698641
 30
0
  0
SPLINE
  5
281
100
AcDbEntity
  8
s001-#def-active-grp
  6
CONTINUOUS
 62
    7
420
    0
370
   25
100
AcDbSpline
210
0
220
0
230
0
 70
    8
 71
    2
 72
    6
 73
    3
 74
    0
 42
1e-07
 43
1e-07
 40
0
 40
0
 40
0
 40
1
 40
1
 40
1
 10
72.6317804415032
 20
1.520768724698641
 30
0
 10
72.6317804415032
 20
1.696929292697526
 30
0
 10
72.6317804415032
 20
1.921636234540557
 30
0
  0
SPLINE
  5
282
100
AcDbEntity
  8
s001-#def-active-grp
  6
CONTINUOUS
 62
    7
420
    0
370
   25
100
AcDbSpline
210
0
220
0
230
0
 70
    8
 71
    2
 72
    6
 73
    3
 74
    0
 42
1e-07
 43
1e-07
 40
0
 40
0
 40
0
 40
1
 40
1
 40
1
 10
72.6317804415032
 20
2.841973172444916
 30
0
 10
72.62840354035345
 20
3.041837011594392
 30
0
 10
72.68598370144812
 20
3.13387497546158
 30
0
  0
SPLINE
  5
283
100
AcDbEntity
  8
s001-#def-active-grp
  6
CONTINUOUS
 62
    7
420
    0
370
   25
100
AcDbSpline
210
0
220
0
230
0
 70
    8
 71
    2
 72
    6
 73
    3
 74
    0
 42
1e-07
 43
1e-07
 40
0
 40
0
 40
0
 40
1
 40
1
 40
1
 10
72.68598370144812
 20
3.13387497546158
 30
0
 10
72.74358542750326
 20
3.225912939328769
 30
0
 10
72.81867419074027
 20
3.272759972829437
 30
0
  0
SPLINE
  5
284
100
AcDbEntity
  8
s001-#def-active-grp
  6
CONTINUOUS
 62
    7
420
    0
370
   25
100
AcDbSpline
210
0
220
0
230
0
 70
    8
 71
    2
 72
    6
 73
    3
 74
    0
 42
1e-07
 43
1e-07
 40
0
 40
0
 40
0
 40
1
 40
1
 40
1
 10
72.81867419074027
 20
3.272759972829437
 30
0
 10
72.89376295397727
 20
3.319628678578951
 30
0
 10
72.98861863205877
 20
3.337137280721283
 30
0
  0
SPLINE
  5
285
100
AcDbEntity
  8
s001-#def-active-grp
  6
CONTINUOUS
 62
    7
420
    0
370
   25
100
AcDbSpline
210
0
220
0
230
0
 70
    8
 71
    2
 72
    6
 73
    3
 74
    0
 42
1e-07
 43
1e-07
 40
0
 40
0
 40
0
 40
1
 40
1
 40
1
 10
72.98861863205877
 20
3.337137280721283
 30
0
 10
73.08347431014028
 20
3.354645668286896
 30
0
 10
73.15460531304328
 20
3.358581863660433
 30
0
  0
SPLINE
  5
286
100
AcDbEntity
  8
s001-#def-active-grp
  6
CONTINUOUS
 62
    7
420
    0
370
   25
100
AcDbSpline
210
0
220
0
230
0
 70
    8
 71
    2
 72
    6
 73
    3
 74
    0
 42
1e-07
 43
1e-07
 40
0
 40
0
 40
0
 40
1
 40
1
 40
1
 10
73.15460531304328
 20
3.358581863660433
 30
0
 10
73.22575788090674
 20
3.362539516706086
 30
0
 10
73.41998629162757
 20
3.362539516706086
 30
0
  0
SPLINE
  5
287
100
AcDbEntity
  8
s001-#def-active-grp
  6
CONTINUOUS
 62
    7
420
    0
370
   25
100
AcDbSpline
210
0
220
0
230
0
 70
    8
 71
    2
 72
    6
 73
    3
 74
    0
 42
1e-07
 43
1e-07
 40
0
 40
0
 40
0
 40
1
 40
1
 40
1
 10
73.41998629162757
 20
3.236065422315217
 30
0
 10
73.20431319067922
 20
3.236065422315217
 30
0
 10
73.13541915009466
 20
3.229289947766876
 30
0
  0
SPLINE
  5
288
100
AcDbEntity
  8
s001-#def-active-grp
  6
CONTINUOUS
 62
    7
420
    0
370
   25
100
AcDbSpline
210
0
220
0
230
0
 70
    8
 71
    2
 72
    6
 73
    3
 74
    0
 42
1e-07
 43
1e-07
 40
0
 40
0
 40
0
 40
1
 40
1
 40
1
 10
73.13541915009466
 20
3.229289947766876
 30
0
 10
73.06654656718223
 20
3.222514473218538
 30
0
 10
72.99427551815955
 20
3.20104821803055
 30
0
  0
SPLINE
  5
289
100
AcDbEntity
  8
s001-#def-active-grp
  6
CONTINUOUS
 62
    7
420
    0
370
   25
100
AcDbSpline
210
0
220
0
230
0
 70
    8
 71
    2
 72
    6
 73
    3
 74
    0
 42
1e-07
 43
1e-07
 40
0
 40
0
 40
0
 40
1
 40
1
 40
1
 10
72.99427551815955
 20
3.20104821803055
 30
0
 10
72.92200457642522
 20
3.1796036350914
 30
0
 10
72.87399593184438
 20
3.135552750844575
 30
0
  0
SPLINE
  5
28A
100
AcDbEntity
  8
s001-#def-active-grp
  6
CONTINUOUS
 62
    7
420
    0
370
   25
100
AcDbSpline
210
0
220
0
230
0
 70
    8
 71
    2
 72
    6
 73
    3
 74
    0
 42
1e-07
 43
1e-07
 40
0
 40
0
 40
0
 40
1
 40
1
 40
1
 10
72.87399593184438
 20
3.135552750844575
 30
0
 10
72.82600885222402
 20
3.091523324269868
 30
0
 10
72.80002564976661
 20
3.037879251260378
 30
0
  0
SPLINE
  5
28B
100
AcDbEntity
  8
s001-#def-active-grp
  6
CONTINUOUS
 62
    7
420
    0
370
   25
100
AcDbSpline
210
0
220
0
230
0
 70
    8
 71
    2
 72
    6
 73
    3
 74
    0
 42
1e-07
 43
1e-07
 40
0
 40
0
 40
0
 40
1
 40
1
 40
1
 10
72.80002564976661
 20
3.037879251260378
 30
0
 10
72.77406401226966
 20
2.984256743211365
 30
0
 10
72.768428583841
 20
2.844231699723817
 30
0
  0
SPLINE
  5
28C
100
AcDbEntity
  8
s001-#def-active-grp
  6
CONTINUOUS
 62
    7
420
    0
370
   25
100
AcDbSpline
210
0
220
0
230
0
 70
    8
 71
    2
 72
    6
 73
    3
 74
    0
 42
1e-07
 43
1e-07
 40
0
 40
0
 40
0
 40
1
 40
1
 40
1
 10
72.65888212511985
 20
1.995047276038743
 30
0
 10
72.9897585708901
 20
1.990530328769303
 30
0
 10
73.15970301220861
 20
2.101195322293854
 30
0
  0
SPLINE
  5
28D
100
AcDbEntity
  8
s001-#def-active-grp
  6
CONTINUOUS
 62
    7
420
    0
370
   25
100
AcDbSpline
210
0
220
0
230
0
 70
    8
 71
    2
 72
    6
 73
    3
 74
    0
 42
1e-07
 43
1e-07
 40
0
 40
0
 40
0
 40
1
 40
1
 40
1
 10
73.15970301220861
 20
2.101195322293854
 30
0
 10
73.32964745352712
 20
2.211860262174227
 30
0
 10
73.46911331007925
 20
2.377287756223296
 30
0
  0
SPLINE
  5
28E
100
AcDbEntity
  8
s001-#def-active-grp
  6
CONTINUOUS
 62
    7
420
    0
370
   25
100
AcDbSpline
210
0
220
0
230
0
 70
    8
 71
    2
 72
    6
 73
    3
 74
    0
 42
1e-07
 43
1e-07
 40
0
 40
0
 40
0
 40
1
 40
1
 40
1
 10
73.46911331007925
 20
2.377287756223296
 30
0
 10
73.60857927391973
 20
2.542715250272369
 30
0
 10
73.60857927391973
 20
2.439965723771667
 30
0
  0
SPLINE
  5
28F
100
AcDbEntity
  8
s001-#def-active-grp
  6
CONTINUOUS
 62
    7
420
    0
370
   25
100
AcDbSpline
210
0
220
0
230
0
 70
    8
 71
    2
 72
    6
 73
    3
 74
    0
 42
1e-07
 43
1e-07
 40
0
 40
0
 40
0
 40
1
 40
1
 40
1
 10
73.60857927391973
 20
2.439965723771667
 30
0
 10
73.45838018248526
 20
2.162173949498751
 30
0
 10
73.22294016669241
 20
2.008598064202882
 30
0
  0
SPLINE
  5
290
100
AcDbEntity
  8
s001-#def-active-grp
  6
CONTINUOUS
 62
    7
420
    0
370
   25
100
AcDbSpline
210
0
220
0
230
0
 70
    8
 71
    2
 72
    6
 73
    3
 74
    0
 42
1e-07
 43
1e-07
 40
0
 40
0
 40
0
 40
1
 40
1
 40
1
 10
73.22294016669241
 20
2.008598064202882
 30
0
 10
72.98750015089956
 20
1.855022178907014
 30
0
 10
72.69389911482779
 20
1.836954389829256
 30
0
  0
SPLINE
  5
291
100
AcDbEntity
  8
s001-#def-active-grp
  6
CONTINUOUS
 62
    7
420
    0
370
   25
100
AcDbSpline
210
0
220
0
230
0
 70
    8
 71
    2
 72
    6
 73
    3
 74
    0
 42
1e-07
 43
1e-07
 40
0
 40
0
 40
0
 40
1
 40
1
 40
1
 10
72.69389911482779
 20
1.836954389829256
 30
0
 10
72.5301493961617
 20
1.830179022569276
 30
0
 10
72.31785325000732
 20
1.916560046691515
 30
0
  0
SPLINE
  5
292
100
AcDbEntity
  8
s001-#def-active-grp
  6
CONTINUOUS
 62
    7
420
    0
370
   25
100
AcDbSpline
210
0
220
0
230
0
 70
    8
 71
    2
 72
    6
 73
    3
 74
    0
 42
1e-07
 43
1e-07
 40
0
 40
0
 40
0
 40
1
 40
1
 40
1
 10
72.31785325000732
 20
1.916560046691515
 30
0
 10
72.10555715749709
 20
2.002941124457934
 30
0
 10
71.96157438049761
 20
2.160474716443634
 30
0
  0
SPLINE
  5
293
100
AcDbEntity
  8
s001-#def-active-grp
  6
CONTINUOUS
 62
    7
420
    0
370
   25
100
AcDbSpline
210
0
220
0
230
0
 70
    8
 71
    2
 72
    6
 73
    3
 74
    0
 42
1e-07
 43
1e-07
 40
0
 40
0
 40
0
 40
1
 40
1
 40
1
 10
71.96157438049761
 20
2.160474716443634
 30
0
 10
71.81761308799236
 20
2.318008362073517
 30
0
 10
71.80857920686452
 20
2.411724101323699
 30
0
  0
SPLINE
  5
294
100
AcDbEntity
  8
s001-#def-active-grp
  6
CONTINUOUS
 62
    7
420
    0
370
   25
100
AcDbSpline
210
0
220
0
230
0
 70
    8
 71
    2
 72
    6
 73
    3
 74
    0
 42
1e-07
 43
1e-07
 40
0
 40
0
 40
0
 40
1
 40
1
 40
1
 10
71.80857920686452
 20
2.411724101323699
 30
0
 10
71.83116390297857
 20
2.511096726674655
 30
0
 10
71.87237558851686
 20
2.439944158811191
 30
0
  0
SPLINE
  5
295
100
AcDbEntity
  8
s001-#def-active-grp
  6
CONTINUOUS
 62
    7
420
    0
370
   25
100
AcDbSpline
210
0
220
0
230
0
 70
    8
 71
    2
 72
    6
 73
    3
 74
    0
 42
1e-07
 43
1e-07
 40
0
 40
0
 40
0
 40
1
 40
1
 40
1
 10
71.87237558851686
 20
2.439944158811191
 30
0
 10
71.91358727405515
 20
2.368813155908203
 30
0
 10
71.961015139918
 20
2.317427610177614
 30
0
  0
SPLINE
  5
296
100
AcDbEntity
  8
s001-#def-active-grp
  6
CONTINUOUS
 62
    7
420
    0
370
   25
100
AcDbSpline
210
0
220
0
230
0
 70
    8
 71
    2
 72
    6
 73
    3
 74
    0
 42
1e-07
 43
1e-07
 40
0
 40
0
 40
0
 40
1
 40
1
 40
1
 10
71.961015139918
 20
2.317427610177614
 30
0
 10
72.00844297895875
 20
2.26606352211914
 30
0
 10
72.06942165980783
 20
2.209021090287781
 30
0
  0
SPLINE
  5
297
100
AcDbEntity
  8
s001-#def-active-grp
  6
CONTINUOUS
 62
    7
420
    0
370
   25
100
AcDbSpline
210
0
220
0
230
0
 70
    8
 71
    2
 72
    6
 73
    3
 74
    0
 42
1e-07
 43
1e-07
 40
0
 40
0
 40
0
 40
1
 40
1
 40
1
 10
72.06942165980783
 20
2.209021090287781
 30
0
 10
72.13040031383483
 20
2.152000116128541
 30
0
 10
72.29301009366958
 20
2.071254466790773
 30
0
  0
SPLINE
  5
298
100
AcDbEntity
  8
s001-#def-active-grp
  6
CONTINUOUS
 62
    7
420
    0
370
   25
100
AcDbSpline
210
0
220
0
230
0
 70
    8
 71
    2
 72
    6
 73
    3
 74
    0
 42
1e-07
 43
1e-07
 40
0
 40
0
 40
0
 40
1
 40
1
 40
1
 10
72.29301009366958
 20
2.071254466790773
 30
0
 10
72.4556198735043
 20
1.990530328769303
 30
0
 10
72.65888212511985
 20
1.995047276038743
 30
0
  0
ENDSEC
  0
SECTION
  2
OBJECTS
  0
DICTIONARY
  5
C
330
0
100
AcDbDictionary
281
    1
  3
ACAD_GROUP
350
D
  0
DICTIONARY
  5
D
330
C
100
AcDbDictionary
281
    1
  0
ENDSEC
  0
EOF
